%TF.GenerationSoftware,KiCad,Pcbnew,9.0.0*%
%TF.CreationDate,2025-03-06T01:50:57+08:00*%
%TF.ProjectId,HighDRMic_EVB,48696768-4452-44d6-9963-5f4556422e6b,rev?*%
%TF.SameCoordinates,Original*%
%TF.FileFunction,Drillmap*%
%TF.FilePolarity,Positive*%
%FSLAX45Y45*%
G04 Gerber Fmt 4.5, Leading zero omitted, Abs format (unit mm)*
G04 Created by KiCad (PCBNEW 9.0.0) date 2025-03-06 01:50:57*
%MOMM*%
%LPD*%
G01*
G04 APERTURE LIST*
%ADD10C,0.050000*%
%ADD11C,0.200000*%
%ADD12C,0.100000*%
%ADD13C,0.160000*%
G04 APERTURE END LIST*
D10*
X15670000Y-11780000D02*
G75*
G02*
X15330000Y-11780000I-170000J0D01*
G01*
X15330000Y-11780000D02*
G75*
G02*
X15670000Y-11780000I170000J0D01*
G01*
X19670000Y-8220000D02*
G75*
G02*
X19330000Y-8220000I-170000J0D01*
G01*
X19330000Y-8220000D02*
G75*
G02*
X19670000Y-8220000I170000J0D01*
G01*
X15200000Y-8000000D02*
X19800000Y-8000000D01*
X19800000Y-12000000D01*
X15200000Y-12000000D01*
X15200000Y-8000000D01*
X15670000Y-8220000D02*
G75*
G02*
X15330000Y-8220000I-170000J0D01*
G01*
X15330000Y-8220000D02*
G75*
G02*
X15670000Y-8220000I170000J0D01*
G01*
X19670000Y-11780000D02*
G75*
G02*
X19330000Y-11780000I-170000J0D01*
G01*
X19330000Y-11780000D02*
G75*
G02*
X19670000Y-11780000I170000J0D01*
G01*
D11*
D12*
X15592000Y-9960000D02*
X15672000Y-10040000D01*
X15672000Y-9960000D02*
X15592000Y-10040000D01*
D13*
X18669000Y-10381000D02*
G75*
G02*
X18509000Y-10381000I-80000J0D01*
G01*
X18509000Y-10381000D02*
G75*
G02*
X18669000Y-10381000I80000J0D01*
G01*
X19177000Y-9619000D02*
G75*
G02*
X19017000Y-9619000I-80000J0D01*
G01*
X19017000Y-9619000D02*
G75*
G02*
X19177000Y-9619000I80000J0D01*
G01*
D11*
X15458277Y-12313984D02*
X15458277Y-12113984D01*
X15458277Y-12113984D02*
X15505896Y-12113984D01*
X15505896Y-12113984D02*
X15534467Y-12123508D01*
X15534467Y-12123508D02*
X15553515Y-12142555D01*
X15553515Y-12142555D02*
X15563039Y-12161603D01*
X15563039Y-12161603D02*
X15572562Y-12199698D01*
X15572562Y-12199698D02*
X15572562Y-12228269D01*
X15572562Y-12228269D02*
X15563039Y-12266365D01*
X15563039Y-12266365D02*
X15553515Y-12285412D01*
X15553515Y-12285412D02*
X15534467Y-12304460D01*
X15534467Y-12304460D02*
X15505896Y-12313984D01*
X15505896Y-12313984D02*
X15458277Y-12313984D01*
X15658277Y-12313984D02*
X15658277Y-12180650D01*
X15658277Y-12218746D02*
X15667801Y-12199698D01*
X15667801Y-12199698D02*
X15677324Y-12190174D01*
X15677324Y-12190174D02*
X15696372Y-12180650D01*
X15696372Y-12180650D02*
X15715420Y-12180650D01*
X15782086Y-12313984D02*
X15782086Y-12180650D01*
X15782086Y-12113984D02*
X15772562Y-12123508D01*
X15772562Y-12123508D02*
X15782086Y-12133031D01*
X15782086Y-12133031D02*
X15791610Y-12123508D01*
X15791610Y-12123508D02*
X15782086Y-12113984D01*
X15782086Y-12113984D02*
X15782086Y-12133031D01*
X15905896Y-12313984D02*
X15886848Y-12304460D01*
X15886848Y-12304460D02*
X15877324Y-12285412D01*
X15877324Y-12285412D02*
X15877324Y-12113984D01*
X16010658Y-12313984D02*
X15991610Y-12304460D01*
X15991610Y-12304460D02*
X15982086Y-12285412D01*
X15982086Y-12285412D02*
X15982086Y-12113984D01*
X16239229Y-12313984D02*
X16239229Y-12113984D01*
X16239229Y-12113984D02*
X16305896Y-12256841D01*
X16305896Y-12256841D02*
X16372562Y-12113984D01*
X16372562Y-12113984D02*
X16372562Y-12313984D01*
X16553515Y-12313984D02*
X16553515Y-12209222D01*
X16553515Y-12209222D02*
X16543991Y-12190174D01*
X16543991Y-12190174D02*
X16524943Y-12180650D01*
X16524943Y-12180650D02*
X16486848Y-12180650D01*
X16486848Y-12180650D02*
X16467801Y-12190174D01*
X16553515Y-12304460D02*
X16534467Y-12313984D01*
X16534467Y-12313984D02*
X16486848Y-12313984D01*
X16486848Y-12313984D02*
X16467801Y-12304460D01*
X16467801Y-12304460D02*
X16458277Y-12285412D01*
X16458277Y-12285412D02*
X16458277Y-12266365D01*
X16458277Y-12266365D02*
X16467801Y-12247317D01*
X16467801Y-12247317D02*
X16486848Y-12237793D01*
X16486848Y-12237793D02*
X16534467Y-12237793D01*
X16534467Y-12237793D02*
X16553515Y-12228269D01*
X16648753Y-12180650D02*
X16648753Y-12380650D01*
X16648753Y-12190174D02*
X16667801Y-12180650D01*
X16667801Y-12180650D02*
X16705896Y-12180650D01*
X16705896Y-12180650D02*
X16724943Y-12190174D01*
X16724943Y-12190174D02*
X16734467Y-12199698D01*
X16734467Y-12199698D02*
X16743991Y-12218746D01*
X16743991Y-12218746D02*
X16743991Y-12275888D01*
X16743991Y-12275888D02*
X16734467Y-12294936D01*
X16734467Y-12294936D02*
X16724943Y-12304460D01*
X16724943Y-12304460D02*
X16705896Y-12313984D01*
X16705896Y-12313984D02*
X16667801Y-12313984D01*
X16667801Y-12313984D02*
X16648753Y-12304460D01*
X16829705Y-12294936D02*
X16839229Y-12304460D01*
X16839229Y-12304460D02*
X16829705Y-12313984D01*
X16829705Y-12313984D02*
X16820182Y-12304460D01*
X16820182Y-12304460D02*
X16829705Y-12294936D01*
X16829705Y-12294936D02*
X16829705Y-12313984D01*
X16829705Y-12190174D02*
X16839229Y-12199698D01*
X16839229Y-12199698D02*
X16829705Y-12209222D01*
X16829705Y-12209222D02*
X16820182Y-12199698D01*
X16820182Y-12199698D02*
X16829705Y-12190174D01*
X16829705Y-12190174D02*
X16829705Y-12209222D01*
D12*
X15117500Y-12602500D02*
X15197500Y-12682500D01*
X15197500Y-12602500D02*
X15117500Y-12682500D01*
D11*
X15496372Y-12533984D02*
X15515420Y-12533984D01*
X15515420Y-12533984D02*
X15534467Y-12543508D01*
X15534467Y-12543508D02*
X15543991Y-12553031D01*
X15543991Y-12553031D02*
X15553515Y-12572079D01*
X15553515Y-12572079D02*
X15563039Y-12610174D01*
X15563039Y-12610174D02*
X15563039Y-12657793D01*
X15563039Y-12657793D02*
X15553515Y-12695888D01*
X15553515Y-12695888D02*
X15543991Y-12714936D01*
X15543991Y-12714936D02*
X15534467Y-12724460D01*
X15534467Y-12724460D02*
X15515420Y-12733984D01*
X15515420Y-12733984D02*
X15496372Y-12733984D01*
X15496372Y-12733984D02*
X15477324Y-12724460D01*
X15477324Y-12724460D02*
X15467801Y-12714936D01*
X15467801Y-12714936D02*
X15458277Y-12695888D01*
X15458277Y-12695888D02*
X15448753Y-12657793D01*
X15448753Y-12657793D02*
X15448753Y-12610174D01*
X15448753Y-12610174D02*
X15458277Y-12572079D01*
X15458277Y-12572079D02*
X15467801Y-12553031D01*
X15467801Y-12553031D02*
X15477324Y-12543508D01*
X15477324Y-12543508D02*
X15496372Y-12533984D01*
X15648753Y-12714936D02*
X15658277Y-12724460D01*
X15658277Y-12724460D02*
X15648753Y-12733984D01*
X15648753Y-12733984D02*
X15639229Y-12724460D01*
X15639229Y-12724460D02*
X15648753Y-12714936D01*
X15648753Y-12714936D02*
X15648753Y-12733984D01*
X15772562Y-12619698D02*
X15753515Y-12610174D01*
X15753515Y-12610174D02*
X15743991Y-12600650D01*
X15743991Y-12600650D02*
X15734467Y-12581603D01*
X15734467Y-12581603D02*
X15734467Y-12572079D01*
X15734467Y-12572079D02*
X15743991Y-12553031D01*
X15743991Y-12553031D02*
X15753515Y-12543508D01*
X15753515Y-12543508D02*
X15772562Y-12533984D01*
X15772562Y-12533984D02*
X15810658Y-12533984D01*
X15810658Y-12533984D02*
X15829705Y-12543508D01*
X15829705Y-12543508D02*
X15839229Y-12553031D01*
X15839229Y-12553031D02*
X15848753Y-12572079D01*
X15848753Y-12572079D02*
X15848753Y-12581603D01*
X15848753Y-12581603D02*
X15839229Y-12600650D01*
X15839229Y-12600650D02*
X15829705Y-12610174D01*
X15829705Y-12610174D02*
X15810658Y-12619698D01*
X15810658Y-12619698D02*
X15772562Y-12619698D01*
X15772562Y-12619698D02*
X15753515Y-12629222D01*
X15753515Y-12629222D02*
X15743991Y-12638746D01*
X15743991Y-12638746D02*
X15734467Y-12657793D01*
X15734467Y-12657793D02*
X15734467Y-12695888D01*
X15734467Y-12695888D02*
X15743991Y-12714936D01*
X15743991Y-12714936D02*
X15753515Y-12724460D01*
X15753515Y-12724460D02*
X15772562Y-12733984D01*
X15772562Y-12733984D02*
X15810658Y-12733984D01*
X15810658Y-12733984D02*
X15829705Y-12724460D01*
X15829705Y-12724460D02*
X15839229Y-12714936D01*
X15839229Y-12714936D02*
X15848753Y-12695888D01*
X15848753Y-12695888D02*
X15848753Y-12657793D01*
X15848753Y-12657793D02*
X15839229Y-12638746D01*
X15839229Y-12638746D02*
X15829705Y-12629222D01*
X15829705Y-12629222D02*
X15810658Y-12619698D01*
X15972562Y-12533984D02*
X15991610Y-12533984D01*
X15991610Y-12533984D02*
X16010658Y-12543508D01*
X16010658Y-12543508D02*
X16020182Y-12553031D01*
X16020182Y-12553031D02*
X16029705Y-12572079D01*
X16029705Y-12572079D02*
X16039229Y-12610174D01*
X16039229Y-12610174D02*
X16039229Y-12657793D01*
X16039229Y-12657793D02*
X16029705Y-12695888D01*
X16029705Y-12695888D02*
X16020182Y-12714936D01*
X16020182Y-12714936D02*
X16010658Y-12724460D01*
X16010658Y-12724460D02*
X15991610Y-12733984D01*
X15991610Y-12733984D02*
X15972562Y-12733984D01*
X15972562Y-12733984D02*
X15953515Y-12724460D01*
X15953515Y-12724460D02*
X15943991Y-12714936D01*
X15943991Y-12714936D02*
X15934467Y-12695888D01*
X15934467Y-12695888D02*
X15924943Y-12657793D01*
X15924943Y-12657793D02*
X15924943Y-12610174D01*
X15924943Y-12610174D02*
X15934467Y-12572079D01*
X15934467Y-12572079D02*
X15943991Y-12553031D01*
X15943991Y-12553031D02*
X15953515Y-12543508D01*
X15953515Y-12543508D02*
X15972562Y-12533984D01*
X16163039Y-12533984D02*
X16182086Y-12533984D01*
X16182086Y-12533984D02*
X16201134Y-12543508D01*
X16201134Y-12543508D02*
X16210658Y-12553031D01*
X16210658Y-12553031D02*
X16220182Y-12572079D01*
X16220182Y-12572079D02*
X16229705Y-12610174D01*
X16229705Y-12610174D02*
X16229705Y-12657793D01*
X16229705Y-12657793D02*
X16220182Y-12695888D01*
X16220182Y-12695888D02*
X16210658Y-12714936D01*
X16210658Y-12714936D02*
X16201134Y-12724460D01*
X16201134Y-12724460D02*
X16182086Y-12733984D01*
X16182086Y-12733984D02*
X16163039Y-12733984D01*
X16163039Y-12733984D02*
X16143991Y-12724460D01*
X16143991Y-12724460D02*
X16134467Y-12714936D01*
X16134467Y-12714936D02*
X16124943Y-12695888D01*
X16124943Y-12695888D02*
X16115420Y-12657793D01*
X16115420Y-12657793D02*
X16115420Y-12610174D01*
X16115420Y-12610174D02*
X16124943Y-12572079D01*
X16124943Y-12572079D02*
X16134467Y-12553031D01*
X16134467Y-12553031D02*
X16143991Y-12543508D01*
X16143991Y-12543508D02*
X16163039Y-12533984D01*
X16315420Y-12733984D02*
X16315420Y-12600650D01*
X16315420Y-12619698D02*
X16324943Y-12610174D01*
X16324943Y-12610174D02*
X16343991Y-12600650D01*
X16343991Y-12600650D02*
X16372563Y-12600650D01*
X16372563Y-12600650D02*
X16391610Y-12610174D01*
X16391610Y-12610174D02*
X16401134Y-12629222D01*
X16401134Y-12629222D02*
X16401134Y-12733984D01*
X16401134Y-12629222D02*
X16410658Y-12610174D01*
X16410658Y-12610174D02*
X16429705Y-12600650D01*
X16429705Y-12600650D02*
X16458277Y-12600650D01*
X16458277Y-12600650D02*
X16477324Y-12610174D01*
X16477324Y-12610174D02*
X16486848Y-12629222D01*
X16486848Y-12629222D02*
X16486848Y-12733984D01*
X16582086Y-12733984D02*
X16582086Y-12600650D01*
X16582086Y-12619698D02*
X16591610Y-12610174D01*
X16591610Y-12610174D02*
X16610658Y-12600650D01*
X16610658Y-12600650D02*
X16639229Y-12600650D01*
X16639229Y-12600650D02*
X16658277Y-12610174D01*
X16658277Y-12610174D02*
X16667801Y-12629222D01*
X16667801Y-12629222D02*
X16667801Y-12733984D01*
X16667801Y-12629222D02*
X16677324Y-12610174D01*
X16677324Y-12610174D02*
X16696372Y-12600650D01*
X16696372Y-12600650D02*
X16724943Y-12600650D01*
X16724943Y-12600650D02*
X16743991Y-12610174D01*
X16743991Y-12610174D02*
X16753515Y-12629222D01*
X16753515Y-12629222D02*
X16753515Y-12733984D01*
X17143991Y-12524460D02*
X16972563Y-12781603D01*
X17401134Y-12533984D02*
X17420182Y-12533984D01*
X17420182Y-12533984D02*
X17439229Y-12543508D01*
X17439229Y-12543508D02*
X17448753Y-12553031D01*
X17448753Y-12553031D02*
X17458277Y-12572079D01*
X17458277Y-12572079D02*
X17467801Y-12610174D01*
X17467801Y-12610174D02*
X17467801Y-12657793D01*
X17467801Y-12657793D02*
X17458277Y-12695888D01*
X17458277Y-12695888D02*
X17448753Y-12714936D01*
X17448753Y-12714936D02*
X17439229Y-12724460D01*
X17439229Y-12724460D02*
X17420182Y-12733984D01*
X17420182Y-12733984D02*
X17401134Y-12733984D01*
X17401134Y-12733984D02*
X17382087Y-12724460D01*
X17382087Y-12724460D02*
X17372563Y-12714936D01*
X17372563Y-12714936D02*
X17363039Y-12695888D01*
X17363039Y-12695888D02*
X17353515Y-12657793D01*
X17353515Y-12657793D02*
X17353515Y-12610174D01*
X17353515Y-12610174D02*
X17363039Y-12572079D01*
X17363039Y-12572079D02*
X17372563Y-12553031D01*
X17372563Y-12553031D02*
X17382087Y-12543508D01*
X17382087Y-12543508D02*
X17401134Y-12533984D01*
X17553515Y-12714936D02*
X17563039Y-12724460D01*
X17563039Y-12724460D02*
X17553515Y-12733984D01*
X17553515Y-12733984D02*
X17543991Y-12724460D01*
X17543991Y-12724460D02*
X17553515Y-12714936D01*
X17553515Y-12714936D02*
X17553515Y-12733984D01*
X17686848Y-12533984D02*
X17705896Y-12533984D01*
X17705896Y-12533984D02*
X17724944Y-12543508D01*
X17724944Y-12543508D02*
X17734468Y-12553031D01*
X17734468Y-12553031D02*
X17743991Y-12572079D01*
X17743991Y-12572079D02*
X17753515Y-12610174D01*
X17753515Y-12610174D02*
X17753515Y-12657793D01*
X17753515Y-12657793D02*
X17743991Y-12695888D01*
X17743991Y-12695888D02*
X17734468Y-12714936D01*
X17734468Y-12714936D02*
X17724944Y-12724460D01*
X17724944Y-12724460D02*
X17705896Y-12733984D01*
X17705896Y-12733984D02*
X17686848Y-12733984D01*
X17686848Y-12733984D02*
X17667801Y-12724460D01*
X17667801Y-12724460D02*
X17658277Y-12714936D01*
X17658277Y-12714936D02*
X17648753Y-12695888D01*
X17648753Y-12695888D02*
X17639229Y-12657793D01*
X17639229Y-12657793D02*
X17639229Y-12610174D01*
X17639229Y-12610174D02*
X17648753Y-12572079D01*
X17648753Y-12572079D02*
X17658277Y-12553031D01*
X17658277Y-12553031D02*
X17667801Y-12543508D01*
X17667801Y-12543508D02*
X17686848Y-12533984D01*
X17820182Y-12533984D02*
X17943991Y-12533984D01*
X17943991Y-12533984D02*
X17877325Y-12610174D01*
X17877325Y-12610174D02*
X17905896Y-12610174D01*
X17905896Y-12610174D02*
X17924944Y-12619698D01*
X17924944Y-12619698D02*
X17934468Y-12629222D01*
X17934468Y-12629222D02*
X17943991Y-12648269D01*
X17943991Y-12648269D02*
X17943991Y-12695888D01*
X17943991Y-12695888D02*
X17934468Y-12714936D01*
X17934468Y-12714936D02*
X17924944Y-12724460D01*
X17924944Y-12724460D02*
X17905896Y-12733984D01*
X17905896Y-12733984D02*
X17848753Y-12733984D01*
X17848753Y-12733984D02*
X17829706Y-12724460D01*
X17829706Y-12724460D02*
X17820182Y-12714936D01*
X18134468Y-12733984D02*
X18020182Y-12733984D01*
X18077325Y-12733984D02*
X18077325Y-12533984D01*
X18077325Y-12533984D02*
X18058277Y-12562555D01*
X18058277Y-12562555D02*
X18039229Y-12581603D01*
X18039229Y-12581603D02*
X18020182Y-12591127D01*
X18315420Y-12533984D02*
X18220182Y-12533984D01*
X18220182Y-12533984D02*
X18210658Y-12629222D01*
X18210658Y-12629222D02*
X18220182Y-12619698D01*
X18220182Y-12619698D02*
X18239229Y-12610174D01*
X18239229Y-12610174D02*
X18286849Y-12610174D01*
X18286849Y-12610174D02*
X18305896Y-12619698D01*
X18305896Y-12619698D02*
X18315420Y-12629222D01*
X18315420Y-12629222D02*
X18324944Y-12648269D01*
X18324944Y-12648269D02*
X18324944Y-12695888D01*
X18324944Y-12695888D02*
X18315420Y-12714936D01*
X18315420Y-12714936D02*
X18305896Y-12724460D01*
X18305896Y-12724460D02*
X18286849Y-12733984D01*
X18286849Y-12733984D02*
X18239229Y-12733984D01*
X18239229Y-12733984D02*
X18220182Y-12724460D01*
X18220182Y-12724460D02*
X18210658Y-12714936D01*
X18401134Y-12533984D02*
X18401134Y-12572079D01*
X18477325Y-12533984D02*
X18477325Y-12572079D01*
X18772563Y-12810174D02*
X18763039Y-12800650D01*
X18763039Y-12800650D02*
X18743991Y-12772079D01*
X18743991Y-12772079D02*
X18734468Y-12753031D01*
X18734468Y-12753031D02*
X18724944Y-12724460D01*
X18724944Y-12724460D02*
X18715420Y-12676841D01*
X18715420Y-12676841D02*
X18715420Y-12638746D01*
X18715420Y-12638746D02*
X18724944Y-12591127D01*
X18724944Y-12591127D02*
X18734468Y-12562555D01*
X18734468Y-12562555D02*
X18743991Y-12543508D01*
X18743991Y-12543508D02*
X18763039Y-12514936D01*
X18763039Y-12514936D02*
X18772563Y-12505412D01*
X18953515Y-12733984D02*
X18839230Y-12733984D01*
X18896372Y-12733984D02*
X18896372Y-12533984D01*
X18896372Y-12533984D02*
X18877325Y-12562555D01*
X18877325Y-12562555D02*
X18858277Y-12581603D01*
X18858277Y-12581603D02*
X18839230Y-12591127D01*
X19191611Y-12733984D02*
X19191611Y-12533984D01*
X19277325Y-12733984D02*
X19277325Y-12629222D01*
X19277325Y-12629222D02*
X19267801Y-12610174D01*
X19267801Y-12610174D02*
X19248753Y-12600650D01*
X19248753Y-12600650D02*
X19220182Y-12600650D01*
X19220182Y-12600650D02*
X19201134Y-12610174D01*
X19201134Y-12610174D02*
X19191611Y-12619698D01*
X19401134Y-12733984D02*
X19382087Y-12724460D01*
X19382087Y-12724460D02*
X19372563Y-12714936D01*
X19372563Y-12714936D02*
X19363039Y-12695888D01*
X19363039Y-12695888D02*
X19363039Y-12638746D01*
X19363039Y-12638746D02*
X19372563Y-12619698D01*
X19372563Y-12619698D02*
X19382087Y-12610174D01*
X19382087Y-12610174D02*
X19401134Y-12600650D01*
X19401134Y-12600650D02*
X19429706Y-12600650D01*
X19429706Y-12600650D02*
X19448753Y-12610174D01*
X19448753Y-12610174D02*
X19458277Y-12619698D01*
X19458277Y-12619698D02*
X19467801Y-12638746D01*
X19467801Y-12638746D02*
X19467801Y-12695888D01*
X19467801Y-12695888D02*
X19458277Y-12714936D01*
X19458277Y-12714936D02*
X19448753Y-12724460D01*
X19448753Y-12724460D02*
X19429706Y-12733984D01*
X19429706Y-12733984D02*
X19401134Y-12733984D01*
X19582087Y-12733984D02*
X19563039Y-12724460D01*
X19563039Y-12724460D02*
X19553515Y-12705412D01*
X19553515Y-12705412D02*
X19553515Y-12533984D01*
X19734468Y-12724460D02*
X19715420Y-12733984D01*
X19715420Y-12733984D02*
X19677325Y-12733984D01*
X19677325Y-12733984D02*
X19658277Y-12724460D01*
X19658277Y-12724460D02*
X19648753Y-12705412D01*
X19648753Y-12705412D02*
X19648753Y-12629222D01*
X19648753Y-12629222D02*
X19658277Y-12610174D01*
X19658277Y-12610174D02*
X19677325Y-12600650D01*
X19677325Y-12600650D02*
X19715420Y-12600650D01*
X19715420Y-12600650D02*
X19734468Y-12610174D01*
X19734468Y-12610174D02*
X19743992Y-12629222D01*
X19743992Y-12629222D02*
X19743992Y-12648269D01*
X19743992Y-12648269D02*
X19648753Y-12667317D01*
X19810658Y-12810174D02*
X19820182Y-12800650D01*
X19820182Y-12800650D02*
X19839230Y-12772079D01*
X19839230Y-12772079D02*
X19848753Y-12753031D01*
X19848753Y-12753031D02*
X19858277Y-12724460D01*
X19858277Y-12724460D02*
X19867801Y-12676841D01*
X19867801Y-12676841D02*
X19867801Y-12638746D01*
X19867801Y-12638746D02*
X19858277Y-12591127D01*
X19858277Y-12591127D02*
X19848753Y-12562555D01*
X19848753Y-12562555D02*
X19839230Y-12543508D01*
X19839230Y-12543508D02*
X19820182Y-12514936D01*
X19820182Y-12514936D02*
X19810658Y-12505412D01*
X20172563Y-12810174D02*
X20163039Y-12800650D01*
X20163039Y-12800650D02*
X20143992Y-12772079D01*
X20143992Y-12772079D02*
X20134468Y-12753031D01*
X20134468Y-12753031D02*
X20124944Y-12724460D01*
X20124944Y-12724460D02*
X20115420Y-12676841D01*
X20115420Y-12676841D02*
X20115420Y-12638746D01*
X20115420Y-12638746D02*
X20124944Y-12591127D01*
X20124944Y-12591127D02*
X20134468Y-12562555D01*
X20134468Y-12562555D02*
X20143992Y-12543508D01*
X20143992Y-12543508D02*
X20163039Y-12514936D01*
X20163039Y-12514936D02*
X20172563Y-12505412D01*
X20248753Y-12600650D02*
X20248753Y-12733984D01*
X20248753Y-12619698D02*
X20258277Y-12610174D01*
X20258277Y-12610174D02*
X20277325Y-12600650D01*
X20277325Y-12600650D02*
X20305896Y-12600650D01*
X20305896Y-12600650D02*
X20324944Y-12610174D01*
X20324944Y-12610174D02*
X20334468Y-12629222D01*
X20334468Y-12629222D02*
X20334468Y-12733984D01*
X20458277Y-12733984D02*
X20439230Y-12724460D01*
X20439230Y-12724460D02*
X20429706Y-12714936D01*
X20429706Y-12714936D02*
X20420182Y-12695888D01*
X20420182Y-12695888D02*
X20420182Y-12638746D01*
X20420182Y-12638746D02*
X20429706Y-12619698D01*
X20429706Y-12619698D02*
X20439230Y-12610174D01*
X20439230Y-12610174D02*
X20458277Y-12600650D01*
X20458277Y-12600650D02*
X20486849Y-12600650D01*
X20486849Y-12600650D02*
X20505896Y-12610174D01*
X20505896Y-12610174D02*
X20515420Y-12619698D01*
X20515420Y-12619698D02*
X20524944Y-12638746D01*
X20524944Y-12638746D02*
X20524944Y-12695888D01*
X20524944Y-12695888D02*
X20515420Y-12714936D01*
X20515420Y-12714936D02*
X20505896Y-12724460D01*
X20505896Y-12724460D02*
X20486849Y-12733984D01*
X20486849Y-12733984D02*
X20458277Y-12733984D01*
X20582087Y-12600650D02*
X20658277Y-12600650D01*
X20610658Y-12533984D02*
X20610658Y-12705412D01*
X20610658Y-12705412D02*
X20620182Y-12724460D01*
X20620182Y-12724460D02*
X20639230Y-12733984D01*
X20639230Y-12733984D02*
X20658277Y-12733984D01*
X20877325Y-12600650D02*
X20877325Y-12800650D01*
X20877325Y-12610174D02*
X20896373Y-12600650D01*
X20896373Y-12600650D02*
X20934468Y-12600650D01*
X20934468Y-12600650D02*
X20953515Y-12610174D01*
X20953515Y-12610174D02*
X20963039Y-12619698D01*
X20963039Y-12619698D02*
X20972563Y-12638746D01*
X20972563Y-12638746D02*
X20972563Y-12695888D01*
X20972563Y-12695888D02*
X20963039Y-12714936D01*
X20963039Y-12714936D02*
X20953515Y-12724460D01*
X20953515Y-12724460D02*
X20934468Y-12733984D01*
X20934468Y-12733984D02*
X20896373Y-12733984D01*
X20896373Y-12733984D02*
X20877325Y-12724460D01*
X21086849Y-12733984D02*
X21067801Y-12724460D01*
X21067801Y-12724460D02*
X21058277Y-12705412D01*
X21058277Y-12705412D02*
X21058277Y-12533984D01*
X21248754Y-12733984D02*
X21248754Y-12629222D01*
X21248754Y-12629222D02*
X21239230Y-12610174D01*
X21239230Y-12610174D02*
X21220182Y-12600650D01*
X21220182Y-12600650D02*
X21182087Y-12600650D01*
X21182087Y-12600650D02*
X21163039Y-12610174D01*
X21248754Y-12724460D02*
X21229706Y-12733984D01*
X21229706Y-12733984D02*
X21182087Y-12733984D01*
X21182087Y-12733984D02*
X21163039Y-12724460D01*
X21163039Y-12724460D02*
X21153515Y-12705412D01*
X21153515Y-12705412D02*
X21153515Y-12686365D01*
X21153515Y-12686365D02*
X21163039Y-12667317D01*
X21163039Y-12667317D02*
X21182087Y-12657793D01*
X21182087Y-12657793D02*
X21229706Y-12657793D01*
X21229706Y-12657793D02*
X21248754Y-12648269D01*
X21315420Y-12600650D02*
X21391611Y-12600650D01*
X21343992Y-12533984D02*
X21343992Y-12705412D01*
X21343992Y-12705412D02*
X21353515Y-12724460D01*
X21353515Y-12724460D02*
X21372563Y-12733984D01*
X21372563Y-12733984D02*
X21391611Y-12733984D01*
X21534468Y-12724460D02*
X21515420Y-12733984D01*
X21515420Y-12733984D02*
X21477325Y-12733984D01*
X21477325Y-12733984D02*
X21458277Y-12724460D01*
X21458277Y-12724460D02*
X21448754Y-12705412D01*
X21448754Y-12705412D02*
X21448754Y-12629222D01*
X21448754Y-12629222D02*
X21458277Y-12610174D01*
X21458277Y-12610174D02*
X21477325Y-12600650D01*
X21477325Y-12600650D02*
X21515420Y-12600650D01*
X21515420Y-12600650D02*
X21534468Y-12610174D01*
X21534468Y-12610174D02*
X21543992Y-12629222D01*
X21543992Y-12629222D02*
X21543992Y-12648269D01*
X21543992Y-12648269D02*
X21448754Y-12667317D01*
X21715420Y-12733984D02*
X21715420Y-12533984D01*
X21715420Y-12724460D02*
X21696373Y-12733984D01*
X21696373Y-12733984D02*
X21658277Y-12733984D01*
X21658277Y-12733984D02*
X21639230Y-12724460D01*
X21639230Y-12724460D02*
X21629706Y-12714936D01*
X21629706Y-12714936D02*
X21620182Y-12695888D01*
X21620182Y-12695888D02*
X21620182Y-12638746D01*
X21620182Y-12638746D02*
X21629706Y-12619698D01*
X21629706Y-12619698D02*
X21639230Y-12610174D01*
X21639230Y-12610174D02*
X21658277Y-12600650D01*
X21658277Y-12600650D02*
X21696373Y-12600650D01*
X21696373Y-12600650D02*
X21715420Y-12610174D01*
X21791611Y-12810174D02*
X21801135Y-12800650D01*
X21801135Y-12800650D02*
X21820182Y-12772079D01*
X21820182Y-12772079D02*
X21829706Y-12753031D01*
X21829706Y-12753031D02*
X21839230Y-12724460D01*
X21839230Y-12724460D02*
X21848754Y-12676841D01*
X21848754Y-12676841D02*
X21848754Y-12638746D01*
X21848754Y-12638746D02*
X21839230Y-12591127D01*
X21839230Y-12591127D02*
X21829706Y-12562555D01*
X21829706Y-12562555D02*
X21820182Y-12543508D01*
X21820182Y-12543508D02*
X21801135Y-12514936D01*
X21801135Y-12514936D02*
X21791611Y-12505412D01*
D13*
X15197500Y-12906500D02*
G75*
G02*
X15037500Y-12906500I-80000J0D01*
G01*
X15037500Y-12906500D02*
G75*
G02*
X15197500Y-12906500I80000J0D01*
G01*
D11*
X15563039Y-12997984D02*
X15448753Y-12997984D01*
X15505896Y-12997984D02*
X15505896Y-12797984D01*
X15505896Y-12797984D02*
X15486848Y-12826555D01*
X15486848Y-12826555D02*
X15467801Y-12845603D01*
X15467801Y-12845603D02*
X15448753Y-12855127D01*
X15648753Y-12978936D02*
X15658277Y-12988460D01*
X15658277Y-12988460D02*
X15648753Y-12997984D01*
X15648753Y-12997984D02*
X15639229Y-12988460D01*
X15639229Y-12988460D02*
X15648753Y-12978936D01*
X15648753Y-12978936D02*
X15648753Y-12997984D01*
X15829705Y-12797984D02*
X15791610Y-12797984D01*
X15791610Y-12797984D02*
X15772562Y-12807508D01*
X15772562Y-12807508D02*
X15763039Y-12817031D01*
X15763039Y-12817031D02*
X15743991Y-12845603D01*
X15743991Y-12845603D02*
X15734467Y-12883698D01*
X15734467Y-12883698D02*
X15734467Y-12959888D01*
X15734467Y-12959888D02*
X15743991Y-12978936D01*
X15743991Y-12978936D02*
X15753515Y-12988460D01*
X15753515Y-12988460D02*
X15772562Y-12997984D01*
X15772562Y-12997984D02*
X15810658Y-12997984D01*
X15810658Y-12997984D02*
X15829705Y-12988460D01*
X15829705Y-12988460D02*
X15839229Y-12978936D01*
X15839229Y-12978936D02*
X15848753Y-12959888D01*
X15848753Y-12959888D02*
X15848753Y-12912269D01*
X15848753Y-12912269D02*
X15839229Y-12893222D01*
X15839229Y-12893222D02*
X15829705Y-12883698D01*
X15829705Y-12883698D02*
X15810658Y-12874174D01*
X15810658Y-12874174D02*
X15772562Y-12874174D01*
X15772562Y-12874174D02*
X15753515Y-12883698D01*
X15753515Y-12883698D02*
X15743991Y-12893222D01*
X15743991Y-12893222D02*
X15734467Y-12912269D01*
X15972562Y-12797984D02*
X15991610Y-12797984D01*
X15991610Y-12797984D02*
X16010658Y-12807508D01*
X16010658Y-12807508D02*
X16020182Y-12817031D01*
X16020182Y-12817031D02*
X16029705Y-12836079D01*
X16029705Y-12836079D02*
X16039229Y-12874174D01*
X16039229Y-12874174D02*
X16039229Y-12921793D01*
X16039229Y-12921793D02*
X16029705Y-12959888D01*
X16029705Y-12959888D02*
X16020182Y-12978936D01*
X16020182Y-12978936D02*
X16010658Y-12988460D01*
X16010658Y-12988460D02*
X15991610Y-12997984D01*
X15991610Y-12997984D02*
X15972562Y-12997984D01*
X15972562Y-12997984D02*
X15953515Y-12988460D01*
X15953515Y-12988460D02*
X15943991Y-12978936D01*
X15943991Y-12978936D02*
X15934467Y-12959888D01*
X15934467Y-12959888D02*
X15924943Y-12921793D01*
X15924943Y-12921793D02*
X15924943Y-12874174D01*
X15924943Y-12874174D02*
X15934467Y-12836079D01*
X15934467Y-12836079D02*
X15943991Y-12817031D01*
X15943991Y-12817031D02*
X15953515Y-12807508D01*
X15953515Y-12807508D02*
X15972562Y-12797984D01*
X16163039Y-12797984D02*
X16182086Y-12797984D01*
X16182086Y-12797984D02*
X16201134Y-12807508D01*
X16201134Y-12807508D02*
X16210658Y-12817031D01*
X16210658Y-12817031D02*
X16220182Y-12836079D01*
X16220182Y-12836079D02*
X16229705Y-12874174D01*
X16229705Y-12874174D02*
X16229705Y-12921793D01*
X16229705Y-12921793D02*
X16220182Y-12959888D01*
X16220182Y-12959888D02*
X16210658Y-12978936D01*
X16210658Y-12978936D02*
X16201134Y-12988460D01*
X16201134Y-12988460D02*
X16182086Y-12997984D01*
X16182086Y-12997984D02*
X16163039Y-12997984D01*
X16163039Y-12997984D02*
X16143991Y-12988460D01*
X16143991Y-12988460D02*
X16134467Y-12978936D01*
X16134467Y-12978936D02*
X16124943Y-12959888D01*
X16124943Y-12959888D02*
X16115420Y-12921793D01*
X16115420Y-12921793D02*
X16115420Y-12874174D01*
X16115420Y-12874174D02*
X16124943Y-12836079D01*
X16124943Y-12836079D02*
X16134467Y-12817031D01*
X16134467Y-12817031D02*
X16143991Y-12807508D01*
X16143991Y-12807508D02*
X16163039Y-12797984D01*
X16315420Y-12997984D02*
X16315420Y-12864650D01*
X16315420Y-12883698D02*
X16324943Y-12874174D01*
X16324943Y-12874174D02*
X16343991Y-12864650D01*
X16343991Y-12864650D02*
X16372563Y-12864650D01*
X16372563Y-12864650D02*
X16391610Y-12874174D01*
X16391610Y-12874174D02*
X16401134Y-12893222D01*
X16401134Y-12893222D02*
X16401134Y-12997984D01*
X16401134Y-12893222D02*
X16410658Y-12874174D01*
X16410658Y-12874174D02*
X16429705Y-12864650D01*
X16429705Y-12864650D02*
X16458277Y-12864650D01*
X16458277Y-12864650D02*
X16477324Y-12874174D01*
X16477324Y-12874174D02*
X16486848Y-12893222D01*
X16486848Y-12893222D02*
X16486848Y-12997984D01*
X16582086Y-12997984D02*
X16582086Y-12864650D01*
X16582086Y-12883698D02*
X16591610Y-12874174D01*
X16591610Y-12874174D02*
X16610658Y-12864650D01*
X16610658Y-12864650D02*
X16639229Y-12864650D01*
X16639229Y-12864650D02*
X16658277Y-12874174D01*
X16658277Y-12874174D02*
X16667801Y-12893222D01*
X16667801Y-12893222D02*
X16667801Y-12997984D01*
X16667801Y-12893222D02*
X16677324Y-12874174D01*
X16677324Y-12874174D02*
X16696372Y-12864650D01*
X16696372Y-12864650D02*
X16724943Y-12864650D01*
X16724943Y-12864650D02*
X16743991Y-12874174D01*
X16743991Y-12874174D02*
X16753515Y-12893222D01*
X16753515Y-12893222D02*
X16753515Y-12997984D01*
X17143991Y-12788460D02*
X16972563Y-13045603D01*
X17401134Y-12797984D02*
X17420182Y-12797984D01*
X17420182Y-12797984D02*
X17439229Y-12807508D01*
X17439229Y-12807508D02*
X17448753Y-12817031D01*
X17448753Y-12817031D02*
X17458277Y-12836079D01*
X17458277Y-12836079D02*
X17467801Y-12874174D01*
X17467801Y-12874174D02*
X17467801Y-12921793D01*
X17467801Y-12921793D02*
X17458277Y-12959888D01*
X17458277Y-12959888D02*
X17448753Y-12978936D01*
X17448753Y-12978936D02*
X17439229Y-12988460D01*
X17439229Y-12988460D02*
X17420182Y-12997984D01*
X17420182Y-12997984D02*
X17401134Y-12997984D01*
X17401134Y-12997984D02*
X17382087Y-12988460D01*
X17382087Y-12988460D02*
X17372563Y-12978936D01*
X17372563Y-12978936D02*
X17363039Y-12959888D01*
X17363039Y-12959888D02*
X17353515Y-12921793D01*
X17353515Y-12921793D02*
X17353515Y-12874174D01*
X17353515Y-12874174D02*
X17363039Y-12836079D01*
X17363039Y-12836079D02*
X17372563Y-12817031D01*
X17372563Y-12817031D02*
X17382087Y-12807508D01*
X17382087Y-12807508D02*
X17401134Y-12797984D01*
X17553515Y-12978936D02*
X17563039Y-12988460D01*
X17563039Y-12988460D02*
X17553515Y-12997984D01*
X17553515Y-12997984D02*
X17543991Y-12988460D01*
X17543991Y-12988460D02*
X17553515Y-12978936D01*
X17553515Y-12978936D02*
X17553515Y-12997984D01*
X17686848Y-12797984D02*
X17705896Y-12797984D01*
X17705896Y-12797984D02*
X17724944Y-12807508D01*
X17724944Y-12807508D02*
X17734468Y-12817031D01*
X17734468Y-12817031D02*
X17743991Y-12836079D01*
X17743991Y-12836079D02*
X17753515Y-12874174D01*
X17753515Y-12874174D02*
X17753515Y-12921793D01*
X17753515Y-12921793D02*
X17743991Y-12959888D01*
X17743991Y-12959888D02*
X17734468Y-12978936D01*
X17734468Y-12978936D02*
X17724944Y-12988460D01*
X17724944Y-12988460D02*
X17705896Y-12997984D01*
X17705896Y-12997984D02*
X17686848Y-12997984D01*
X17686848Y-12997984D02*
X17667801Y-12988460D01*
X17667801Y-12988460D02*
X17658277Y-12978936D01*
X17658277Y-12978936D02*
X17648753Y-12959888D01*
X17648753Y-12959888D02*
X17639229Y-12921793D01*
X17639229Y-12921793D02*
X17639229Y-12874174D01*
X17639229Y-12874174D02*
X17648753Y-12836079D01*
X17648753Y-12836079D02*
X17658277Y-12817031D01*
X17658277Y-12817031D02*
X17667801Y-12807508D01*
X17667801Y-12807508D02*
X17686848Y-12797984D01*
X17924944Y-12797984D02*
X17886848Y-12797984D01*
X17886848Y-12797984D02*
X17867801Y-12807508D01*
X17867801Y-12807508D02*
X17858277Y-12817031D01*
X17858277Y-12817031D02*
X17839229Y-12845603D01*
X17839229Y-12845603D02*
X17829706Y-12883698D01*
X17829706Y-12883698D02*
X17829706Y-12959888D01*
X17829706Y-12959888D02*
X17839229Y-12978936D01*
X17839229Y-12978936D02*
X17848753Y-12988460D01*
X17848753Y-12988460D02*
X17867801Y-12997984D01*
X17867801Y-12997984D02*
X17905896Y-12997984D01*
X17905896Y-12997984D02*
X17924944Y-12988460D01*
X17924944Y-12988460D02*
X17934468Y-12978936D01*
X17934468Y-12978936D02*
X17943991Y-12959888D01*
X17943991Y-12959888D02*
X17943991Y-12912269D01*
X17943991Y-12912269D02*
X17934468Y-12893222D01*
X17934468Y-12893222D02*
X17924944Y-12883698D01*
X17924944Y-12883698D02*
X17905896Y-12874174D01*
X17905896Y-12874174D02*
X17867801Y-12874174D01*
X17867801Y-12874174D02*
X17848753Y-12883698D01*
X17848753Y-12883698D02*
X17839229Y-12893222D01*
X17839229Y-12893222D02*
X17829706Y-12912269D01*
X18010658Y-12797984D02*
X18134468Y-12797984D01*
X18134468Y-12797984D02*
X18067801Y-12874174D01*
X18067801Y-12874174D02*
X18096372Y-12874174D01*
X18096372Y-12874174D02*
X18115420Y-12883698D01*
X18115420Y-12883698D02*
X18124944Y-12893222D01*
X18124944Y-12893222D02*
X18134468Y-12912269D01*
X18134468Y-12912269D02*
X18134468Y-12959888D01*
X18134468Y-12959888D02*
X18124944Y-12978936D01*
X18124944Y-12978936D02*
X18115420Y-12988460D01*
X18115420Y-12988460D02*
X18096372Y-12997984D01*
X18096372Y-12997984D02*
X18039229Y-12997984D01*
X18039229Y-12997984D02*
X18020182Y-12988460D01*
X18020182Y-12988460D02*
X18010658Y-12978936D01*
X18258277Y-12797984D02*
X18277325Y-12797984D01*
X18277325Y-12797984D02*
X18296372Y-12807508D01*
X18296372Y-12807508D02*
X18305896Y-12817031D01*
X18305896Y-12817031D02*
X18315420Y-12836079D01*
X18315420Y-12836079D02*
X18324944Y-12874174D01*
X18324944Y-12874174D02*
X18324944Y-12921793D01*
X18324944Y-12921793D02*
X18315420Y-12959888D01*
X18315420Y-12959888D02*
X18305896Y-12978936D01*
X18305896Y-12978936D02*
X18296372Y-12988460D01*
X18296372Y-12988460D02*
X18277325Y-12997984D01*
X18277325Y-12997984D02*
X18258277Y-12997984D01*
X18258277Y-12997984D02*
X18239229Y-12988460D01*
X18239229Y-12988460D02*
X18229706Y-12978936D01*
X18229706Y-12978936D02*
X18220182Y-12959888D01*
X18220182Y-12959888D02*
X18210658Y-12921793D01*
X18210658Y-12921793D02*
X18210658Y-12874174D01*
X18210658Y-12874174D02*
X18220182Y-12836079D01*
X18220182Y-12836079D02*
X18229706Y-12817031D01*
X18229706Y-12817031D02*
X18239229Y-12807508D01*
X18239229Y-12807508D02*
X18258277Y-12797984D01*
X18401134Y-12797984D02*
X18401134Y-12836079D01*
X18477325Y-12797984D02*
X18477325Y-12836079D01*
X18772563Y-13074174D02*
X18763039Y-13064650D01*
X18763039Y-13064650D02*
X18743991Y-13036079D01*
X18743991Y-13036079D02*
X18734468Y-13017031D01*
X18734468Y-13017031D02*
X18724944Y-12988460D01*
X18724944Y-12988460D02*
X18715420Y-12940841D01*
X18715420Y-12940841D02*
X18715420Y-12902746D01*
X18715420Y-12902746D02*
X18724944Y-12855127D01*
X18724944Y-12855127D02*
X18734468Y-12826555D01*
X18734468Y-12826555D02*
X18743991Y-12807508D01*
X18743991Y-12807508D02*
X18763039Y-12778936D01*
X18763039Y-12778936D02*
X18772563Y-12769412D01*
X18839230Y-12817031D02*
X18848753Y-12807508D01*
X18848753Y-12807508D02*
X18867801Y-12797984D01*
X18867801Y-12797984D02*
X18915420Y-12797984D01*
X18915420Y-12797984D02*
X18934468Y-12807508D01*
X18934468Y-12807508D02*
X18943991Y-12817031D01*
X18943991Y-12817031D02*
X18953515Y-12836079D01*
X18953515Y-12836079D02*
X18953515Y-12855127D01*
X18953515Y-12855127D02*
X18943991Y-12883698D01*
X18943991Y-12883698D02*
X18829706Y-12997984D01*
X18829706Y-12997984D02*
X18953515Y-12997984D01*
X19191611Y-12997984D02*
X19191611Y-12797984D01*
X19277325Y-12997984D02*
X19277325Y-12893222D01*
X19277325Y-12893222D02*
X19267801Y-12874174D01*
X19267801Y-12874174D02*
X19248753Y-12864650D01*
X19248753Y-12864650D02*
X19220182Y-12864650D01*
X19220182Y-12864650D02*
X19201134Y-12874174D01*
X19201134Y-12874174D02*
X19191611Y-12883698D01*
X19401134Y-12997984D02*
X19382087Y-12988460D01*
X19382087Y-12988460D02*
X19372563Y-12978936D01*
X19372563Y-12978936D02*
X19363039Y-12959888D01*
X19363039Y-12959888D02*
X19363039Y-12902746D01*
X19363039Y-12902746D02*
X19372563Y-12883698D01*
X19372563Y-12883698D02*
X19382087Y-12874174D01*
X19382087Y-12874174D02*
X19401134Y-12864650D01*
X19401134Y-12864650D02*
X19429706Y-12864650D01*
X19429706Y-12864650D02*
X19448753Y-12874174D01*
X19448753Y-12874174D02*
X19458277Y-12883698D01*
X19458277Y-12883698D02*
X19467801Y-12902746D01*
X19467801Y-12902746D02*
X19467801Y-12959888D01*
X19467801Y-12959888D02*
X19458277Y-12978936D01*
X19458277Y-12978936D02*
X19448753Y-12988460D01*
X19448753Y-12988460D02*
X19429706Y-12997984D01*
X19429706Y-12997984D02*
X19401134Y-12997984D01*
X19582087Y-12997984D02*
X19563039Y-12988460D01*
X19563039Y-12988460D02*
X19553515Y-12969412D01*
X19553515Y-12969412D02*
X19553515Y-12797984D01*
X19734468Y-12988460D02*
X19715420Y-12997984D01*
X19715420Y-12997984D02*
X19677325Y-12997984D01*
X19677325Y-12997984D02*
X19658277Y-12988460D01*
X19658277Y-12988460D02*
X19648753Y-12969412D01*
X19648753Y-12969412D02*
X19648753Y-12893222D01*
X19648753Y-12893222D02*
X19658277Y-12874174D01*
X19658277Y-12874174D02*
X19677325Y-12864650D01*
X19677325Y-12864650D02*
X19715420Y-12864650D01*
X19715420Y-12864650D02*
X19734468Y-12874174D01*
X19734468Y-12874174D02*
X19743992Y-12893222D01*
X19743992Y-12893222D02*
X19743992Y-12912269D01*
X19743992Y-12912269D02*
X19648753Y-12931317D01*
X19820182Y-12988460D02*
X19839230Y-12997984D01*
X19839230Y-12997984D02*
X19877325Y-12997984D01*
X19877325Y-12997984D02*
X19896373Y-12988460D01*
X19896373Y-12988460D02*
X19905896Y-12969412D01*
X19905896Y-12969412D02*
X19905896Y-12959888D01*
X19905896Y-12959888D02*
X19896373Y-12940841D01*
X19896373Y-12940841D02*
X19877325Y-12931317D01*
X19877325Y-12931317D02*
X19848753Y-12931317D01*
X19848753Y-12931317D02*
X19829706Y-12921793D01*
X19829706Y-12921793D02*
X19820182Y-12902746D01*
X19820182Y-12902746D02*
X19820182Y-12893222D01*
X19820182Y-12893222D02*
X19829706Y-12874174D01*
X19829706Y-12874174D02*
X19848753Y-12864650D01*
X19848753Y-12864650D02*
X19877325Y-12864650D01*
X19877325Y-12864650D02*
X19896373Y-12874174D01*
X19972563Y-13074174D02*
X19982087Y-13064650D01*
X19982087Y-13064650D02*
X20001134Y-13036079D01*
X20001134Y-13036079D02*
X20010658Y-13017031D01*
X20010658Y-13017031D02*
X20020182Y-12988460D01*
X20020182Y-12988460D02*
X20029706Y-12940841D01*
X20029706Y-12940841D02*
X20029706Y-12902746D01*
X20029706Y-12902746D02*
X20020182Y-12855127D01*
X20020182Y-12855127D02*
X20010658Y-12826555D01*
X20010658Y-12826555D02*
X20001134Y-12807508D01*
X20001134Y-12807508D02*
X19982087Y-12778936D01*
X19982087Y-12778936D02*
X19972563Y-12769412D01*
X20334468Y-13074174D02*
X20324944Y-13064650D01*
X20324944Y-13064650D02*
X20305896Y-13036079D01*
X20305896Y-13036079D02*
X20296373Y-13017031D01*
X20296373Y-13017031D02*
X20286849Y-12988460D01*
X20286849Y-12988460D02*
X20277325Y-12940841D01*
X20277325Y-12940841D02*
X20277325Y-12902746D01*
X20277325Y-12902746D02*
X20286849Y-12855127D01*
X20286849Y-12855127D02*
X20296373Y-12826555D01*
X20296373Y-12826555D02*
X20305896Y-12807508D01*
X20305896Y-12807508D02*
X20324944Y-12778936D01*
X20324944Y-12778936D02*
X20334468Y-12769412D01*
X20410658Y-12864650D02*
X20410658Y-12997984D01*
X20410658Y-12883698D02*
X20420182Y-12874174D01*
X20420182Y-12874174D02*
X20439230Y-12864650D01*
X20439230Y-12864650D02*
X20467801Y-12864650D01*
X20467801Y-12864650D02*
X20486849Y-12874174D01*
X20486849Y-12874174D02*
X20496373Y-12893222D01*
X20496373Y-12893222D02*
X20496373Y-12997984D01*
X20620182Y-12997984D02*
X20601134Y-12988460D01*
X20601134Y-12988460D02*
X20591611Y-12978936D01*
X20591611Y-12978936D02*
X20582087Y-12959888D01*
X20582087Y-12959888D02*
X20582087Y-12902746D01*
X20582087Y-12902746D02*
X20591611Y-12883698D01*
X20591611Y-12883698D02*
X20601134Y-12874174D01*
X20601134Y-12874174D02*
X20620182Y-12864650D01*
X20620182Y-12864650D02*
X20648754Y-12864650D01*
X20648754Y-12864650D02*
X20667801Y-12874174D01*
X20667801Y-12874174D02*
X20677325Y-12883698D01*
X20677325Y-12883698D02*
X20686849Y-12902746D01*
X20686849Y-12902746D02*
X20686849Y-12959888D01*
X20686849Y-12959888D02*
X20677325Y-12978936D01*
X20677325Y-12978936D02*
X20667801Y-12988460D01*
X20667801Y-12988460D02*
X20648754Y-12997984D01*
X20648754Y-12997984D02*
X20620182Y-12997984D01*
X20743992Y-12864650D02*
X20820182Y-12864650D01*
X20772563Y-12797984D02*
X20772563Y-12969412D01*
X20772563Y-12969412D02*
X20782087Y-12988460D01*
X20782087Y-12988460D02*
X20801134Y-12997984D01*
X20801134Y-12997984D02*
X20820182Y-12997984D01*
X21039230Y-12864650D02*
X21039230Y-13064650D01*
X21039230Y-12874174D02*
X21058277Y-12864650D01*
X21058277Y-12864650D02*
X21096373Y-12864650D01*
X21096373Y-12864650D02*
X21115420Y-12874174D01*
X21115420Y-12874174D02*
X21124944Y-12883698D01*
X21124944Y-12883698D02*
X21134468Y-12902746D01*
X21134468Y-12902746D02*
X21134468Y-12959888D01*
X21134468Y-12959888D02*
X21124944Y-12978936D01*
X21124944Y-12978936D02*
X21115420Y-12988460D01*
X21115420Y-12988460D02*
X21096373Y-12997984D01*
X21096373Y-12997984D02*
X21058277Y-12997984D01*
X21058277Y-12997984D02*
X21039230Y-12988460D01*
X21248754Y-12997984D02*
X21229706Y-12988460D01*
X21229706Y-12988460D02*
X21220182Y-12969412D01*
X21220182Y-12969412D02*
X21220182Y-12797984D01*
X21410658Y-12997984D02*
X21410658Y-12893222D01*
X21410658Y-12893222D02*
X21401135Y-12874174D01*
X21401135Y-12874174D02*
X21382087Y-12864650D01*
X21382087Y-12864650D02*
X21343992Y-12864650D01*
X21343992Y-12864650D02*
X21324944Y-12874174D01*
X21410658Y-12988460D02*
X21391611Y-12997984D01*
X21391611Y-12997984D02*
X21343992Y-12997984D01*
X21343992Y-12997984D02*
X21324944Y-12988460D01*
X21324944Y-12988460D02*
X21315420Y-12969412D01*
X21315420Y-12969412D02*
X21315420Y-12950365D01*
X21315420Y-12950365D02*
X21324944Y-12931317D01*
X21324944Y-12931317D02*
X21343992Y-12921793D01*
X21343992Y-12921793D02*
X21391611Y-12921793D01*
X21391611Y-12921793D02*
X21410658Y-12912269D01*
X21477325Y-12864650D02*
X21553515Y-12864650D01*
X21505896Y-12797984D02*
X21505896Y-12969412D01*
X21505896Y-12969412D02*
X21515420Y-12988460D01*
X21515420Y-12988460D02*
X21534468Y-12997984D01*
X21534468Y-12997984D02*
X21553515Y-12997984D01*
X21696373Y-12988460D02*
X21677325Y-12997984D01*
X21677325Y-12997984D02*
X21639230Y-12997984D01*
X21639230Y-12997984D02*
X21620182Y-12988460D01*
X21620182Y-12988460D02*
X21610658Y-12969412D01*
X21610658Y-12969412D02*
X21610658Y-12893222D01*
X21610658Y-12893222D02*
X21620182Y-12874174D01*
X21620182Y-12874174D02*
X21639230Y-12864650D01*
X21639230Y-12864650D02*
X21677325Y-12864650D01*
X21677325Y-12864650D02*
X21696373Y-12874174D01*
X21696373Y-12874174D02*
X21705896Y-12893222D01*
X21705896Y-12893222D02*
X21705896Y-12912269D01*
X21705896Y-12912269D02*
X21610658Y-12931317D01*
X21877325Y-12997984D02*
X21877325Y-12797984D01*
X21877325Y-12988460D02*
X21858277Y-12997984D01*
X21858277Y-12997984D02*
X21820182Y-12997984D01*
X21820182Y-12997984D02*
X21801135Y-12988460D01*
X21801135Y-12988460D02*
X21791611Y-12978936D01*
X21791611Y-12978936D02*
X21782087Y-12959888D01*
X21782087Y-12959888D02*
X21782087Y-12902746D01*
X21782087Y-12902746D02*
X21791611Y-12883698D01*
X21791611Y-12883698D02*
X21801135Y-12874174D01*
X21801135Y-12874174D02*
X21820182Y-12864650D01*
X21820182Y-12864650D02*
X21858277Y-12864650D01*
X21858277Y-12864650D02*
X21877325Y-12874174D01*
X21953516Y-13074174D02*
X21963039Y-13064650D01*
X21963039Y-13064650D02*
X21982087Y-13036079D01*
X21982087Y-13036079D02*
X21991611Y-13017031D01*
X21991611Y-13017031D02*
X22001135Y-12988460D01*
X22001135Y-12988460D02*
X22010658Y-12940841D01*
X22010658Y-12940841D02*
X22010658Y-12902746D01*
X22010658Y-12902746D02*
X22001135Y-12855127D01*
X22001135Y-12855127D02*
X21991611Y-12826555D01*
X21991611Y-12826555D02*
X21982087Y-12807508D01*
X21982087Y-12807508D02*
X21963039Y-12778936D01*
X21963039Y-12778936D02*
X21953516Y-12769412D01*
M02*
