%TF.GenerationSoftware,KiCad,Pcbnew,9.0.0*%
%TF.CreationDate,2025-03-06T01:46:26+08:00*%
%TF.ProjectId,HighDRMic_EVB,48696768-4452-44d6-9963-5f4556422e6b,rev?*%
%TF.SameCoordinates,Original*%
%TF.FileFunction,Copper,L1,Top*%
%TF.FilePolarity,Positive*%
%FSLAX46Y46*%
G04 Gerber Fmt 4.6, Leading zero omitted, Abs format (unit mm)*
G04 Created by KiCad (PCBNEW 9.0.0) date 2025-03-06 01:46:26*
%MOMM*%
%LPD*%
G01*
G04 APERTURE LIST*
G04 Aperture macros list*
%AMRoundRect*
0 Rectangle with rounded corners*
0 $1 Rounding radius*
0 $2 $3 $4 $5 $6 $7 $8 $9 X,Y pos of 4 corners*
0 Add a 4 corners polygon primitive as box body*
4,1,4,$2,$3,$4,$5,$6,$7,$8,$9,$2,$3,0*
0 Add four circle primitives for the rounded corners*
1,1,$1+$1,$2,$3*
1,1,$1+$1,$4,$5*
1,1,$1+$1,$6,$7*
1,1,$1+$1,$8,$9*
0 Add four rect primitives between the rounded corners*
20,1,$1+$1,$2,$3,$4,$5,0*
20,1,$1+$1,$4,$5,$6,$7,0*
20,1,$1+$1,$6,$7,$8,$9,0*
20,1,$1+$1,$8,$9,$2,$3,0*%
%AMFreePoly0*
4,1,64,0.301896,1.805218,0.490253,1.727198,0.659769,1.613931,0.803931,1.469769,0.917198,1.300253,0.995218,1.111896,1.034992,0.911938,1.034992,0.708062,0.995218,0.508104,0.917198,0.319747,0.803931,0.150231,0.659769,0.006069,0.490253,-0.107198,0.301896,-0.185218,0.101938,-0.224992,0.046293,-0.224992,0.044871,-0.225581,-0.044871,-0.225581,-0.046293,-0.224992,-0.101938,-0.224992,
-0.301896,-0.185218,-0.490253,-0.107198,-0.659769,0.006069,-0.803931,0.150231,-0.917198,0.319747,-0.995218,0.508104,-1.034992,0.708062,-1.034992,0.886358,-0.580000,0.886358,-0.580000,0.733642,-0.540474,0.586128,-0.464116,0.453872,-0.356128,0.345884,-0.223872,0.269526,-0.076358,0.230000,0.076358,0.230000,0.223872,0.269526,0.356128,0.345884,0.464116,0.453872,0.540474,0.586128,
0.580000,0.733642,0.580000,0.886358,0.540474,1.033872,0.464116,1.166128,0.356128,1.274116,0.223872,1.350474,0.076358,1.390000,-0.076358,1.390000,-0.223872,1.350474,-0.356128,1.274116,-0.464116,1.166128,-0.540474,1.033872,-0.580000,0.886358,-1.034992,0.886358,-1.034992,0.911938,-0.995218,1.111896,-0.917198,1.300253,-0.803931,1.469769,-0.659769,1.613931,-0.490253,1.727198,
-0.301896,1.805218,-0.101938,1.844992,0.101938,1.844992,0.301896,1.805218,0.301896,1.805218,$1*%
G04 Aperture macros list end*
%TA.AperFunction,ComponentPad*%
%ADD10R,1.700000X1.700000*%
%TD*%
%TA.AperFunction,ComponentPad*%
%ADD11O,1.700000X1.700000*%
%TD*%
%TA.AperFunction,ComponentPad*%
%ADD12C,3.400000*%
%TD*%
%TA.AperFunction,ComponentPad*%
%ADD13C,2.900000*%
%TD*%
%TA.AperFunction,SMDPad,CuDef*%
%ADD14RoundRect,0.112500X0.112500X-0.262500X0.112500X0.262500X-0.112500X0.262500X-0.112500X-0.262500X0*%
%TD*%
%TA.AperFunction,SMDPad,CuDef*%
%ADD15FreePoly0,90.000000*%
%TD*%
%TA.AperFunction,SMDPad,CuDef*%
%ADD16RoundRect,0.100000X0.217500X0.100000X-0.217500X0.100000X-0.217500X-0.100000X0.217500X-0.100000X0*%
%TD*%
%TA.AperFunction,SMDPad,CuDef*%
%ADD17RoundRect,0.100000X-0.217500X-0.100000X0.217500X-0.100000X0.217500X0.100000X-0.217500X0.100000X0*%
%TD*%
%TA.AperFunction,ComponentPad*%
%ADD18C,1.500000*%
%TD*%
%TA.AperFunction,SMDPad,CuDef*%
%ADD19RoundRect,0.100000X0.100000X-0.217500X0.100000X0.217500X-0.100000X0.217500X-0.100000X-0.217500X0*%
%TD*%
%TA.AperFunction,Conductor*%
%ADD20C,0.200000*%
%TD*%
%TA.AperFunction,Conductor*%
%ADD21C,0.400000*%
%TD*%
%TA.AperFunction,Conductor*%
%ADD22C,1.000000*%
%TD*%
G04 APERTURE END LIST*
D10*
%TO.P,J9,1,Pin_1*%
%TO.N,Net-(J9-Pin_1)*%
X172940000Y-113800000D03*
D11*
%TO.P,J9,2,Pin_2*%
%TO.N,GND*%
X170400000Y-113800000D03*
%TD*%
D12*
%TO.P,XLR1,1*%
%TO.N,Net-(J8-Pin_1)*%
X177000000Y-103810000D03*
%TO.P,XLR1,2*%
%TO.N,Net-(J6-Pin_1)*%
X177000000Y-96190000D03*
D13*
%TO.P,XLR1,3*%
%TO.N,Net-(J7-Pin_1)*%
X177000000Y-100000000D03*
%TO.P,XLR1,G*%
%TO.N,Net-(J9-Pin_1)*%
X182080000Y-100000000D03*
%TD*%
D14*
%TO.P,MK1,1,OUT+*%
%TO.N,Net-(J2-Pin_2)*%
X158500000Y-100850000D03*
%TO.P,MK1,2,V_{DD}*%
%TO.N,Net-(J1-Pin_2)*%
X157800000Y-100850000D03*
%TO.P,MK1,3,OUT-*%
%TO.N,Net-(J3-Pin_2)*%
X158500000Y-99150000D03*
%TO.P,MK1,4,GND*%
%TO.N,GND*%
X157800000Y-99150000D03*
D15*
%TO.P,MK1,5,GND*%
X157130000Y-100000000D03*
%TD*%
D10*
%TO.P,J7,1,Pin_1*%
%TO.N,Net-(J7-Pin_1)*%
X171400000Y-106400000D03*
D11*
%TO.P,J7,2,Pin_2*%
%TO.N,Net-(J2-Pin_2)*%
X168860000Y-106400000D03*
%TD*%
D16*
%TO.P,C1,1*%
%TO.N,GND*%
X166407500Y-109000000D03*
%TO.P,C1,2*%
%TO.N,Net-(J2-Pin_1)*%
X165592500Y-109000000D03*
%TD*%
D10*
%TO.P,J11,1,Pin_1*%
%TO.N,GND*%
X157800000Y-114200000D03*
D11*
%TO.P,J11,2,Pin_2*%
%TO.N,VDD*%
X157800000Y-111660000D03*
%TD*%
D17*
%TO.P,C2,1*%
%TO.N,Net-(J3-Pin_1)*%
X165592500Y-91000000D03*
%TO.P,C2,2*%
%TO.N,GND*%
X166407500Y-91000000D03*
%TD*%
D10*
%TO.P,J6,1,Pin_1*%
%TO.N,Net-(J6-Pin_1)*%
X171400000Y-93600000D03*
D11*
%TO.P,J6,2,Pin_2*%
%TO.N,Net-(J3-Pin_2)*%
X168860000Y-93600000D03*
%TD*%
D10*
%TO.P,J2,1,Pin_1*%
%TO.N,Net-(J2-Pin_1)*%
X162000000Y-110000000D03*
D11*
%TO.P,J2,2,Pin_2*%
%TO.N,Net-(J2-Pin_2)*%
X162000000Y-107460000D03*
%TD*%
D17*
%TO.P,R1,1*%
%TO.N,Net-(J2-Pin_2)*%
X169592500Y-103000000D03*
%TO.P,R1,2*%
%TO.N,Net-(J7-Pin_1)*%
X170407500Y-103000000D03*
%TD*%
D10*
%TO.P,J4,1,Pin_1*%
%TO.N,Net-(J2-Pin_2)*%
X162000000Y-103000000D03*
D11*
%TO.P,J4,2,Pin_2*%
%TO.N,Net-(J4-Pin_2)*%
X164540000Y-103000000D03*
%TD*%
D18*
%TO.P,TP1,1,1*%
%TO.N,GND*%
X157800000Y-94600000D03*
%TD*%
D10*
%TO.P,J10,1,Pin_1*%
%TO.N,GND*%
X164200000Y-113800000D03*
D11*
%TO.P,J10,2,Pin_2*%
X166740000Y-113800000D03*
%TD*%
D10*
%TO.P,J5,1,Pin_1*%
%TO.N,Net-(J3-Pin_2)*%
X162000000Y-97000000D03*
D11*
%TO.P,J5,2,Pin_2*%
%TO.N,Net-(J5-Pin_2)*%
X164540000Y-97000000D03*
%TD*%
D19*
%TO.P,C3,1*%
%TO.N,Net-(J4-Pin_2)*%
X166000000Y-100407500D03*
%TO.P,C3,2*%
%TO.N,Net-(J5-Pin_2)*%
X166000000Y-99592500D03*
%TD*%
D10*
%TO.P,J3,1,Pin_1*%
%TO.N,Net-(J3-Pin_1)*%
X162000000Y-90000000D03*
D11*
%TO.P,J3,2,Pin_2*%
%TO.N,Net-(J3-Pin_2)*%
X162000000Y-92540000D03*
%TD*%
D10*
%TO.P,J8,1,Pin_1*%
%TO.N,Net-(J8-Pin_1)*%
X171400000Y-100000000D03*
D11*
%TO.P,J8,2,Pin_2*%
%TO.N,GND*%
X168860000Y-100000000D03*
%TD*%
D10*
%TO.P,J1,1,Pin_1*%
%TO.N,VDD*%
X157800000Y-108000000D03*
D11*
%TO.P,J1,2,Pin_2*%
%TO.N,Net-(J1-Pin_2)*%
X157800000Y-105460000D03*
%TD*%
D17*
%TO.P,R2,1*%
%TO.N,Net-(J3-Pin_2)*%
X169592500Y-97000000D03*
%TO.P,R2,2*%
%TO.N,Net-(J6-Pin_1)*%
X170407500Y-97000000D03*
%TD*%
D20*
%TO.N,GND*%
X157800000Y-99150000D02*
X157800000Y-99330000D01*
D21*
X157800000Y-99150000D02*
X157800000Y-94600000D01*
D20*
X157800000Y-99330000D02*
X157130000Y-100000000D01*
D21*
%TO.N,Net-(J2-Pin_1)*%
X164592500Y-110000000D02*
X165592500Y-109000000D01*
X162000000Y-110000000D02*
X164592500Y-110000000D01*
%TO.N,Net-(J3-Pin_1)*%
X164592500Y-90000000D02*
X165592500Y-91000000D01*
X162000000Y-90000000D02*
X164592500Y-90000000D01*
%TO.N,Net-(J4-Pin_2)*%
X166000000Y-100407500D02*
X166000000Y-101540000D01*
X166000000Y-101540000D02*
X164540000Y-103000000D01*
%TO.N,Net-(J5-Pin_2)*%
X164540000Y-97000000D02*
X166000000Y-98460000D01*
X166000000Y-98460000D02*
X166000000Y-99592500D01*
%TO.N,Net-(J1-Pin_2)*%
X157800000Y-105460000D02*
X157800000Y-100850000D01*
D22*
%TO.N,VDD*%
X157800000Y-108000000D02*
X157800000Y-111660000D01*
D21*
%TO.N,Net-(J2-Pin_2)*%
X162000000Y-107460000D02*
X162000000Y-103000000D01*
X158500000Y-100850000D02*
X160650000Y-103000000D01*
X160650000Y-103000000D02*
X162000000Y-103000000D01*
X163060000Y-106400000D02*
X168860000Y-106400000D01*
X162000000Y-107460000D02*
X163060000Y-106400000D01*
X168860000Y-106400000D02*
X168860000Y-103732500D01*
X168860000Y-103732500D02*
X169592500Y-103000000D01*
%TO.N,Net-(J3-Pin_2)*%
X162000000Y-92540000D02*
X163060000Y-93600000D01*
X162000000Y-97000000D02*
X162000000Y-92540000D01*
X158500000Y-99150000D02*
X160650000Y-97000000D01*
X163060000Y-93600000D02*
X168860000Y-93600000D01*
X168860000Y-96267500D02*
X169592500Y-97000000D01*
X168860000Y-93600000D02*
X168860000Y-96267500D01*
X160650000Y-97000000D02*
X162000000Y-97000000D01*
%TO.N,Net-(J6-Pin_1)*%
X170407500Y-97000000D02*
X171400000Y-96007500D01*
D22*
X173990000Y-96190000D02*
X171400000Y-93600000D01*
D21*
X171400000Y-96007500D02*
X171400000Y-93600000D01*
D22*
X177000000Y-96190000D02*
X173990000Y-96190000D01*
%TO.N,Net-(J7-Pin_1)*%
X177000000Y-100000000D02*
X171400000Y-105600000D01*
D21*
X171400000Y-103992500D02*
X171400000Y-106400000D01*
D22*
X171400000Y-105600000D02*
X171400000Y-106400000D01*
D21*
X170407500Y-103000000D02*
X171400000Y-103992500D01*
%TD*%
%TA.AperFunction,Conductor*%
%TO.N,GND*%
G36*
X162838143Y-94271541D02*
G01*
X162842147Y-94270966D01*
X162846979Y-94272041D01*
X162849047Y-94272158D01*
X162855273Y-94273415D01*
X162855671Y-94273580D01*
X162882591Y-94278934D01*
X162966158Y-94295557D01*
X162991006Y-94300500D01*
X162991007Y-94300500D01*
X167636453Y-94300500D01*
X167703492Y-94320185D01*
X167736769Y-94351614D01*
X167740270Y-94356431D01*
X167829892Y-94479788D01*
X167980211Y-94630107D01*
X168002194Y-94646078D01*
X168108385Y-94723229D01*
X168151051Y-94778558D01*
X168159500Y-94823547D01*
X168159500Y-96198506D01*
X168159500Y-96336494D01*
X168159500Y-96336496D01*
X168159499Y-96336496D01*
X168186418Y-96471822D01*
X168186421Y-96471832D01*
X168239222Y-96599307D01*
X168315887Y-96714045D01*
X168315888Y-96714046D01*
X168749784Y-97147941D01*
X168783269Y-97209264D01*
X168785041Y-97219435D01*
X168789956Y-97256762D01*
X168850464Y-97402841D01*
X168946718Y-97528282D01*
X169072159Y-97624536D01*
X169218238Y-97685044D01*
X169335639Y-97700500D01*
X169849360Y-97700499D01*
X169849363Y-97700499D01*
X169966755Y-97685045D01*
X169966755Y-97685044D01*
X169966762Y-97685044D01*
X169966767Y-97685041D01*
X169967900Y-97684739D01*
X169969085Y-97684738D01*
X169974821Y-97683984D01*
X169974920Y-97684738D01*
X170025080Y-97684737D01*
X170025180Y-97683983D01*
X170030907Y-97684737D01*
X170032091Y-97684737D01*
X170033234Y-97685043D01*
X170033236Y-97685043D01*
X170033238Y-97685044D01*
X170150639Y-97700500D01*
X170338504Y-97700499D01*
X170338506Y-97700500D01*
X170476494Y-97700500D01*
X170476497Y-97700499D01*
X170664360Y-97700499D01*
X170664363Y-97700499D01*
X170781753Y-97685046D01*
X170781757Y-97685044D01*
X170781762Y-97685044D01*
X170927841Y-97624536D01*
X171053282Y-97528282D01*
X171149536Y-97402841D01*
X171210044Y-97256762D01*
X171214958Y-97219436D01*
X171243220Y-97155543D01*
X171250203Y-97147953D01*
X171944114Y-96454043D01*
X172020775Y-96339311D01*
X172022877Y-96334238D01*
X172073578Y-96211832D01*
X172073580Y-96211828D01*
X172095401Y-96102127D01*
X172100500Y-96076496D01*
X172100500Y-96014782D01*
X172120185Y-95947743D01*
X172172989Y-95901988D01*
X172242147Y-95892044D01*
X172305703Y-95921069D01*
X172312181Y-95927101D01*
X173209735Y-96824655D01*
X173209764Y-96824686D01*
X173352214Y-96967136D01*
X173352218Y-96967139D01*
X173516079Y-97076628D01*
X173516092Y-97076635D01*
X173644833Y-97129961D01*
X173687744Y-97147735D01*
X173698164Y-97152051D01*
X173794812Y-97171275D01*
X173827137Y-97177705D01*
X173891458Y-97190500D01*
X173891459Y-97190500D01*
X173891460Y-97190500D01*
X174088540Y-97190500D01*
X174965128Y-97190500D01*
X175032167Y-97210185D01*
X175072515Y-97252500D01*
X175166420Y-97415148D01*
X175166431Y-97415164D01*
X175342024Y-97644002D01*
X175342030Y-97644009D01*
X175545990Y-97847969D01*
X175545996Y-97847974D01*
X175774844Y-98023575D01*
X175774851Y-98023579D01*
X175962555Y-98131951D01*
X176010771Y-98182518D01*
X176023993Y-98251125D01*
X175998025Y-98315990D01*
X175962557Y-98346724D01*
X175914040Y-98374735D01*
X175914026Y-98374745D01*
X175711188Y-98530388D01*
X175711181Y-98530394D01*
X175530394Y-98711181D01*
X175530388Y-98711188D01*
X175374745Y-98914026D01*
X175374734Y-98914042D01*
X175246899Y-99135457D01*
X175246894Y-99135468D01*
X175149053Y-99371677D01*
X175149050Y-99371687D01*
X175087901Y-99599901D01*
X175082874Y-99618661D01*
X175049500Y-99872149D01*
X175049500Y-100127850D01*
X175082874Y-100381338D01*
X175082877Y-100381354D01*
X175089886Y-100407513D01*
X175088223Y-100477363D01*
X175057792Y-100527286D01*
X172079299Y-103505779D01*
X172017976Y-103539264D01*
X171948284Y-103534280D01*
X171903937Y-103505779D01*
X171250215Y-102852058D01*
X171216730Y-102790735D01*
X171214959Y-102780577D01*
X171210044Y-102743238D01*
X171149536Y-102597159D01*
X171053282Y-102471718D01*
X170927841Y-102375464D01*
X170814998Y-102328723D01*
X170781762Y-102314956D01*
X170781760Y-102314955D01*
X170664370Y-102299501D01*
X170664367Y-102299500D01*
X170664361Y-102299500D01*
X170476495Y-102299500D01*
X170476494Y-102299500D01*
X170338506Y-102299500D01*
X170338502Y-102299500D01*
X170150636Y-102299500D01*
X170033234Y-102314955D01*
X170032083Y-102315264D01*
X170030891Y-102315264D01*
X170025179Y-102316016D01*
X170025080Y-102315264D01*
X169974919Y-102315264D01*
X169974820Y-102316017D01*
X169969107Y-102315264D01*
X169967917Y-102315265D01*
X169966765Y-102314956D01*
X169849361Y-102299500D01*
X169335636Y-102299500D01*
X169218246Y-102314953D01*
X169218237Y-102314956D01*
X169072160Y-102375463D01*
X168946718Y-102471718D01*
X168850463Y-102597160D01*
X168789956Y-102743238D01*
X168785041Y-102780565D01*
X168756772Y-102844461D01*
X168749783Y-102852058D01*
X168315887Y-103285954D01*
X168239222Y-103400692D01*
X168186421Y-103528167D01*
X168186418Y-103528179D01*
X168160064Y-103660669D01*
X168160062Y-103660682D01*
X168159500Y-103663505D01*
X168159500Y-105176452D01*
X168139815Y-105243491D01*
X168108385Y-105276770D01*
X167980213Y-105369890D01*
X167829892Y-105520211D01*
X167763046Y-105612220D01*
X167736770Y-105648385D01*
X167681442Y-105691051D01*
X167636453Y-105699500D01*
X162991003Y-105699500D01*
X162882756Y-105721031D01*
X162882590Y-105721065D01*
X162882589Y-105721065D01*
X162855671Y-105726420D01*
X162855282Y-105726581D01*
X162849050Y-105727840D01*
X162819867Y-105725315D01*
X162790567Y-105725562D01*
X162785457Y-105722338D01*
X162779440Y-105721818D01*
X162756251Y-105703914D01*
X162731474Y-105688283D01*
X162728918Y-105682809D01*
X162724137Y-105679118D01*
X162714309Y-105651519D01*
X162701915Y-105624974D01*
X162701120Y-105614482D01*
X162700698Y-105613297D01*
X162700948Y-105612220D01*
X162700500Y-105606295D01*
X162700500Y-104474499D01*
X162720185Y-104407460D01*
X162772989Y-104361705D01*
X162824500Y-104350499D01*
X162897871Y-104350499D01*
X162897872Y-104350499D01*
X162957483Y-104344091D01*
X163092331Y-104293796D01*
X163207546Y-104207546D01*
X163293796Y-104092331D01*
X163342810Y-103960916D01*
X163384681Y-103904984D01*
X163450145Y-103880566D01*
X163518418Y-103895417D01*
X163546673Y-103916569D01*
X163660213Y-104030109D01*
X163832179Y-104155048D01*
X163832181Y-104155049D01*
X163832184Y-104155051D01*
X164021588Y-104251557D01*
X164223757Y-104317246D01*
X164433713Y-104350500D01*
X164433714Y-104350500D01*
X164646286Y-104350500D01*
X164646287Y-104350500D01*
X164856243Y-104317246D01*
X165058412Y-104251557D01*
X165247816Y-104155051D01*
X165269789Y-104139086D01*
X165419786Y-104030109D01*
X165419788Y-104030106D01*
X165419792Y-104030104D01*
X165570104Y-103879792D01*
X165570106Y-103879788D01*
X165570109Y-103879786D01*
X165695048Y-103707820D01*
X165695047Y-103707820D01*
X165695051Y-103707816D01*
X165791557Y-103518412D01*
X165857246Y-103316243D01*
X165890500Y-103106287D01*
X165890500Y-102893713D01*
X165865715Y-102737227D01*
X165874670Y-102667933D01*
X165900504Y-102630151D01*
X166544114Y-101986543D01*
X166620775Y-101871811D01*
X166629417Y-101850949D01*
X166653646Y-101792452D01*
X166673580Y-101744328D01*
X166692443Y-101649500D01*
X166700500Y-101608996D01*
X166700500Y-100330912D01*
X166700499Y-100330894D01*
X166700499Y-100150636D01*
X166685045Y-100033244D01*
X166685044Y-100033242D01*
X166685044Y-100033238D01*
X166685042Y-100033233D01*
X166684738Y-100032096D01*
X166684459Y-100028788D01*
X166683984Y-100025179D01*
X166684152Y-100025156D01*
X166681055Y-99988410D01*
X166682513Y-99972870D01*
X166685044Y-99966762D01*
X166700500Y-99849361D01*
X166700500Y-99750000D01*
X167532769Y-99750000D01*
X168426988Y-99750000D01*
X168394075Y-99807007D01*
X168360000Y-99934174D01*
X168360000Y-100065826D01*
X168394075Y-100192993D01*
X168426988Y-100250000D01*
X167532769Y-100250000D01*
X167543242Y-100316126D01*
X167543242Y-100316129D01*
X167608904Y-100518217D01*
X167705379Y-100707557D01*
X167830272Y-100879459D01*
X167830276Y-100879464D01*
X167980535Y-101029723D01*
X167980540Y-101029727D01*
X168152442Y-101154620D01*
X168341782Y-101251095D01*
X168543871Y-101316757D01*
X168610000Y-101327231D01*
X168610000Y-100433012D01*
X168667007Y-100465925D01*
X168794174Y-100500000D01*
X168925826Y-100500000D01*
X169052993Y-100465925D01*
X169110000Y-100433012D01*
X169110000Y-101327230D01*
X169176126Y-101316757D01*
X169176129Y-101316757D01*
X169378217Y-101251095D01*
X169567557Y-101154620D01*
X169739458Y-101029728D01*
X169853133Y-100916053D01*
X169914456Y-100882568D01*
X169984148Y-100887552D01*
X170040082Y-100929423D01*
X170056997Y-100960401D01*
X170106202Y-101092328D01*
X170106206Y-101092335D01*
X170192452Y-101207544D01*
X170192455Y-101207547D01*
X170307664Y-101293793D01*
X170307671Y-101293797D01*
X170442517Y-101344091D01*
X170442516Y-101344091D01*
X170449444Y-101344835D01*
X170502127Y-101350500D01*
X172297872Y-101350499D01*
X172357483Y-101344091D01*
X172492331Y-101293796D01*
X172607546Y-101207546D01*
X172693796Y-101092331D01*
X172744091Y-100957483D01*
X172750500Y-100897873D01*
X172750499Y-99102128D01*
X172744091Y-99042517D01*
X172743002Y-99039598D01*
X172693797Y-98907671D01*
X172693793Y-98907664D01*
X172607547Y-98792455D01*
X172607544Y-98792452D01*
X172492335Y-98706206D01*
X172492328Y-98706202D01*
X172357482Y-98655908D01*
X172357483Y-98655908D01*
X172297883Y-98649501D01*
X172297881Y-98649500D01*
X172297873Y-98649500D01*
X172297864Y-98649500D01*
X170502129Y-98649500D01*
X170502123Y-98649501D01*
X170442516Y-98655908D01*
X170307671Y-98706202D01*
X170307664Y-98706206D01*
X170192455Y-98792452D01*
X170192452Y-98792455D01*
X170106206Y-98907664D01*
X170106202Y-98907671D01*
X170056997Y-99039598D01*
X170015126Y-99095532D01*
X169949661Y-99119949D01*
X169881388Y-99105097D01*
X169853134Y-99083946D01*
X169739464Y-98970276D01*
X169739459Y-98970272D01*
X169567557Y-98845379D01*
X169378215Y-98748903D01*
X169176124Y-98683241D01*
X169110000Y-98672768D01*
X169110000Y-99566988D01*
X169052993Y-99534075D01*
X168925826Y-99500000D01*
X168794174Y-99500000D01*
X168667007Y-99534075D01*
X168610000Y-99566988D01*
X168610000Y-98672768D01*
X168609999Y-98672768D01*
X168543875Y-98683241D01*
X168341784Y-98748903D01*
X168152442Y-98845379D01*
X167980540Y-98970272D01*
X167980535Y-98970276D01*
X167830276Y-99120535D01*
X167830272Y-99120540D01*
X167705379Y-99292442D01*
X167608904Y-99481782D01*
X167543242Y-99683870D01*
X167543242Y-99683873D01*
X167532769Y-99750000D01*
X166700500Y-99750000D01*
X166700500Y-99596543D01*
X166700500Y-98391007D01*
X166692442Y-98350499D01*
X166691691Y-98346725D01*
X166673581Y-98255679D01*
X166673580Y-98255672D01*
X166643279Y-98182518D01*
X166620777Y-98128192D01*
X166544112Y-98013454D01*
X166544111Y-98013453D01*
X165900507Y-97369850D01*
X165867022Y-97308527D01*
X165865715Y-97262771D01*
X165869243Y-97240500D01*
X165890500Y-97106287D01*
X165890500Y-96893713D01*
X165857246Y-96683757D01*
X165791557Y-96481588D01*
X165695051Y-96292184D01*
X165695049Y-96292181D01*
X165695048Y-96292179D01*
X165570109Y-96120213D01*
X165419786Y-95969890D01*
X165247820Y-95844951D01*
X165058414Y-95748444D01*
X165058413Y-95748443D01*
X165058412Y-95748443D01*
X164856243Y-95682754D01*
X164856241Y-95682753D01*
X164856240Y-95682753D01*
X164694957Y-95657208D01*
X164646287Y-95649500D01*
X164433713Y-95649500D01*
X164385042Y-95657208D01*
X164223760Y-95682753D01*
X164021585Y-95748444D01*
X163832179Y-95844951D01*
X163660215Y-95969889D01*
X163546673Y-96083431D01*
X163485350Y-96116915D01*
X163415658Y-96111931D01*
X163359725Y-96070059D01*
X163342810Y-96039082D01*
X163293797Y-95907671D01*
X163293793Y-95907664D01*
X163207547Y-95792455D01*
X163207544Y-95792452D01*
X163092335Y-95706206D01*
X163092328Y-95706202D01*
X162957482Y-95655908D01*
X162957483Y-95655908D01*
X162897883Y-95649501D01*
X162897881Y-95649500D01*
X162897873Y-95649500D01*
X162897865Y-95649500D01*
X162824500Y-95649500D01*
X162757461Y-95629815D01*
X162711706Y-95577011D01*
X162700500Y-95525500D01*
X162700500Y-94393704D01*
X162706485Y-94373318D01*
X162707685Y-94352109D01*
X162716132Y-94340466D01*
X162720185Y-94326665D01*
X162736240Y-94312753D01*
X162748717Y-94295557D01*
X162762118Y-94290329D01*
X162772989Y-94280910D01*
X162794016Y-94277886D01*
X162813809Y-94270166D01*
X162838143Y-94271541D01*
G37*
%TD.AperFunction*%
%TA.AperFunction,Conductor*%
G36*
X166274075Y-113607007D02*
G01*
X166240000Y-113734174D01*
X166240000Y-113865826D01*
X166274075Y-113992993D01*
X166306988Y-114050000D01*
X164633012Y-114050000D01*
X164665925Y-113992993D01*
X164700000Y-113865826D01*
X164700000Y-113734174D01*
X164665925Y-113607007D01*
X164633012Y-113550000D01*
X166306988Y-113550000D01*
X166274075Y-113607007D01*
G37*
%TD.AperFunction*%
%TA.AperFunction,Conductor*%
G36*
X154101028Y-84209438D02*
G01*
X154291155Y-84288191D01*
X154569783Y-84362849D01*
X154855772Y-84400500D01*
X154855779Y-84400500D01*
X155144221Y-84400500D01*
X155144228Y-84400500D01*
X155430217Y-84362849D01*
X155708845Y-84288191D01*
X155898971Y-84209438D01*
X155946423Y-84200000D01*
X194053577Y-84200000D01*
X194101028Y-84209438D01*
X194291155Y-84288191D01*
X194569783Y-84362849D01*
X194855772Y-84400500D01*
X194855779Y-84400500D01*
X195144221Y-84400500D01*
X195144228Y-84400500D01*
X195430217Y-84362849D01*
X195708845Y-84288191D01*
X195898971Y-84209438D01*
X195946423Y-84200000D01*
X197375500Y-84200000D01*
X197442539Y-84219685D01*
X197488294Y-84272489D01*
X197499500Y-84324000D01*
X197499500Y-115676000D01*
X197479815Y-115743039D01*
X197427011Y-115788794D01*
X197375500Y-115800000D01*
X195946423Y-115800000D01*
X195898971Y-115790561D01*
X195784242Y-115743039D01*
X195708854Y-115711812D01*
X195708847Y-115711810D01*
X195708845Y-115711809D01*
X195430217Y-115637151D01*
X195430211Y-115637150D01*
X195430206Y-115637149D01*
X195144238Y-115599501D01*
X195144233Y-115599500D01*
X195144228Y-115599500D01*
X194855772Y-115599500D01*
X194855766Y-115599500D01*
X194855761Y-115599501D01*
X194569793Y-115637149D01*
X194569786Y-115637150D01*
X194569783Y-115637151D01*
X194291155Y-115711809D01*
X194291145Y-115711812D01*
X194140452Y-115774231D01*
X194101028Y-115790561D01*
X194053577Y-115800000D01*
X155946423Y-115800000D01*
X155898971Y-115790561D01*
X155784242Y-115743039D01*
X155708854Y-115711812D01*
X155708847Y-115711810D01*
X155708845Y-115711809D01*
X155430217Y-115637151D01*
X155430211Y-115637150D01*
X155430206Y-115637149D01*
X155144238Y-115599501D01*
X155144233Y-115599500D01*
X155144228Y-115599500D01*
X154855772Y-115599500D01*
X154855766Y-115599500D01*
X154855761Y-115599501D01*
X154569793Y-115637149D01*
X154569786Y-115637150D01*
X154569783Y-115637151D01*
X154291155Y-115711809D01*
X154291145Y-115711812D01*
X154140452Y-115774231D01*
X154101028Y-115790561D01*
X154053577Y-115800000D01*
X152624500Y-115800000D01*
X152557461Y-115780315D01*
X152511706Y-115727511D01*
X152500500Y-115676000D01*
X152500500Y-99897573D01*
X154775000Y-99897573D01*
X154775000Y-100102426D01*
X154784704Y-100200952D01*
X154784706Y-100200964D01*
X154824670Y-100401874D01*
X154853408Y-100496612D01*
X154931802Y-100685872D01*
X154931805Y-100685879D01*
X154978470Y-100773185D01*
X155092290Y-100943529D01*
X155155094Y-101020055D01*
X155299944Y-101164905D01*
X155376470Y-101227709D01*
X155546814Y-101341529D01*
X155546813Y-101341529D01*
X155634120Y-101388194D01*
X155634127Y-101388197D01*
X155823387Y-101466591D01*
X155918125Y-101495329D01*
X156119035Y-101535293D01*
X156119047Y-101535295D01*
X156217574Y-101545000D01*
X156422426Y-101545000D01*
X156520952Y-101535295D01*
X156520964Y-101535293D01*
X156721874Y-101495329D01*
X156816612Y-101466591D01*
X156928047Y-101420433D01*
X156997516Y-101412964D01*
X157059995Y-101444239D01*
X157095648Y-101504328D01*
X157099500Y-101534994D01*
X157099500Y-104236452D01*
X157079815Y-104303491D01*
X157048385Y-104336770D01*
X156920213Y-104429890D01*
X156769890Y-104580213D01*
X156644951Y-104752179D01*
X156548444Y-104941585D01*
X156482753Y-105143760D01*
X156449500Y-105353713D01*
X156449500Y-105566286D01*
X156480148Y-105759794D01*
X156482754Y-105776243D01*
X156546635Y-105972849D01*
X156548444Y-105978414D01*
X156644951Y-106167820D01*
X156769890Y-106339786D01*
X156883430Y-106453326D01*
X156916915Y-106514649D01*
X156911931Y-106584341D01*
X156870059Y-106640274D01*
X156839083Y-106657189D01*
X156707669Y-106706203D01*
X156707664Y-106706206D01*
X156592455Y-106792452D01*
X156592452Y-106792455D01*
X156506206Y-106907664D01*
X156506202Y-106907671D01*
X156455908Y-107042517D01*
X156449501Y-107102116D01*
X156449501Y-107102123D01*
X156449500Y-107102135D01*
X156449500Y-108897870D01*
X156449501Y-108897876D01*
X156455908Y-108957483D01*
X156506202Y-109092328D01*
X156506206Y-109092335D01*
X156592452Y-109207544D01*
X156592455Y-109207547D01*
X156707665Y-109293794D01*
X156707667Y-109293794D01*
X156707669Y-109293796D01*
X156718830Y-109297958D01*
X156774764Y-109339826D01*
X156799184Y-109405289D01*
X156799500Y-109414141D01*
X156799500Y-110699800D01*
X156779815Y-110766839D01*
X156770506Y-110779365D01*
X156644951Y-110952179D01*
X156548444Y-111141585D01*
X156548443Y-111141587D01*
X156548443Y-111141588D01*
X156527012Y-111207546D01*
X156482753Y-111343760D01*
X156449500Y-111553713D01*
X156449500Y-111766286D01*
X156482753Y-111976239D01*
X156548444Y-112178414D01*
X156644951Y-112367820D01*
X156769890Y-112539786D01*
X156883818Y-112653714D01*
X156917303Y-112715037D01*
X156912319Y-112784729D01*
X156870447Y-112840662D01*
X156839471Y-112857577D01*
X156707912Y-112906646D01*
X156707906Y-112906649D01*
X156592812Y-112992809D01*
X156592809Y-112992812D01*
X156506649Y-113107906D01*
X156506645Y-113107913D01*
X156456403Y-113242620D01*
X156456401Y-113242627D01*
X156450000Y-113302155D01*
X156450000Y-113950000D01*
X157366988Y-113950000D01*
X157334075Y-114007007D01*
X157300000Y-114134174D01*
X157300000Y-114265826D01*
X157334075Y-114392993D01*
X157366988Y-114450000D01*
X156450000Y-114450000D01*
X156450000Y-115097844D01*
X156456401Y-115157372D01*
X156456403Y-115157379D01*
X156506645Y-115292086D01*
X156506649Y-115292093D01*
X156592809Y-115407187D01*
X156592812Y-115407190D01*
X156707906Y-115493350D01*
X156707913Y-115493354D01*
X156842620Y-115543596D01*
X156842627Y-115543598D01*
X156902155Y-115549999D01*
X156902172Y-115550000D01*
X157550000Y-115550000D01*
X157550000Y-114633012D01*
X157607007Y-114665925D01*
X157734174Y-114700000D01*
X157865826Y-114700000D01*
X157992993Y-114665925D01*
X158050000Y-114633012D01*
X158050000Y-115550000D01*
X158697828Y-115550000D01*
X158697844Y-115549999D01*
X158757372Y-115543598D01*
X158757379Y-115543596D01*
X158892086Y-115493354D01*
X158892093Y-115493350D01*
X159007187Y-115407190D01*
X159007190Y-115407187D01*
X159093350Y-115292093D01*
X159093354Y-115292086D01*
X159143596Y-115157379D01*
X159143598Y-115157372D01*
X159149999Y-115097844D01*
X159150000Y-115097827D01*
X159150000Y-114450000D01*
X158233012Y-114450000D01*
X158265925Y-114392993D01*
X158300000Y-114265826D01*
X158300000Y-114134174D01*
X158265925Y-114007007D01*
X158233012Y-113950000D01*
X159150000Y-113950000D01*
X159150000Y-113302172D01*
X159149999Y-113302155D01*
X159143598Y-113242627D01*
X159143596Y-113242620D01*
X159093354Y-113107913D01*
X159093350Y-113107906D01*
X159007190Y-112992813D01*
X158892089Y-112906647D01*
X158892088Y-112906646D01*
X158880047Y-112902155D01*
X162850000Y-112902155D01*
X162850000Y-113550000D01*
X163766988Y-113550000D01*
X163734075Y-113607007D01*
X163700000Y-113734174D01*
X163700000Y-113865826D01*
X163734075Y-113992993D01*
X163766988Y-114050000D01*
X162850000Y-114050000D01*
X162850000Y-114697844D01*
X162856401Y-114757372D01*
X162856403Y-114757379D01*
X162906645Y-114892086D01*
X162906649Y-114892093D01*
X162992809Y-115007187D01*
X162992812Y-115007190D01*
X163107906Y-115093350D01*
X163107913Y-115093354D01*
X163242620Y-115143596D01*
X163242627Y-115143598D01*
X163302155Y-115149999D01*
X163302172Y-115150000D01*
X163950000Y-115150000D01*
X163950000Y-114233012D01*
X164007007Y-114265925D01*
X164134174Y-114300000D01*
X164265826Y-114300000D01*
X164392993Y-114265925D01*
X164450000Y-114233012D01*
X164450000Y-115150000D01*
X165097828Y-115150000D01*
X165097844Y-115149999D01*
X165157372Y-115143598D01*
X165157379Y-115143596D01*
X165292086Y-115093354D01*
X165292093Y-115093350D01*
X165407187Y-115007190D01*
X165407190Y-115007187D01*
X165493350Y-114892093D01*
X165493354Y-114892086D01*
X165542614Y-114760013D01*
X165584485Y-114704079D01*
X165649949Y-114679662D01*
X165718222Y-114694513D01*
X165746477Y-114715665D01*
X165860535Y-114829723D01*
X165860540Y-114829727D01*
X166032442Y-114954620D01*
X166221782Y-115051095D01*
X166423871Y-115116757D01*
X166490000Y-115127231D01*
X166490000Y-114233012D01*
X166547007Y-114265925D01*
X166674174Y-114300000D01*
X166805826Y-114300000D01*
X166932993Y-114265925D01*
X166990000Y-114233012D01*
X166990000Y-115127230D01*
X167056126Y-115116757D01*
X167056129Y-115116757D01*
X167258217Y-115051095D01*
X167447557Y-114954620D01*
X167619459Y-114829727D01*
X167619464Y-114829723D01*
X167769723Y-114679464D01*
X167769727Y-114679459D01*
X167894620Y-114507557D01*
X167991095Y-114318217D01*
X168056757Y-114116129D01*
X168056757Y-114116126D01*
X168067231Y-114050000D01*
X167173012Y-114050000D01*
X167205925Y-113992993D01*
X167240000Y-113865826D01*
X167240000Y-113734174D01*
X167205925Y-113607007D01*
X167173012Y-113550000D01*
X168067231Y-113550000D01*
X169072769Y-113550000D01*
X169966988Y-113550000D01*
X169934075Y-113607007D01*
X169900000Y-113734174D01*
X169900000Y-113865826D01*
X169934075Y-113992993D01*
X169966988Y-114050000D01*
X169072769Y-114050000D01*
X169083242Y-114116126D01*
X169083242Y-114116129D01*
X169148904Y-114318217D01*
X169245379Y-114507557D01*
X169370272Y-114679459D01*
X169370276Y-114679464D01*
X169520535Y-114829723D01*
X169520540Y-114829727D01*
X169692442Y-114954620D01*
X169881782Y-115051095D01*
X170083871Y-115116757D01*
X170150000Y-115127231D01*
X170150000Y-114233012D01*
X170207007Y-114265925D01*
X170334174Y-114300000D01*
X170465826Y-114300000D01*
X170592993Y-114265925D01*
X170650000Y-114233012D01*
X170650000Y-115127230D01*
X170716126Y-115116757D01*
X170716129Y-115116757D01*
X170918217Y-115051095D01*
X171107557Y-114954620D01*
X171279458Y-114829728D01*
X171393133Y-114716053D01*
X171454456Y-114682568D01*
X171524148Y-114687552D01*
X171580082Y-114729423D01*
X171596997Y-114760401D01*
X171646202Y-114892328D01*
X171646206Y-114892335D01*
X171732452Y-115007544D01*
X171732455Y-115007547D01*
X171847664Y-115093793D01*
X171847671Y-115093797D01*
X171982517Y-115144091D01*
X171982516Y-115144091D01*
X171989444Y-115144835D01*
X172042127Y-115150500D01*
X173837872Y-115150499D01*
X173897483Y-115144091D01*
X174032331Y-115093796D01*
X174147546Y-115007546D01*
X174233796Y-114892331D01*
X174284091Y-114757483D01*
X174290500Y-114697873D01*
X174290499Y-112902128D01*
X174284091Y-112842517D01*
X174283399Y-112840662D01*
X174233797Y-112707671D01*
X174233793Y-112707664D01*
X174147547Y-112592455D01*
X174147544Y-112592452D01*
X174032335Y-112506206D01*
X174032328Y-112506202D01*
X173897482Y-112455908D01*
X173897483Y-112455908D01*
X173837883Y-112449501D01*
X173837881Y-112449500D01*
X173837873Y-112449500D01*
X173837864Y-112449500D01*
X172042129Y-112449500D01*
X172042123Y-112449501D01*
X171982516Y-112455908D01*
X171847671Y-112506202D01*
X171847664Y-112506206D01*
X171732455Y-112592452D01*
X171732452Y-112592455D01*
X171646206Y-112707664D01*
X171646202Y-112707671D01*
X171596997Y-112839598D01*
X171555126Y-112895532D01*
X171489661Y-112919949D01*
X171421388Y-112905097D01*
X171393134Y-112883946D01*
X171279464Y-112770276D01*
X171279459Y-112770272D01*
X171107557Y-112645379D01*
X170918215Y-112548903D01*
X170716124Y-112483241D01*
X170650000Y-112472768D01*
X170650000Y-113366988D01*
X170592993Y-113334075D01*
X170465826Y-113300000D01*
X170334174Y-113300000D01*
X170207007Y-113334075D01*
X170150000Y-113366988D01*
X170150000Y-112472768D01*
X170149999Y-112472768D01*
X170083875Y-112483241D01*
X169881784Y-112548903D01*
X169692442Y-112645379D01*
X169520540Y-112770272D01*
X169520535Y-112770276D01*
X169370276Y-112920535D01*
X169370272Y-112920540D01*
X169245379Y-113092442D01*
X169148904Y-113281782D01*
X169083242Y-113483870D01*
X169083242Y-113483873D01*
X169072769Y-113550000D01*
X168067231Y-113550000D01*
X168056757Y-113483873D01*
X168056757Y-113483870D01*
X167991095Y-113281782D01*
X167894620Y-113092442D01*
X167769727Y-112920540D01*
X167769723Y-112920535D01*
X167619464Y-112770276D01*
X167619459Y-112770272D01*
X167447557Y-112645379D01*
X167258215Y-112548903D01*
X167056124Y-112483241D01*
X166990000Y-112472768D01*
X166990000Y-113366988D01*
X166932993Y-113334075D01*
X166805826Y-113300000D01*
X166674174Y-113300000D01*
X166547007Y-113334075D01*
X166490000Y-113366988D01*
X166490000Y-112472768D01*
X166489999Y-112472768D01*
X166423875Y-112483241D01*
X166221784Y-112548903D01*
X166032442Y-112645379D01*
X165860541Y-112770271D01*
X165746477Y-112884335D01*
X165685154Y-112917819D01*
X165615462Y-112912835D01*
X165559529Y-112870963D01*
X165542614Y-112839986D01*
X165493354Y-112707913D01*
X165493350Y-112707906D01*
X165407190Y-112592812D01*
X165407187Y-112592809D01*
X165292093Y-112506649D01*
X165292086Y-112506645D01*
X165157379Y-112456403D01*
X165157372Y-112456401D01*
X165097844Y-112450000D01*
X164450000Y-112450000D01*
X164450000Y-113366988D01*
X164392993Y-113334075D01*
X164265826Y-113300000D01*
X164134174Y-113300000D01*
X164007007Y-113334075D01*
X163950000Y-113366988D01*
X163950000Y-112450000D01*
X163302155Y-112450000D01*
X163242627Y-112456401D01*
X163242620Y-112456403D01*
X163107913Y-112506645D01*
X163107906Y-112506649D01*
X162992812Y-112592809D01*
X162992809Y-112592812D01*
X162906649Y-112707906D01*
X162906645Y-112707913D01*
X162856403Y-112842620D01*
X162856401Y-112842627D01*
X162850000Y-112902155D01*
X158880047Y-112902155D01*
X158760528Y-112857577D01*
X158704595Y-112815705D01*
X158680178Y-112750241D01*
X158695030Y-112681968D01*
X158716175Y-112653720D01*
X158830104Y-112539792D01*
X158854506Y-112506206D01*
X158955048Y-112367820D01*
X158955047Y-112367820D01*
X158955051Y-112367816D01*
X159051557Y-112178412D01*
X159117246Y-111976243D01*
X159150500Y-111766287D01*
X159150500Y-111553713D01*
X159117246Y-111343757D01*
X159051557Y-111141588D01*
X158955051Y-110952184D01*
X158955049Y-110952181D01*
X158955048Y-110952179D01*
X158827241Y-110776266D01*
X158828108Y-110775635D01*
X158801641Y-110716581D01*
X158800500Y-110699800D01*
X158800500Y-109414141D01*
X158820185Y-109347102D01*
X158872989Y-109301347D01*
X158881149Y-109297966D01*
X158892331Y-109293796D01*
X159007546Y-109207546D01*
X159093796Y-109092331D01*
X159144091Y-108957483D01*
X159150500Y-108897873D01*
X159150499Y-107102128D01*
X159144091Y-107042517D01*
X159143228Y-107040204D01*
X159093797Y-106907671D01*
X159093793Y-106907664D01*
X159007547Y-106792455D01*
X159007544Y-106792452D01*
X158892335Y-106706206D01*
X158892328Y-106706202D01*
X158760917Y-106657189D01*
X158704983Y-106615318D01*
X158680566Y-106549853D01*
X158695418Y-106481580D01*
X158716563Y-106453332D01*
X158830104Y-106339792D01*
X158955051Y-106167816D01*
X159051557Y-105978412D01*
X159117246Y-105776243D01*
X159150500Y-105566287D01*
X159150500Y-105353713D01*
X159117246Y-105143757D01*
X159051557Y-104941588D01*
X158955051Y-104752184D01*
X158955049Y-104752181D01*
X158955048Y-104752179D01*
X158830109Y-104580213D01*
X158679786Y-104429890D01*
X158551615Y-104336770D01*
X158508949Y-104281441D01*
X158500500Y-104236452D01*
X158500500Y-102140519D01*
X158520185Y-102073480D01*
X158572989Y-102027725D01*
X158642147Y-102017781D01*
X158705703Y-102046806D01*
X158712181Y-102052838D01*
X160203453Y-103544111D01*
X160203454Y-103544112D01*
X160318190Y-103620776D01*
X160416790Y-103661617D01*
X160445671Y-103673580D01*
X160445672Y-103673580D01*
X160445677Y-103673582D01*
X160472545Y-103678925D01*
X160472551Y-103678926D01*
X160472591Y-103678934D01*
X160549694Y-103694271D01*
X160611605Y-103726657D01*
X160646178Y-103787373D01*
X160649501Y-103815888D01*
X160649501Y-103897876D01*
X160655908Y-103957483D01*
X160706202Y-104092328D01*
X160706206Y-104092335D01*
X160792452Y-104207544D01*
X160792455Y-104207547D01*
X160907664Y-104293793D01*
X160907671Y-104293797D01*
X160937572Y-104304949D01*
X161042517Y-104344091D01*
X161102127Y-104350500D01*
X161175500Y-104350499D01*
X161242538Y-104370183D01*
X161288294Y-104422986D01*
X161299500Y-104474499D01*
X161299500Y-106236452D01*
X161279815Y-106303491D01*
X161248385Y-106336770D01*
X161120213Y-106429890D01*
X160969890Y-106580213D01*
X160844951Y-106752179D01*
X160748444Y-106941585D01*
X160682753Y-107143760D01*
X160649500Y-107353713D01*
X160649500Y-107566286D01*
X160682753Y-107776239D01*
X160748444Y-107978414D01*
X160844951Y-108167820D01*
X160969890Y-108339786D01*
X161083430Y-108453326D01*
X161116915Y-108514649D01*
X161111931Y-108584341D01*
X161070059Y-108640274D01*
X161039083Y-108657189D01*
X160907669Y-108706203D01*
X160907664Y-108706206D01*
X160792455Y-108792452D01*
X160792452Y-108792455D01*
X160706206Y-108907664D01*
X160706202Y-108907671D01*
X160655908Y-109042517D01*
X160649501Y-109102116D01*
X160649501Y-109102123D01*
X160649500Y-109102135D01*
X160649500Y-110897870D01*
X160649501Y-110897876D01*
X160655908Y-110957483D01*
X160706202Y-111092328D01*
X160706206Y-111092335D01*
X160792452Y-111207544D01*
X160792455Y-111207547D01*
X160907664Y-111293793D01*
X160907671Y-111293797D01*
X161042517Y-111344091D01*
X161042516Y-111344091D01*
X161049444Y-111344835D01*
X161102127Y-111350500D01*
X162897872Y-111350499D01*
X162957483Y-111344091D01*
X163092331Y-111293796D01*
X163207546Y-111207546D01*
X163293796Y-111092331D01*
X163344091Y-110957483D01*
X163350500Y-110897873D01*
X163350500Y-110824500D01*
X163370185Y-110757461D01*
X163422989Y-110711706D01*
X163474500Y-110700500D01*
X164661496Y-110700500D01*
X164752540Y-110682389D01*
X164796828Y-110673580D01*
X164860569Y-110647177D01*
X164924307Y-110620777D01*
X164924308Y-110620776D01*
X164924311Y-110620775D01*
X165039043Y-110544114D01*
X165857942Y-109725213D01*
X165876731Y-109714954D01*
X165892744Y-109700735D01*
X165914445Y-109694360D01*
X165919263Y-109691730D01*
X165926485Y-109690381D01*
X165927909Y-109690158D01*
X165966762Y-109685044D01*
X165970459Y-109683512D01*
X165981840Y-109681735D01*
X166002703Y-109684476D01*
X166025182Y-109684476D01*
X166025312Y-109683495D01*
X166032763Y-109684476D01*
X166033072Y-109684476D01*
X166033370Y-109684555D01*
X166150676Y-109699999D01*
X166207499Y-109699998D01*
X166207500Y-109699998D01*
X166207500Y-109610426D01*
X166227185Y-109543387D01*
X166233854Y-109535130D01*
X166233334Y-109534731D01*
X166325865Y-109414141D01*
X166334536Y-109402841D01*
X166368939Y-109319785D01*
X166412780Y-109265381D01*
X166479074Y-109243316D01*
X166546773Y-109260595D01*
X166594384Y-109311732D01*
X166607500Y-109367237D01*
X166607500Y-109699999D01*
X166664324Y-109699999D01*
X166781628Y-109684557D01*
X166781633Y-109684555D01*
X166927585Y-109624100D01*
X167052924Y-109527924D01*
X167149100Y-109402586D01*
X167209555Y-109256631D01*
X167217012Y-109200000D01*
X166598049Y-109200000D01*
X166586010Y-109210432D01*
X166572677Y-109212348D01*
X166560854Y-109218805D01*
X166538767Y-109217224D01*
X166516852Y-109220376D01*
X166504599Y-109214780D01*
X166491163Y-109213819D01*
X166473437Y-109200549D01*
X166453296Y-109191351D01*
X166446013Y-109180018D01*
X166435230Y-109171946D01*
X166427492Y-109151200D01*
X166415522Y-109132573D01*
X166412369Y-109110650D01*
X166410815Y-109106481D01*
X166410499Y-109097661D01*
X166410499Y-108902360D01*
X166430184Y-108835322D01*
X166482988Y-108789567D01*
X166552146Y-108779623D01*
X166596765Y-108800000D01*
X167217010Y-108800000D01*
X167217011Y-108799998D01*
X167209557Y-108743372D01*
X167209555Y-108743366D01*
X167149100Y-108597414D01*
X167052924Y-108472075D01*
X166927586Y-108375899D01*
X166781634Y-108315445D01*
X166781630Y-108315444D01*
X166664330Y-108300000D01*
X166607500Y-108300000D01*
X166607500Y-108632762D01*
X166587815Y-108699801D01*
X166535011Y-108745556D01*
X166465853Y-108755500D01*
X166402297Y-108726475D01*
X166368939Y-108680215D01*
X166349283Y-108632762D01*
X166334536Y-108597159D01*
X166238282Y-108471718D01*
X166238279Y-108471716D01*
X166233334Y-108465271D01*
X166236075Y-108463167D01*
X166210272Y-108415643D01*
X166207500Y-108389573D01*
X166207500Y-108300000D01*
X166207499Y-108299999D01*
X166150676Y-108300000D01*
X166033371Y-108315442D01*
X166033069Y-108315524D01*
X166032755Y-108315524D01*
X166025311Y-108316504D01*
X166025182Y-108315524D01*
X165974884Y-108315525D01*
X165974820Y-108316017D01*
X165971090Y-108315525D01*
X165968891Y-108315526D01*
X165966765Y-108314956D01*
X165849370Y-108299501D01*
X165849367Y-108299500D01*
X165849361Y-108299500D01*
X165661495Y-108299500D01*
X165661494Y-108299500D01*
X165523506Y-108299500D01*
X165523502Y-108299500D01*
X165335636Y-108299500D01*
X165218246Y-108314953D01*
X165218237Y-108314956D01*
X165072160Y-108375463D01*
X164946718Y-108471718D01*
X164850463Y-108597160D01*
X164789956Y-108743237D01*
X164789956Y-108743238D01*
X164785042Y-108780563D01*
X164756775Y-108844459D01*
X164749784Y-108852057D01*
X164338662Y-109263181D01*
X164277339Y-109296666D01*
X164250981Y-109299500D01*
X163474499Y-109299500D01*
X163407460Y-109279815D01*
X163361705Y-109227011D01*
X163350499Y-109175500D01*
X163350499Y-109102129D01*
X163350498Y-109102123D01*
X163350497Y-109102116D01*
X163344091Y-109042517D01*
X163312375Y-108957483D01*
X163293797Y-108907671D01*
X163293793Y-108907664D01*
X163207547Y-108792455D01*
X163207544Y-108792452D01*
X163092335Y-108706206D01*
X163092328Y-108706202D01*
X162960917Y-108657189D01*
X162904983Y-108615318D01*
X162880566Y-108549853D01*
X162895418Y-108481580D01*
X162916563Y-108453332D01*
X163030104Y-108339792D01*
X163047378Y-108316017D01*
X163155048Y-108167820D01*
X163155047Y-108167820D01*
X163155051Y-108167816D01*
X163251557Y-107978412D01*
X163317246Y-107776243D01*
X163350500Y-107566287D01*
X163350500Y-107353713D01*
X163333107Y-107243898D01*
X163342062Y-107174604D01*
X163387058Y-107121152D01*
X163453809Y-107100513D01*
X163455580Y-107100500D01*
X167636453Y-107100500D01*
X167703492Y-107120185D01*
X167736769Y-107151614D01*
X167753473Y-107174604D01*
X167829892Y-107279788D01*
X167980213Y-107430109D01*
X168152179Y-107555048D01*
X168152181Y-107555049D01*
X168152184Y-107555051D01*
X168341588Y-107651557D01*
X168543757Y-107717246D01*
X168753713Y-107750500D01*
X168753714Y-107750500D01*
X168966286Y-107750500D01*
X168966287Y-107750500D01*
X169176243Y-107717246D01*
X169378412Y-107651557D01*
X169567816Y-107555051D01*
X169739792Y-107430104D01*
X169853329Y-107316566D01*
X169914648Y-107283084D01*
X169984340Y-107288068D01*
X170040274Y-107329939D01*
X170057189Y-107360917D01*
X170106202Y-107492328D01*
X170106206Y-107492335D01*
X170192452Y-107607544D01*
X170192455Y-107607547D01*
X170307664Y-107693793D01*
X170307671Y-107693797D01*
X170442517Y-107744091D01*
X170442516Y-107744091D01*
X170449444Y-107744835D01*
X170502127Y-107750500D01*
X172297872Y-107750499D01*
X172357483Y-107744091D01*
X172492331Y-107693796D01*
X172607546Y-107607546D01*
X172693796Y-107492331D01*
X172744091Y-107357483D01*
X172750500Y-107297873D01*
X172750499Y-105715780D01*
X172770184Y-105648742D01*
X172786813Y-105628105D01*
X174587819Y-103827100D01*
X174649142Y-103793615D01*
X174718834Y-103798599D01*
X174774767Y-103840471D01*
X174799184Y-103905935D01*
X174799500Y-103914781D01*
X174799500Y-103954221D01*
X174799501Y-103954238D01*
X174837149Y-104240206D01*
X174837150Y-104240211D01*
X174837151Y-104240217D01*
X174899927Y-104474499D01*
X174911809Y-104518844D01*
X174911814Y-104518860D01*
X175022191Y-104785336D01*
X175022199Y-104785352D01*
X175166420Y-105035148D01*
X175166431Y-105035164D01*
X175342024Y-105264002D01*
X175342030Y-105264009D01*
X175545990Y-105467969D01*
X175545997Y-105467975D01*
X175581238Y-105495016D01*
X175774844Y-105643575D01*
X175788603Y-105651519D01*
X176024647Y-105787800D01*
X176024663Y-105787808D01*
X176291139Y-105898185D01*
X176291145Y-105898186D01*
X176291155Y-105898191D01*
X176569783Y-105972849D01*
X176855772Y-106010500D01*
X176855779Y-106010500D01*
X177144221Y-106010500D01*
X177144228Y-106010500D01*
X177430217Y-105972849D01*
X177708845Y-105898191D01*
X177708857Y-105898185D01*
X177708860Y-105898185D01*
X177975336Y-105787808D01*
X177975339Y-105787806D01*
X177975345Y-105787804D01*
X178225156Y-105643575D01*
X178454004Y-105467974D01*
X178657974Y-105264004D01*
X178833575Y-105035156D01*
X178977804Y-104785345D01*
X179088191Y-104518845D01*
X179162849Y-104240217D01*
X179200500Y-103954228D01*
X179200500Y-103706530D01*
X184839500Y-103706530D01*
X184839500Y-103913469D01*
X184879868Y-104116412D01*
X184879870Y-104116420D01*
X184956417Y-104301221D01*
X184959059Y-104307598D01*
X184983443Y-104344091D01*
X185074024Y-104479657D01*
X185220342Y-104625975D01*
X185220345Y-104625977D01*
X185392402Y-104740941D01*
X185583580Y-104820130D01*
X185778471Y-104858896D01*
X185786530Y-104860499D01*
X185786534Y-104860500D01*
X185786535Y-104860500D01*
X185993466Y-104860500D01*
X185993467Y-104860499D01*
X186196420Y-104820130D01*
X186387598Y-104740941D01*
X186559655Y-104625977D01*
X186705977Y-104479655D01*
X186820941Y-104307598D01*
X186900130Y-104116420D01*
X186940500Y-103913465D01*
X186940500Y-103706535D01*
X186900130Y-103503580D01*
X186820941Y-103312402D01*
X186705977Y-103140345D01*
X186705975Y-103140342D01*
X186559657Y-102994024D01*
X186409529Y-102893713D01*
X186387598Y-102879059D01*
X186250558Y-102822295D01*
X186196420Y-102799870D01*
X186196412Y-102799868D01*
X185993469Y-102759500D01*
X185993465Y-102759500D01*
X185786535Y-102759500D01*
X185786530Y-102759500D01*
X185583587Y-102799868D01*
X185583579Y-102799870D01*
X185392403Y-102879058D01*
X185220342Y-102994024D01*
X185074024Y-103140342D01*
X184959058Y-103312403D01*
X184879870Y-103503579D01*
X184879868Y-103503587D01*
X184839500Y-103706530D01*
X179200500Y-103706530D01*
X179200500Y-103665772D01*
X179162849Y-103379783D01*
X179088191Y-103101155D01*
X179088186Y-103101145D01*
X179088185Y-103101139D01*
X178977808Y-102834663D01*
X178977800Y-102834647D01*
X178833579Y-102584851D01*
X178833575Y-102584844D01*
X178783015Y-102518953D01*
X178657975Y-102355997D01*
X178657969Y-102355990D01*
X178454009Y-102152030D01*
X178454002Y-102152024D01*
X178225164Y-101976431D01*
X178225162Y-101976430D01*
X178225156Y-101976425D01*
X178064031Y-101883399D01*
X178037443Y-101868048D01*
X177989228Y-101817480D01*
X177976006Y-101748873D01*
X178001974Y-101684009D01*
X178037441Y-101653276D01*
X178085965Y-101625261D01*
X178288813Y-101469610D01*
X178469610Y-101288813D01*
X178625261Y-101085965D01*
X178753104Y-100864535D01*
X178850950Y-100628313D01*
X178917126Y-100381340D01*
X178950500Y-100127843D01*
X178950500Y-99872157D01*
X178950499Y-99872149D01*
X180129500Y-99872149D01*
X180129500Y-100127850D01*
X180153088Y-100307007D01*
X180162874Y-100381340D01*
X180217402Y-100584842D01*
X180229050Y-100628312D01*
X180229053Y-100628322D01*
X180326894Y-100864531D01*
X180326899Y-100864542D01*
X180454734Y-101085957D01*
X180454745Y-101085973D01*
X180610388Y-101288811D01*
X180610394Y-101288818D01*
X180791181Y-101469605D01*
X180791188Y-101469611D01*
X180876789Y-101535295D01*
X180994035Y-101625261D01*
X180994042Y-101625265D01*
X181215457Y-101753100D01*
X181215462Y-101753102D01*
X181215465Y-101753104D01*
X181310460Y-101792452D01*
X181428044Y-101841157D01*
X181451687Y-101850950D01*
X181698660Y-101917126D01*
X181952157Y-101950500D01*
X181952164Y-101950500D01*
X182207836Y-101950500D01*
X182207843Y-101950500D01*
X182461340Y-101917126D01*
X182708313Y-101850950D01*
X182944535Y-101753104D01*
X183165965Y-101625261D01*
X183368813Y-101469610D01*
X183549610Y-101288813D01*
X183705261Y-101085965D01*
X183833104Y-100864535D01*
X183930950Y-100628313D01*
X183997126Y-100381340D01*
X184030500Y-100127843D01*
X184030500Y-99872157D01*
X183997126Y-99618660D01*
X183930950Y-99371687D01*
X183833104Y-99135465D01*
X183833102Y-99135462D01*
X183833100Y-99135457D01*
X183705265Y-98914042D01*
X183705261Y-98914035D01*
X183644687Y-98835094D01*
X183549611Y-98711188D01*
X183549605Y-98711181D01*
X183368818Y-98530394D01*
X183368811Y-98530388D01*
X183165973Y-98374745D01*
X183165971Y-98374743D01*
X183165965Y-98374739D01*
X183165958Y-98374735D01*
X183165957Y-98374734D01*
X182944542Y-98246899D01*
X182944531Y-98246894D01*
X182708322Y-98149053D01*
X182708315Y-98149051D01*
X182708313Y-98149050D01*
X182461340Y-98082874D01*
X182399481Y-98074730D01*
X182207850Y-98049500D01*
X182207843Y-98049500D01*
X181952157Y-98049500D01*
X181952149Y-98049500D01*
X181726826Y-98079165D01*
X181698660Y-98082874D01*
X181515502Y-98131951D01*
X181451687Y-98149050D01*
X181451677Y-98149053D01*
X181215468Y-98246894D01*
X181215457Y-98246899D01*
X180994042Y-98374734D01*
X180994026Y-98374745D01*
X180791188Y-98530388D01*
X180791181Y-98530394D01*
X180610394Y-98711181D01*
X180610388Y-98711188D01*
X180454745Y-98914026D01*
X180454734Y-98914042D01*
X180326899Y-99135457D01*
X180326894Y-99135468D01*
X180229053Y-99371677D01*
X180229050Y-99371687D01*
X180167901Y-99599901D01*
X180162874Y-99618661D01*
X180129500Y-99872149D01*
X178950499Y-99872149D01*
X178917126Y-99618660D01*
X178850950Y-99371687D01*
X178753104Y-99135465D01*
X178753102Y-99135462D01*
X178753100Y-99135457D01*
X178625265Y-98914042D01*
X178625261Y-98914035D01*
X178564687Y-98835094D01*
X178469611Y-98711188D01*
X178469605Y-98711181D01*
X178288818Y-98530394D01*
X178288811Y-98530388D01*
X178085973Y-98374745D01*
X178085971Y-98374744D01*
X178085965Y-98374739D01*
X178037442Y-98346724D01*
X177989228Y-98296158D01*
X177976004Y-98227551D01*
X178001972Y-98162687D01*
X178037441Y-98131952D01*
X178225156Y-98023575D01*
X178454004Y-97847974D01*
X178657974Y-97644004D01*
X178833575Y-97415156D01*
X178977804Y-97165345D01*
X178985014Y-97147940D01*
X179088185Y-96898860D01*
X179088185Y-96898857D01*
X179088191Y-96898845D01*
X179162849Y-96620217D01*
X179200500Y-96334228D01*
X179200500Y-96086530D01*
X189919500Y-96086530D01*
X189919500Y-96293469D01*
X189959868Y-96496412D01*
X189959870Y-96496420D01*
X190039058Y-96687596D01*
X190154024Y-96859657D01*
X190300342Y-97005975D01*
X190300345Y-97005977D01*
X190472402Y-97120941D01*
X190663580Y-97200130D01*
X190866530Y-97240499D01*
X190866534Y-97240500D01*
X190866535Y-97240500D01*
X191073466Y-97240500D01*
X191073467Y-97240499D01*
X191276420Y-97200130D01*
X191467598Y-97120941D01*
X191639655Y-97005977D01*
X191785977Y-96859655D01*
X191900941Y-96687598D01*
X191980130Y-96496420D01*
X192020500Y-96293465D01*
X192020500Y-96086535D01*
X191980130Y-95883580D01*
X191900941Y-95692402D01*
X191785977Y-95520345D01*
X191785975Y-95520342D01*
X191639657Y-95374024D01*
X191514092Y-95290125D01*
X191467598Y-95259059D01*
X191276420Y-95179870D01*
X191276412Y-95179868D01*
X191073469Y-95139500D01*
X191073465Y-95139500D01*
X190866535Y-95139500D01*
X190866530Y-95139500D01*
X190663587Y-95179868D01*
X190663579Y-95179870D01*
X190472403Y-95259058D01*
X190300342Y-95374024D01*
X190154024Y-95520342D01*
X190039058Y-95692403D01*
X189959870Y-95883579D01*
X189959868Y-95883587D01*
X189919500Y-96086530D01*
X179200500Y-96086530D01*
X179200500Y-96045772D01*
X179162849Y-95759783D01*
X179088191Y-95481155D01*
X179088186Y-95481145D01*
X179088185Y-95481139D01*
X178977808Y-95214663D01*
X178977800Y-95214647D01*
X178833579Y-94964851D01*
X178833575Y-94964844D01*
X178675455Y-94758778D01*
X178657975Y-94735997D01*
X178657969Y-94735990D01*
X178454009Y-94532030D01*
X178454002Y-94532024D01*
X178225164Y-94356431D01*
X178225162Y-94356429D01*
X178225156Y-94356425D01*
X178225151Y-94356422D01*
X178225148Y-94356420D01*
X177975352Y-94212199D01*
X177975336Y-94212191D01*
X177708860Y-94101814D01*
X177708848Y-94101810D01*
X177708845Y-94101809D01*
X177430217Y-94027151D01*
X177430211Y-94027150D01*
X177430206Y-94027149D01*
X177144238Y-93989501D01*
X177144233Y-93989500D01*
X177144228Y-93989500D01*
X176855772Y-93989500D01*
X176855766Y-93989500D01*
X176855761Y-93989501D01*
X176569793Y-94027149D01*
X176569786Y-94027150D01*
X176569783Y-94027151D01*
X176291155Y-94101809D01*
X176291139Y-94101814D01*
X176024663Y-94212191D01*
X176024647Y-94212199D01*
X175774851Y-94356420D01*
X175774835Y-94356431D01*
X175545997Y-94532024D01*
X175545990Y-94532030D01*
X175342030Y-94735990D01*
X175342024Y-94735997D01*
X175166431Y-94964835D01*
X175166420Y-94964851D01*
X175072515Y-95127500D01*
X175021948Y-95175716D01*
X174965128Y-95189500D01*
X174455782Y-95189500D01*
X174388743Y-95169815D01*
X174368101Y-95153181D01*
X172786818Y-93571898D01*
X172753333Y-93510575D01*
X172750499Y-93484217D01*
X172750499Y-92702129D01*
X172750498Y-92702123D01*
X172744091Y-92642516D01*
X172693797Y-92507671D01*
X172693793Y-92507664D01*
X172607547Y-92392455D01*
X172607544Y-92392452D01*
X172492335Y-92306206D01*
X172492328Y-92306202D01*
X172357482Y-92255908D01*
X172357483Y-92255908D01*
X172297883Y-92249501D01*
X172297881Y-92249500D01*
X172297873Y-92249500D01*
X172297864Y-92249500D01*
X170502129Y-92249500D01*
X170502123Y-92249501D01*
X170442516Y-92255908D01*
X170307671Y-92306202D01*
X170307664Y-92306206D01*
X170192455Y-92392452D01*
X170192452Y-92392455D01*
X170106206Y-92507664D01*
X170106203Y-92507669D01*
X170057189Y-92639083D01*
X170015317Y-92695016D01*
X169949853Y-92719433D01*
X169881580Y-92704581D01*
X169853326Y-92683430D01*
X169739786Y-92569890D01*
X169567820Y-92444951D01*
X169378414Y-92348444D01*
X169378413Y-92348443D01*
X169378412Y-92348443D01*
X169176243Y-92282754D01*
X169176241Y-92282753D01*
X169176240Y-92282753D01*
X169014957Y-92257208D01*
X168966287Y-92249500D01*
X168753713Y-92249500D01*
X168705042Y-92257208D01*
X168543760Y-92282753D01*
X168341585Y-92348444D01*
X168152179Y-92444951D01*
X167980213Y-92569890D01*
X167829892Y-92720211D01*
X167761573Y-92814247D01*
X167736770Y-92848385D01*
X167681442Y-92891051D01*
X167636453Y-92899500D01*
X163455580Y-92899500D01*
X163388541Y-92879815D01*
X163342786Y-92827011D01*
X163332842Y-92757853D01*
X163333107Y-92756102D01*
X163350500Y-92646286D01*
X163350500Y-92433713D01*
X163343965Y-92392452D01*
X163317246Y-92223757D01*
X163251557Y-92021588D01*
X163155051Y-91832184D01*
X163155049Y-91832181D01*
X163155048Y-91832179D01*
X163030109Y-91660213D01*
X162916569Y-91546673D01*
X162883084Y-91485350D01*
X162888068Y-91415658D01*
X162929940Y-91359725D01*
X162960915Y-91342810D01*
X163092331Y-91293796D01*
X163207546Y-91207546D01*
X163293796Y-91092331D01*
X163344091Y-90957483D01*
X163350500Y-90897873D01*
X163350500Y-90824500D01*
X163370185Y-90757461D01*
X163422989Y-90711706D01*
X163474500Y-90700500D01*
X164250981Y-90700500D01*
X164318020Y-90720185D01*
X164338662Y-90736819D01*
X164749784Y-91147941D01*
X164783269Y-91209264D01*
X164785041Y-91219435D01*
X164789956Y-91256762D01*
X164850464Y-91402841D01*
X164946718Y-91528282D01*
X165072159Y-91624536D01*
X165218238Y-91685044D01*
X165335639Y-91700500D01*
X165523504Y-91700499D01*
X165523506Y-91700500D01*
X165661494Y-91700500D01*
X165661497Y-91700499D01*
X165849360Y-91700499D01*
X165849362Y-91700499D01*
X165882903Y-91696083D01*
X165966762Y-91685044D01*
X165966771Y-91685040D01*
X165968879Y-91684476D01*
X165971076Y-91684476D01*
X165974821Y-91683983D01*
X165974886Y-91684476D01*
X166025183Y-91684476D01*
X166025312Y-91683495D01*
X166032763Y-91684476D01*
X166033072Y-91684476D01*
X166033370Y-91684555D01*
X166150676Y-91699999D01*
X166207499Y-91699998D01*
X166207500Y-91699998D01*
X166207500Y-91610426D01*
X166227185Y-91543387D01*
X166233854Y-91535130D01*
X166233334Y-91534731D01*
X166324701Y-91415658D01*
X166334536Y-91402841D01*
X166368939Y-91319785D01*
X166412780Y-91265381D01*
X166479074Y-91243316D01*
X166546773Y-91260595D01*
X166594384Y-91311732D01*
X166607500Y-91367237D01*
X166607500Y-91699999D01*
X166664324Y-91699999D01*
X166781628Y-91684557D01*
X166781633Y-91684555D01*
X166927585Y-91624100D01*
X167052924Y-91527924D01*
X167149100Y-91402586D01*
X167209555Y-91256631D01*
X167217012Y-91200000D01*
X166598049Y-91200000D01*
X166586010Y-91210432D01*
X166572677Y-91212348D01*
X166560854Y-91218805D01*
X166538767Y-91217224D01*
X166516852Y-91220376D01*
X166504599Y-91214780D01*
X166491163Y-91213819D01*
X166473437Y-91200549D01*
X166453296Y-91191351D01*
X166446013Y-91180018D01*
X166435230Y-91171946D01*
X166427492Y-91151200D01*
X166415522Y-91132573D01*
X166412369Y-91110650D01*
X166410815Y-91106481D01*
X166410499Y-91097661D01*
X166410499Y-90902360D01*
X166430184Y-90835322D01*
X166482988Y-90789567D01*
X166552146Y-90779623D01*
X166596765Y-90800000D01*
X167217010Y-90800000D01*
X167217011Y-90799998D01*
X167209557Y-90743372D01*
X167209555Y-90743366D01*
X167149100Y-90597414D01*
X167052924Y-90472075D01*
X166927586Y-90375899D01*
X166781634Y-90315445D01*
X166781630Y-90315444D01*
X166664330Y-90300000D01*
X166607500Y-90300000D01*
X166607500Y-90632762D01*
X166587815Y-90699801D01*
X166535011Y-90745556D01*
X166465853Y-90755500D01*
X166402297Y-90726475D01*
X166368939Y-90680215D01*
X166349283Y-90632762D01*
X166334536Y-90597159D01*
X166238282Y-90471718D01*
X166238279Y-90471716D01*
X166233334Y-90465271D01*
X166236075Y-90463167D01*
X166210272Y-90415643D01*
X166207500Y-90389573D01*
X166207500Y-90300000D01*
X166207499Y-90299999D01*
X166150676Y-90300000D01*
X166033371Y-90315442D01*
X166033069Y-90315524D01*
X166032541Y-90315552D01*
X166025311Y-90316504D01*
X166025237Y-90315942D01*
X166023089Y-90316057D01*
X166017131Y-90318692D01*
X165997691Y-90317416D01*
X165981840Y-90318264D01*
X165970455Y-90316485D01*
X165966762Y-90314956D01*
X165927936Y-90309844D01*
X165926486Y-90309618D01*
X165896164Y-90295322D01*
X165865540Y-90281775D01*
X165863556Y-90279949D01*
X165863287Y-90279823D01*
X165863109Y-90279538D01*
X165857941Y-90274784D01*
X165039046Y-89455888D01*
X165039045Y-89455887D01*
X164924307Y-89379222D01*
X164796832Y-89326421D01*
X164796822Y-89326418D01*
X164661496Y-89299500D01*
X164661494Y-89299500D01*
X164661493Y-89299500D01*
X163474499Y-89299500D01*
X163407460Y-89279815D01*
X163361705Y-89227011D01*
X163350499Y-89175500D01*
X163350499Y-89102129D01*
X163350498Y-89102123D01*
X163350497Y-89102116D01*
X163344091Y-89042517D01*
X163293796Y-88907669D01*
X163293795Y-88907668D01*
X163293793Y-88907664D01*
X163207547Y-88792455D01*
X163207544Y-88792452D01*
X163092335Y-88706206D01*
X163092328Y-88706202D01*
X162957482Y-88655908D01*
X162957483Y-88655908D01*
X162897883Y-88649501D01*
X162897881Y-88649500D01*
X162897873Y-88649500D01*
X162897864Y-88649500D01*
X161102129Y-88649500D01*
X161102123Y-88649501D01*
X161042516Y-88655908D01*
X160907671Y-88706202D01*
X160907664Y-88706206D01*
X160792455Y-88792452D01*
X160792452Y-88792455D01*
X160706206Y-88907664D01*
X160706202Y-88907671D01*
X160655908Y-89042517D01*
X160649501Y-89102116D01*
X160649501Y-89102123D01*
X160649500Y-89102135D01*
X160649500Y-90897870D01*
X160649501Y-90897876D01*
X160655908Y-90957483D01*
X160706202Y-91092328D01*
X160706206Y-91092335D01*
X160792452Y-91207544D01*
X160792455Y-91207547D01*
X160907664Y-91293793D01*
X160907671Y-91293797D01*
X161039082Y-91342810D01*
X161095016Y-91384681D01*
X161119433Y-91450145D01*
X161104582Y-91518418D01*
X161083431Y-91546673D01*
X160969889Y-91660215D01*
X160844951Y-91832179D01*
X160748444Y-92021585D01*
X160682753Y-92223760D01*
X160663005Y-92348444D01*
X160649500Y-92433713D01*
X160649500Y-92646287D01*
X160682754Y-92856243D01*
X160685291Y-92864052D01*
X160748444Y-93058414D01*
X160844951Y-93247820D01*
X160969890Y-93419786D01*
X161120211Y-93570107D01*
X161191200Y-93621682D01*
X161248385Y-93663229D01*
X161291051Y-93718558D01*
X161299500Y-93763547D01*
X161299500Y-95525500D01*
X161279815Y-95592539D01*
X161227011Y-95638294D01*
X161175502Y-95649500D01*
X161102130Y-95649500D01*
X161102123Y-95649501D01*
X161042516Y-95655908D01*
X160907671Y-95706202D01*
X160907664Y-95706206D01*
X160792455Y-95792452D01*
X160792452Y-95792455D01*
X160706206Y-95907664D01*
X160706202Y-95907671D01*
X160655908Y-96042517D01*
X160649501Y-96102116D01*
X160649500Y-96102135D01*
X160649500Y-96184111D01*
X160640557Y-96214566D01*
X160633255Y-96245470D01*
X160630782Y-96247856D01*
X160629815Y-96251150D01*
X160605832Y-96271931D01*
X160582976Y-96293986D01*
X160578596Y-96295530D01*
X160577011Y-96296905D01*
X160549692Y-96305728D01*
X160472591Y-96321065D01*
X160445671Y-96326420D01*
X160318190Y-96379224D01*
X160203454Y-96455887D01*
X158421160Y-98238181D01*
X158359837Y-98271666D01*
X158359005Y-98271844D01*
X158346376Y-98274500D01*
X158325596Y-98274501D01*
X158290844Y-98277235D01*
X158179226Y-98309662D01*
X158174628Y-98310630D01*
X158145710Y-98308362D01*
X158114506Y-98308362D01*
X158025000Y-98282357D01*
X158025000Y-98331724D01*
X158005315Y-98398763D01*
X157988681Y-98419405D01*
X157899289Y-98508796D01*
X157899282Y-98508805D01*
X157820445Y-98642112D01*
X157820443Y-98642117D01*
X157818076Y-98650266D01*
X157780470Y-98709152D01*
X157716998Y-98738358D01*
X157647811Y-98728612D01*
X157594876Y-98683008D01*
X157575001Y-98616025D01*
X157575000Y-98615671D01*
X157575000Y-98282357D01*
X157442316Y-98320906D01*
X157442315Y-98320907D01*
X157309114Y-98399682D01*
X157309105Y-98399688D01*
X157199688Y-98509105D01*
X157199682Y-98509113D01*
X157167412Y-98563678D01*
X157116342Y-98611360D01*
X157047600Y-98623863D01*
X157008703Y-98612940D01*
X157008691Y-98612970D01*
X157008445Y-98612868D01*
X157007661Y-98612648D01*
X157005881Y-98611806D01*
X156816612Y-98533408D01*
X156721874Y-98504670D01*
X156520964Y-98464706D01*
X156520952Y-98464704D01*
X156422426Y-98455000D01*
X156217574Y-98455000D01*
X156119047Y-98464704D01*
X156119035Y-98464706D01*
X155918125Y-98504670D01*
X155823387Y-98533408D01*
X155634127Y-98611802D01*
X155634120Y-98611805D01*
X155546814Y-98658470D01*
X155376470Y-98772290D01*
X155299944Y-98835094D01*
X155155094Y-98979944D01*
X155092290Y-99056470D01*
X154978470Y-99226814D01*
X154931805Y-99314120D01*
X154931802Y-99314127D01*
X154853408Y-99503387D01*
X154824670Y-99598125D01*
X154784706Y-99799035D01*
X154784704Y-99799047D01*
X154775000Y-99897573D01*
X152500500Y-99897573D01*
X152500500Y-95643677D01*
X157109873Y-95643677D01*
X157109873Y-95643678D01*
X157144858Y-95669096D01*
X157320164Y-95758418D01*
X157507294Y-95819221D01*
X157701618Y-95850000D01*
X157898382Y-95850000D01*
X158092705Y-95819221D01*
X158279835Y-95758418D01*
X158455143Y-95669095D01*
X158490125Y-95643678D01*
X158490126Y-95643678D01*
X157800001Y-94953553D01*
X157800000Y-94953553D01*
X157109873Y-95643677D01*
X152500500Y-95643677D01*
X152500500Y-94501617D01*
X156550000Y-94501617D01*
X156550000Y-94698382D01*
X156580778Y-94892705D01*
X156641581Y-95079835D01*
X156730905Y-95255145D01*
X156756319Y-95290125D01*
X156756320Y-95290125D01*
X157446446Y-94600000D01*
X157446446Y-94599999D01*
X157400369Y-94553922D01*
X157450000Y-94553922D01*
X157450000Y-94646078D01*
X157473852Y-94735095D01*
X157519930Y-94814905D01*
X157585095Y-94880070D01*
X157664905Y-94926148D01*
X157753922Y-94950000D01*
X157846078Y-94950000D01*
X157935095Y-94926148D01*
X158014905Y-94880070D01*
X158080070Y-94814905D01*
X158126148Y-94735095D01*
X158150000Y-94646078D01*
X158150000Y-94599999D01*
X158153553Y-94599999D01*
X158153553Y-94600000D01*
X158843678Y-95290126D01*
X158843678Y-95290125D01*
X158869095Y-95255143D01*
X158958418Y-95079835D01*
X159019221Y-94892705D01*
X159050000Y-94698382D01*
X159050000Y-94501617D01*
X159019221Y-94307294D01*
X158958418Y-94120164D01*
X158869096Y-93944858D01*
X158843678Y-93909873D01*
X158843677Y-93909873D01*
X158153553Y-94599999D01*
X158150000Y-94599999D01*
X158150000Y-94553922D01*
X158126148Y-94464905D01*
X158080070Y-94385095D01*
X158014905Y-94319930D01*
X157935095Y-94273852D01*
X157846078Y-94250000D01*
X157753922Y-94250000D01*
X157664905Y-94273852D01*
X157585095Y-94319930D01*
X157519930Y-94385095D01*
X157473852Y-94464905D01*
X157450000Y-94553922D01*
X157400369Y-94553922D01*
X156756320Y-93909872D01*
X156756320Y-93909873D01*
X156730902Y-93944859D01*
X156730899Y-93944863D01*
X156641582Y-94120161D01*
X156580778Y-94307294D01*
X156550000Y-94501617D01*
X152500500Y-94501617D01*
X152500500Y-93556320D01*
X157109872Y-93556320D01*
X157800000Y-94246446D01*
X157800001Y-94246446D01*
X158490125Y-93556320D01*
X158490125Y-93556319D01*
X158455145Y-93530905D01*
X158279835Y-93441581D01*
X158092705Y-93380778D01*
X157898382Y-93350000D01*
X157701618Y-93350000D01*
X157507294Y-93380778D01*
X157320161Y-93441582D01*
X157144863Y-93530899D01*
X157144859Y-93530902D01*
X157109873Y-93556320D01*
X157109872Y-93556320D01*
X152500500Y-93556320D01*
X152500500Y-84324000D01*
X152520185Y-84256961D01*
X152572989Y-84211206D01*
X152624500Y-84200000D01*
X154053577Y-84200000D01*
X154101028Y-84209438D01*
G37*
%TD.AperFunction*%
%TD*%
M02*
