%TF.GenerationSoftware,KiCad,Pcbnew,9.0.0*%
%TF.CreationDate,2025-03-06T01:46:26+08:00*%
%TF.ProjectId,HighDRMic_EVB,48696768-4452-44d6-9963-5f4556422e6b,rev?*%
%TF.SameCoordinates,Original*%
%TF.FileFunction,Copper,L2,Bot*%
%TF.FilePolarity,Positive*%
%FSLAX46Y46*%
G04 Gerber Fmt 4.6, Leading zero omitted, Abs format (unit mm)*
G04 Created by KiCad (PCBNEW 9.0.0) date 2025-03-06 01:46:26*
%MOMM*%
%LPD*%
G01*
G04 APERTURE LIST*
%TA.AperFunction,ComponentPad*%
%ADD10R,1.700000X1.700000*%
%TD*%
%TA.AperFunction,ComponentPad*%
%ADD11O,1.700000X1.700000*%
%TD*%
%TA.AperFunction,ComponentPad*%
%ADD12C,3.400000*%
%TD*%
%TA.AperFunction,ComponentPad*%
%ADD13C,2.900000*%
%TD*%
%TA.AperFunction,ComponentPad*%
%ADD14C,1.500000*%
%TD*%
%TA.AperFunction,Conductor*%
%ADD15C,1.000000*%
%TD*%
G04 APERTURE END LIST*
D10*
%TO.P,J9,1,Pin_1*%
%TO.N,Net-(J9-Pin_1)*%
X172940000Y-113800000D03*
D11*
%TO.P,J9,2,Pin_2*%
%TO.N,GND*%
X170400000Y-113800000D03*
%TD*%
D12*
%TO.P,XLR1,1*%
%TO.N,Net-(J8-Pin_1)*%
X177000000Y-103810000D03*
%TO.P,XLR1,2*%
%TO.N,Net-(J6-Pin_1)*%
X177000000Y-96190000D03*
D13*
%TO.P,XLR1,3*%
%TO.N,Net-(J7-Pin_1)*%
X177000000Y-100000000D03*
%TO.P,XLR1,G*%
%TO.N,Net-(J9-Pin_1)*%
X182080000Y-100000000D03*
%TD*%
D10*
%TO.P,J7,1,Pin_1*%
%TO.N,Net-(J7-Pin_1)*%
X171400000Y-106400000D03*
D11*
%TO.P,J7,2,Pin_2*%
%TO.N,Net-(J2-Pin_2)*%
X168860000Y-106400000D03*
%TD*%
D10*
%TO.P,J11,1,Pin_1*%
%TO.N,GND*%
X157800000Y-114200000D03*
D11*
%TO.P,J11,2,Pin_2*%
%TO.N,VDD*%
X157800000Y-111660000D03*
%TD*%
D10*
%TO.P,J6,1,Pin_1*%
%TO.N,Net-(J6-Pin_1)*%
X171400000Y-93600000D03*
D11*
%TO.P,J6,2,Pin_2*%
%TO.N,Net-(J3-Pin_2)*%
X168860000Y-93600000D03*
%TD*%
D10*
%TO.P,J2,1,Pin_1*%
%TO.N,Net-(J2-Pin_1)*%
X162000000Y-110000000D03*
D11*
%TO.P,J2,2,Pin_2*%
%TO.N,Net-(J2-Pin_2)*%
X162000000Y-107460000D03*
%TD*%
D10*
%TO.P,J4,1,Pin_1*%
%TO.N,Net-(J2-Pin_2)*%
X162000000Y-103000000D03*
D11*
%TO.P,J4,2,Pin_2*%
%TO.N,Net-(J4-Pin_2)*%
X164540000Y-103000000D03*
%TD*%
D14*
%TO.P,TP1,1,1*%
%TO.N,GND*%
X157800000Y-94600000D03*
%TD*%
D10*
%TO.P,J10,1,Pin_1*%
%TO.N,GND*%
X164200000Y-113800000D03*
D11*
%TO.P,J10,2,Pin_2*%
X166740000Y-113800000D03*
%TD*%
D10*
%TO.P,J5,1,Pin_1*%
%TO.N,Net-(J3-Pin_2)*%
X162000000Y-97000000D03*
D11*
%TO.P,J5,2,Pin_2*%
%TO.N,Net-(J5-Pin_2)*%
X164540000Y-97000000D03*
%TD*%
D10*
%TO.P,J3,1,Pin_1*%
%TO.N,Net-(J3-Pin_1)*%
X162000000Y-90000000D03*
D11*
%TO.P,J3,2,Pin_2*%
%TO.N,Net-(J3-Pin_2)*%
X162000000Y-92540000D03*
%TD*%
D10*
%TO.P,J8,1,Pin_1*%
%TO.N,Net-(J8-Pin_1)*%
X171400000Y-100000000D03*
D11*
%TO.P,J8,2,Pin_2*%
%TO.N,GND*%
X168860000Y-100000000D03*
%TD*%
D10*
%TO.P,J1,1,Pin_1*%
%TO.N,VDD*%
X157800000Y-108000000D03*
D11*
%TO.P,J1,2,Pin_2*%
%TO.N,Net-(J1-Pin_2)*%
X157800000Y-105460000D03*
%TD*%
D15*
%TO.N,Net-(J8-Pin_1)*%
X177000000Y-103810000D02*
X175210000Y-103810000D01*
X175210000Y-103810000D02*
X171400000Y-100000000D01*
%TO.N,Net-(J9-Pin_1)*%
X182080000Y-100000000D02*
X182080000Y-104660000D01*
X182080000Y-104660000D02*
X172940000Y-113800000D01*
%TD*%
%TA.AperFunction,Conductor*%
%TO.N,GND*%
G36*
X166274075Y-113607007D02*
G01*
X166240000Y-113734174D01*
X166240000Y-113865826D01*
X166274075Y-113992993D01*
X166306988Y-114050000D01*
X164633012Y-114050000D01*
X164665925Y-113992993D01*
X164700000Y-113865826D01*
X164700000Y-113734174D01*
X164665925Y-113607007D01*
X164633012Y-113550000D01*
X166306988Y-113550000D01*
X166274075Y-113607007D01*
G37*
%TD.AperFunction*%
%TA.AperFunction,Conductor*%
G36*
X154101028Y-84209438D02*
G01*
X154291155Y-84288191D01*
X154569783Y-84362849D01*
X154855772Y-84400500D01*
X154855779Y-84400500D01*
X155144221Y-84400500D01*
X155144228Y-84400500D01*
X155430217Y-84362849D01*
X155708845Y-84288191D01*
X155898971Y-84209438D01*
X155946423Y-84200000D01*
X194053577Y-84200000D01*
X194101028Y-84209438D01*
X194291155Y-84288191D01*
X194569783Y-84362849D01*
X194855772Y-84400500D01*
X194855779Y-84400500D01*
X195144221Y-84400500D01*
X195144228Y-84400500D01*
X195430217Y-84362849D01*
X195708845Y-84288191D01*
X195898971Y-84209438D01*
X195946423Y-84200000D01*
X197375500Y-84200000D01*
X197442539Y-84219685D01*
X197488294Y-84272489D01*
X197499500Y-84324000D01*
X197499500Y-115676000D01*
X197479815Y-115743039D01*
X197427011Y-115788794D01*
X197375500Y-115800000D01*
X195946423Y-115800000D01*
X195898971Y-115790561D01*
X195784242Y-115743039D01*
X195708854Y-115711812D01*
X195708847Y-115711810D01*
X195708845Y-115711809D01*
X195430217Y-115637151D01*
X195430211Y-115637150D01*
X195430206Y-115637149D01*
X195144238Y-115599501D01*
X195144233Y-115599500D01*
X195144228Y-115599500D01*
X194855772Y-115599500D01*
X194855766Y-115599500D01*
X194855761Y-115599501D01*
X194569793Y-115637149D01*
X194569786Y-115637150D01*
X194569783Y-115637151D01*
X194291155Y-115711809D01*
X194291145Y-115711812D01*
X194140452Y-115774231D01*
X194101028Y-115790561D01*
X194053577Y-115800000D01*
X155946423Y-115800000D01*
X155898971Y-115790561D01*
X155784242Y-115743039D01*
X155708854Y-115711812D01*
X155708847Y-115711810D01*
X155708845Y-115711809D01*
X155430217Y-115637151D01*
X155430211Y-115637150D01*
X155430206Y-115637149D01*
X155144238Y-115599501D01*
X155144233Y-115599500D01*
X155144228Y-115599500D01*
X154855772Y-115599500D01*
X154855766Y-115599500D01*
X154855761Y-115599501D01*
X154569793Y-115637149D01*
X154569786Y-115637150D01*
X154569783Y-115637151D01*
X154291155Y-115711809D01*
X154291145Y-115711812D01*
X154140452Y-115774231D01*
X154101028Y-115790561D01*
X154053577Y-115800000D01*
X152624500Y-115800000D01*
X152557461Y-115780315D01*
X152511706Y-115727511D01*
X152500500Y-115676000D01*
X152500500Y-111553713D01*
X156449500Y-111553713D01*
X156449500Y-111766286D01*
X156482753Y-111976239D01*
X156548444Y-112178414D01*
X156644951Y-112367820D01*
X156769890Y-112539786D01*
X156883818Y-112653714D01*
X156917303Y-112715037D01*
X156912319Y-112784729D01*
X156870447Y-112840662D01*
X156839471Y-112857577D01*
X156707912Y-112906646D01*
X156707906Y-112906649D01*
X156592812Y-112992809D01*
X156592809Y-112992812D01*
X156506649Y-113107906D01*
X156506645Y-113107913D01*
X156456403Y-113242620D01*
X156456401Y-113242627D01*
X156450000Y-113302155D01*
X156450000Y-113950000D01*
X157366988Y-113950000D01*
X157334075Y-114007007D01*
X157300000Y-114134174D01*
X157300000Y-114265826D01*
X157334075Y-114392993D01*
X157366988Y-114450000D01*
X156450000Y-114450000D01*
X156450000Y-115097844D01*
X156456401Y-115157372D01*
X156456403Y-115157379D01*
X156506645Y-115292086D01*
X156506649Y-115292093D01*
X156592809Y-115407187D01*
X156592812Y-115407190D01*
X156707906Y-115493350D01*
X156707913Y-115493354D01*
X156842620Y-115543596D01*
X156842627Y-115543598D01*
X156902155Y-115549999D01*
X156902172Y-115550000D01*
X157550000Y-115550000D01*
X157550000Y-114633012D01*
X157607007Y-114665925D01*
X157734174Y-114700000D01*
X157865826Y-114700000D01*
X157992993Y-114665925D01*
X158050000Y-114633012D01*
X158050000Y-115550000D01*
X158697828Y-115550000D01*
X158697844Y-115549999D01*
X158757372Y-115543598D01*
X158757379Y-115543596D01*
X158892086Y-115493354D01*
X158892093Y-115493350D01*
X159007187Y-115407190D01*
X159007190Y-115407187D01*
X159093350Y-115292093D01*
X159093354Y-115292086D01*
X159143596Y-115157379D01*
X159143598Y-115157372D01*
X159149999Y-115097844D01*
X159150000Y-115097827D01*
X159150000Y-114450000D01*
X158233012Y-114450000D01*
X158265925Y-114392993D01*
X158300000Y-114265826D01*
X158300000Y-114134174D01*
X158265925Y-114007007D01*
X158233012Y-113950000D01*
X159150000Y-113950000D01*
X159150000Y-113302172D01*
X159149999Y-113302155D01*
X159143598Y-113242627D01*
X159143596Y-113242620D01*
X159093354Y-113107913D01*
X159093350Y-113107906D01*
X159007190Y-112992813D01*
X158892089Y-112906647D01*
X158892088Y-112906646D01*
X158880047Y-112902155D01*
X162850000Y-112902155D01*
X162850000Y-113550000D01*
X163766988Y-113550000D01*
X163734075Y-113607007D01*
X163700000Y-113734174D01*
X163700000Y-113865826D01*
X163734075Y-113992993D01*
X163766988Y-114050000D01*
X162850000Y-114050000D01*
X162850000Y-114697844D01*
X162856401Y-114757372D01*
X162856403Y-114757379D01*
X162906645Y-114892086D01*
X162906649Y-114892093D01*
X162992809Y-115007187D01*
X162992812Y-115007190D01*
X163107906Y-115093350D01*
X163107913Y-115093354D01*
X163242620Y-115143596D01*
X163242627Y-115143598D01*
X163302155Y-115149999D01*
X163302172Y-115150000D01*
X163950000Y-115150000D01*
X163950000Y-114233012D01*
X164007007Y-114265925D01*
X164134174Y-114300000D01*
X164265826Y-114300000D01*
X164392993Y-114265925D01*
X164450000Y-114233012D01*
X164450000Y-115150000D01*
X165097828Y-115150000D01*
X165097844Y-115149999D01*
X165157372Y-115143598D01*
X165157379Y-115143596D01*
X165292086Y-115093354D01*
X165292093Y-115093350D01*
X165407187Y-115007190D01*
X165407190Y-115007187D01*
X165493350Y-114892093D01*
X165493354Y-114892086D01*
X165542614Y-114760013D01*
X165584485Y-114704079D01*
X165649949Y-114679662D01*
X165718222Y-114694513D01*
X165746477Y-114715665D01*
X165860535Y-114829723D01*
X165860540Y-114829727D01*
X166032442Y-114954620D01*
X166221782Y-115051095D01*
X166423871Y-115116757D01*
X166490000Y-115127231D01*
X166490000Y-114233012D01*
X166547007Y-114265925D01*
X166674174Y-114300000D01*
X166805826Y-114300000D01*
X166932993Y-114265925D01*
X166990000Y-114233012D01*
X166990000Y-115127230D01*
X167056126Y-115116757D01*
X167056129Y-115116757D01*
X167258217Y-115051095D01*
X167447557Y-114954620D01*
X167619459Y-114829727D01*
X167619464Y-114829723D01*
X167769723Y-114679464D01*
X167769727Y-114679459D01*
X167894620Y-114507557D01*
X167991095Y-114318217D01*
X168056757Y-114116129D01*
X168056757Y-114116126D01*
X168067231Y-114050000D01*
X167173012Y-114050000D01*
X167205925Y-113992993D01*
X167240000Y-113865826D01*
X167240000Y-113734174D01*
X167205925Y-113607007D01*
X167173012Y-113550000D01*
X168067231Y-113550000D01*
X169072769Y-113550000D01*
X169966988Y-113550000D01*
X169934075Y-113607007D01*
X169900000Y-113734174D01*
X169900000Y-113865826D01*
X169934075Y-113992993D01*
X169966988Y-114050000D01*
X169072769Y-114050000D01*
X169083242Y-114116126D01*
X169083242Y-114116129D01*
X169148904Y-114318217D01*
X169245379Y-114507557D01*
X169370272Y-114679459D01*
X169370276Y-114679464D01*
X169520535Y-114829723D01*
X169520540Y-114829727D01*
X169692442Y-114954620D01*
X169881782Y-115051095D01*
X170083871Y-115116757D01*
X170150000Y-115127231D01*
X170150000Y-114233012D01*
X170207007Y-114265925D01*
X170334174Y-114300000D01*
X170465826Y-114300000D01*
X170592993Y-114265925D01*
X170650000Y-114233012D01*
X170650000Y-115127230D01*
X170716126Y-115116757D01*
X170716129Y-115116757D01*
X170918217Y-115051095D01*
X171107557Y-114954620D01*
X171279458Y-114829728D01*
X171393133Y-114716053D01*
X171454456Y-114682568D01*
X171524148Y-114687552D01*
X171580082Y-114729423D01*
X171596997Y-114760401D01*
X171646202Y-114892328D01*
X171646206Y-114892335D01*
X171732452Y-115007544D01*
X171732455Y-115007547D01*
X171847664Y-115093793D01*
X171847671Y-115093797D01*
X171982517Y-115144091D01*
X171982516Y-115144091D01*
X171989444Y-115144835D01*
X172042127Y-115150500D01*
X173837872Y-115150499D01*
X173897483Y-115144091D01*
X174032331Y-115093796D01*
X174147546Y-115007546D01*
X174233796Y-114892331D01*
X174284091Y-114757483D01*
X174290500Y-114697873D01*
X174290499Y-113915780D01*
X174310183Y-113848742D01*
X174326813Y-113828105D01*
X182717778Y-105437141D01*
X182717782Y-105437139D01*
X182857139Y-105297782D01*
X182966632Y-105133914D01*
X183042051Y-104951835D01*
X183075167Y-104785352D01*
X183080500Y-104758543D01*
X183080500Y-103706530D01*
X184839500Y-103706530D01*
X184839500Y-103913469D01*
X184879868Y-104116412D01*
X184879870Y-104116420D01*
X184959058Y-104307596D01*
X185074024Y-104479657D01*
X185220342Y-104625975D01*
X185220345Y-104625977D01*
X185392402Y-104740941D01*
X185583580Y-104820130D01*
X185695344Y-104842361D01*
X185786530Y-104860499D01*
X185786534Y-104860500D01*
X185786535Y-104860500D01*
X185993466Y-104860500D01*
X185993467Y-104860499D01*
X186196420Y-104820130D01*
X186387598Y-104740941D01*
X186559655Y-104625977D01*
X186705977Y-104479655D01*
X186820941Y-104307598D01*
X186900130Y-104116420D01*
X186940500Y-103913465D01*
X186940500Y-103706535D01*
X186900130Y-103503580D01*
X186820941Y-103312402D01*
X186705977Y-103140345D01*
X186705975Y-103140342D01*
X186559657Y-102994024D01*
X186409529Y-102893713D01*
X186387598Y-102879059D01*
X186196420Y-102799870D01*
X186196412Y-102799868D01*
X185993469Y-102759500D01*
X185993465Y-102759500D01*
X185786535Y-102759500D01*
X185786530Y-102759500D01*
X185583587Y-102799868D01*
X185583579Y-102799870D01*
X185392403Y-102879058D01*
X185220342Y-102994024D01*
X185074024Y-103140342D01*
X184959058Y-103312403D01*
X184879870Y-103503579D01*
X184879868Y-103503587D01*
X184839500Y-103706530D01*
X183080500Y-103706530D01*
X183080500Y-101746195D01*
X183100185Y-101679156D01*
X183142501Y-101638807D01*
X183165965Y-101625261D01*
X183368813Y-101469610D01*
X183549610Y-101288813D01*
X183705261Y-101085965D01*
X183833104Y-100864535D01*
X183930950Y-100628313D01*
X183997126Y-100381340D01*
X184030500Y-100127843D01*
X184030500Y-99872157D01*
X183997126Y-99618660D01*
X183930950Y-99371687D01*
X183833104Y-99135465D01*
X183833102Y-99135462D01*
X183833100Y-99135457D01*
X183705265Y-98914042D01*
X183705261Y-98914035D01*
X183611969Y-98792455D01*
X183549611Y-98711188D01*
X183549605Y-98711181D01*
X183368818Y-98530394D01*
X183368811Y-98530388D01*
X183165973Y-98374745D01*
X183165971Y-98374743D01*
X183165965Y-98374739D01*
X183165958Y-98374735D01*
X183165957Y-98374734D01*
X182944542Y-98246899D01*
X182944531Y-98246894D01*
X182708322Y-98149053D01*
X182708315Y-98149051D01*
X182708313Y-98149050D01*
X182461340Y-98082874D01*
X182405007Y-98075457D01*
X182207850Y-98049500D01*
X182207843Y-98049500D01*
X181952157Y-98049500D01*
X181952149Y-98049500D01*
X181726826Y-98079165D01*
X181698660Y-98082874D01*
X181515502Y-98131951D01*
X181451687Y-98149050D01*
X181451677Y-98149053D01*
X181215468Y-98246894D01*
X181215457Y-98246899D01*
X180994042Y-98374734D01*
X180994026Y-98374745D01*
X180791188Y-98530388D01*
X180791181Y-98530394D01*
X180610394Y-98711181D01*
X180610388Y-98711188D01*
X180454745Y-98914026D01*
X180454734Y-98914042D01*
X180326899Y-99135457D01*
X180326894Y-99135468D01*
X180229053Y-99371677D01*
X180229050Y-99371687D01*
X180167901Y-99599901D01*
X180162874Y-99618661D01*
X180129500Y-99872149D01*
X180129500Y-100127850D01*
X180153088Y-100307007D01*
X180162874Y-100381340D01*
X180228297Y-100625501D01*
X180229050Y-100628312D01*
X180229053Y-100628322D01*
X180326894Y-100864531D01*
X180326899Y-100864542D01*
X180454734Y-101085957D01*
X180454745Y-101085973D01*
X180610388Y-101288811D01*
X180610394Y-101288818D01*
X180791181Y-101469605D01*
X180791188Y-101469611D01*
X180994033Y-101625260D01*
X180994035Y-101625261D01*
X181017498Y-101638807D01*
X181065714Y-101689372D01*
X181079500Y-101746195D01*
X181079500Y-104194217D01*
X181059815Y-104261256D01*
X181043181Y-104281898D01*
X172911897Y-112413181D01*
X172850574Y-112446666D01*
X172824216Y-112449500D01*
X172042129Y-112449500D01*
X172042123Y-112449501D01*
X171982516Y-112455908D01*
X171847671Y-112506202D01*
X171847664Y-112506206D01*
X171732455Y-112592452D01*
X171732452Y-112592455D01*
X171646206Y-112707664D01*
X171646202Y-112707671D01*
X171596997Y-112839598D01*
X171555126Y-112895532D01*
X171489661Y-112919949D01*
X171421388Y-112905097D01*
X171393134Y-112883946D01*
X171279464Y-112770276D01*
X171279459Y-112770272D01*
X171107557Y-112645379D01*
X170918215Y-112548903D01*
X170716124Y-112483241D01*
X170650000Y-112472768D01*
X170650000Y-113366988D01*
X170592993Y-113334075D01*
X170465826Y-113300000D01*
X170334174Y-113300000D01*
X170207007Y-113334075D01*
X170150000Y-113366988D01*
X170150000Y-112472768D01*
X170149999Y-112472768D01*
X170083875Y-112483241D01*
X169881784Y-112548903D01*
X169692442Y-112645379D01*
X169520540Y-112770272D01*
X169520535Y-112770276D01*
X169370276Y-112920535D01*
X169370272Y-112920540D01*
X169245379Y-113092442D01*
X169148904Y-113281782D01*
X169083242Y-113483870D01*
X169083242Y-113483873D01*
X169072769Y-113550000D01*
X168067231Y-113550000D01*
X168056757Y-113483873D01*
X168056757Y-113483870D01*
X167991095Y-113281782D01*
X167894620Y-113092442D01*
X167769727Y-112920540D01*
X167769723Y-112920535D01*
X167619464Y-112770276D01*
X167619459Y-112770272D01*
X167447557Y-112645379D01*
X167258215Y-112548903D01*
X167056124Y-112483241D01*
X166990000Y-112472768D01*
X166990000Y-113366988D01*
X166932993Y-113334075D01*
X166805826Y-113300000D01*
X166674174Y-113300000D01*
X166547007Y-113334075D01*
X166490000Y-113366988D01*
X166490000Y-112472768D01*
X166489999Y-112472768D01*
X166423875Y-112483241D01*
X166221784Y-112548903D01*
X166032442Y-112645379D01*
X165860541Y-112770271D01*
X165746477Y-112884335D01*
X165685154Y-112917819D01*
X165615462Y-112912835D01*
X165559529Y-112870963D01*
X165542614Y-112839986D01*
X165493354Y-112707913D01*
X165493350Y-112707906D01*
X165407190Y-112592812D01*
X165407187Y-112592809D01*
X165292093Y-112506649D01*
X165292086Y-112506645D01*
X165157379Y-112456403D01*
X165157372Y-112456401D01*
X165097844Y-112450000D01*
X164450000Y-112450000D01*
X164450000Y-113366988D01*
X164392993Y-113334075D01*
X164265826Y-113300000D01*
X164134174Y-113300000D01*
X164007007Y-113334075D01*
X163950000Y-113366988D01*
X163950000Y-112450000D01*
X163302155Y-112450000D01*
X163242627Y-112456401D01*
X163242620Y-112456403D01*
X163107913Y-112506645D01*
X163107906Y-112506649D01*
X162992812Y-112592809D01*
X162992809Y-112592812D01*
X162906649Y-112707906D01*
X162906645Y-112707913D01*
X162856403Y-112842620D01*
X162856401Y-112842627D01*
X162850000Y-112902155D01*
X158880047Y-112902155D01*
X158760528Y-112857577D01*
X158704595Y-112815705D01*
X158680178Y-112750241D01*
X158695030Y-112681968D01*
X158716175Y-112653720D01*
X158830104Y-112539792D01*
X158854506Y-112506206D01*
X158955048Y-112367820D01*
X158955047Y-112367820D01*
X158955051Y-112367816D01*
X159051557Y-112178412D01*
X159117246Y-111976243D01*
X159150500Y-111766287D01*
X159150500Y-111553713D01*
X159117246Y-111343757D01*
X159051557Y-111141588D01*
X158955051Y-110952184D01*
X158955049Y-110952181D01*
X158955048Y-110952179D01*
X158830109Y-110780213D01*
X158679786Y-110629890D01*
X158507820Y-110504951D01*
X158318414Y-110408444D01*
X158318413Y-110408443D01*
X158318412Y-110408443D01*
X158116243Y-110342754D01*
X158116241Y-110342753D01*
X158116240Y-110342753D01*
X157954957Y-110317208D01*
X157906287Y-110309500D01*
X157693713Y-110309500D01*
X157645042Y-110317208D01*
X157483760Y-110342753D01*
X157281585Y-110408444D01*
X157092179Y-110504951D01*
X156920213Y-110629890D01*
X156769890Y-110780213D01*
X156644951Y-110952179D01*
X156548444Y-111141585D01*
X156548443Y-111141587D01*
X156548443Y-111141588D01*
X156527012Y-111207546D01*
X156482753Y-111343760D01*
X156449500Y-111553713D01*
X152500500Y-111553713D01*
X152500500Y-105353713D01*
X156449500Y-105353713D01*
X156449500Y-105566286D01*
X156480148Y-105759794D01*
X156482754Y-105776243D01*
X156546635Y-105972849D01*
X156548444Y-105978414D01*
X156644951Y-106167820D01*
X156769890Y-106339786D01*
X156883430Y-106453326D01*
X156916915Y-106514649D01*
X156911931Y-106584341D01*
X156870059Y-106640274D01*
X156839083Y-106657189D01*
X156707669Y-106706203D01*
X156707664Y-106706206D01*
X156592455Y-106792452D01*
X156592452Y-106792455D01*
X156506206Y-106907664D01*
X156506202Y-106907671D01*
X156455908Y-107042517D01*
X156449501Y-107102116D01*
X156449501Y-107102123D01*
X156449500Y-107102135D01*
X156449500Y-108897870D01*
X156449501Y-108897876D01*
X156455908Y-108957483D01*
X156506202Y-109092328D01*
X156506206Y-109092335D01*
X156592452Y-109207544D01*
X156592455Y-109207547D01*
X156707664Y-109293793D01*
X156707671Y-109293797D01*
X156842517Y-109344091D01*
X156842516Y-109344091D01*
X156849444Y-109344835D01*
X156902127Y-109350500D01*
X158697872Y-109350499D01*
X158757483Y-109344091D01*
X158892331Y-109293796D01*
X159007546Y-109207546D01*
X159093796Y-109092331D01*
X159144091Y-108957483D01*
X159150500Y-108897873D01*
X159150499Y-107353713D01*
X160649500Y-107353713D01*
X160649500Y-107566286D01*
X160682753Y-107776239D01*
X160748444Y-107978414D01*
X160844951Y-108167820D01*
X160969890Y-108339786D01*
X161083430Y-108453326D01*
X161116915Y-108514649D01*
X161111931Y-108584341D01*
X161070059Y-108640274D01*
X161039083Y-108657189D01*
X160907669Y-108706203D01*
X160907664Y-108706206D01*
X160792455Y-108792452D01*
X160792452Y-108792455D01*
X160706206Y-108907664D01*
X160706202Y-108907671D01*
X160655908Y-109042517D01*
X160649501Y-109102116D01*
X160649501Y-109102123D01*
X160649500Y-109102135D01*
X160649500Y-110897870D01*
X160649501Y-110897876D01*
X160655908Y-110957483D01*
X160706202Y-111092328D01*
X160706206Y-111092335D01*
X160792452Y-111207544D01*
X160792455Y-111207547D01*
X160907664Y-111293793D01*
X160907671Y-111293797D01*
X161042517Y-111344091D01*
X161042516Y-111344091D01*
X161049444Y-111344835D01*
X161102127Y-111350500D01*
X162897872Y-111350499D01*
X162957483Y-111344091D01*
X163092331Y-111293796D01*
X163207546Y-111207546D01*
X163293796Y-111092331D01*
X163344091Y-110957483D01*
X163350500Y-110897873D01*
X163350499Y-109102128D01*
X163344091Y-109042517D01*
X163312375Y-108957483D01*
X163293797Y-108907671D01*
X163293793Y-108907664D01*
X163207547Y-108792455D01*
X163207544Y-108792452D01*
X163092335Y-108706206D01*
X163092328Y-108706202D01*
X162960917Y-108657189D01*
X162904983Y-108615318D01*
X162880566Y-108549853D01*
X162895418Y-108481580D01*
X162916563Y-108453332D01*
X163030104Y-108339792D01*
X163155051Y-108167816D01*
X163251557Y-107978412D01*
X163317246Y-107776243D01*
X163350500Y-107566287D01*
X163350500Y-107353713D01*
X163317246Y-107143757D01*
X163251557Y-106941588D01*
X163155051Y-106752184D01*
X163155049Y-106752181D01*
X163155048Y-106752179D01*
X163030109Y-106580213D01*
X162879792Y-106429896D01*
X162823723Y-106389160D01*
X162823721Y-106389157D01*
X162707819Y-106304951D01*
X162707818Y-106304950D01*
X162707816Y-106304949D01*
X162685764Y-106293713D01*
X167509500Y-106293713D01*
X167509500Y-106506287D01*
X167516400Y-106549853D01*
X167541163Y-106706203D01*
X167542754Y-106716243D01*
X167604952Y-106907669D01*
X167608444Y-106918414D01*
X167704951Y-107107820D01*
X167829890Y-107279786D01*
X167980213Y-107430109D01*
X168152179Y-107555048D01*
X168152181Y-107555049D01*
X168152184Y-107555051D01*
X168341588Y-107651557D01*
X168543757Y-107717246D01*
X168753713Y-107750500D01*
X168753714Y-107750500D01*
X168966286Y-107750500D01*
X168966287Y-107750500D01*
X169176243Y-107717246D01*
X169378412Y-107651557D01*
X169567816Y-107555051D01*
X169739792Y-107430104D01*
X169853329Y-107316566D01*
X169914648Y-107283084D01*
X169984340Y-107288068D01*
X170040274Y-107329939D01*
X170057189Y-107360917D01*
X170106202Y-107492328D01*
X170106206Y-107492335D01*
X170192452Y-107607544D01*
X170192455Y-107607547D01*
X170307664Y-107693793D01*
X170307671Y-107693797D01*
X170442517Y-107744091D01*
X170442516Y-107744091D01*
X170449444Y-107744835D01*
X170502127Y-107750500D01*
X172297872Y-107750499D01*
X172357483Y-107744091D01*
X172492331Y-107693796D01*
X172607546Y-107607546D01*
X172693796Y-107492331D01*
X172744091Y-107357483D01*
X172750500Y-107297873D01*
X172750499Y-105502128D01*
X172744091Y-105442517D01*
X172742810Y-105439083D01*
X172693797Y-105307671D01*
X172693793Y-105307664D01*
X172607547Y-105192455D01*
X172607544Y-105192452D01*
X172492335Y-105106206D01*
X172492328Y-105106202D01*
X172357482Y-105055908D01*
X172357483Y-105055908D01*
X172297883Y-105049501D01*
X172297881Y-105049500D01*
X172297873Y-105049500D01*
X172297864Y-105049500D01*
X170502129Y-105049500D01*
X170502123Y-105049501D01*
X170442516Y-105055908D01*
X170307671Y-105106202D01*
X170307664Y-105106206D01*
X170192455Y-105192452D01*
X170192452Y-105192455D01*
X170106206Y-105307664D01*
X170106203Y-105307669D01*
X170057189Y-105439083D01*
X170015317Y-105495016D01*
X169949853Y-105519433D01*
X169881580Y-105504581D01*
X169853326Y-105483430D01*
X169739786Y-105369890D01*
X169567820Y-105244951D01*
X169378414Y-105148444D01*
X169378413Y-105148443D01*
X169378412Y-105148443D01*
X169176243Y-105082754D01*
X169176241Y-105082753D01*
X169176240Y-105082753D01*
X169014957Y-105057208D01*
X168966287Y-105049500D01*
X168753713Y-105049500D01*
X168705042Y-105057208D01*
X168543760Y-105082753D01*
X168341585Y-105148444D01*
X168152179Y-105244951D01*
X167980213Y-105369890D01*
X167829890Y-105520213D01*
X167704951Y-105692179D01*
X167608444Y-105881585D01*
X167542753Y-106083760D01*
X167523005Y-106208444D01*
X167509500Y-106293713D01*
X162685764Y-106293713D01*
X162518412Y-106208443D01*
X162316243Y-106142754D01*
X162316241Y-106142753D01*
X162316240Y-106142753D01*
X162154957Y-106117208D01*
X162106287Y-106109500D01*
X161893713Y-106109500D01*
X161845042Y-106117208D01*
X161683760Y-106142753D01*
X161481585Y-106208444D01*
X161292179Y-106304951D01*
X161120213Y-106429890D01*
X160969890Y-106580213D01*
X160844951Y-106752179D01*
X160748444Y-106941585D01*
X160682753Y-107143760D01*
X160649500Y-107353713D01*
X159150499Y-107353713D01*
X159150499Y-107102128D01*
X159144091Y-107042517D01*
X159143228Y-107040204D01*
X159093797Y-106907671D01*
X159093793Y-106907664D01*
X159007547Y-106792455D01*
X159007544Y-106792452D01*
X158892335Y-106706206D01*
X158892328Y-106706202D01*
X158760917Y-106657189D01*
X158704983Y-106615318D01*
X158680566Y-106549853D01*
X158695418Y-106481580D01*
X158716563Y-106453332D01*
X158830104Y-106339792D01*
X158955051Y-106167816D01*
X159051557Y-105978412D01*
X159117246Y-105776243D01*
X159150500Y-105566287D01*
X159150500Y-105353713D01*
X159117246Y-105143757D01*
X159051557Y-104941588D01*
X158955051Y-104752184D01*
X158955049Y-104752181D01*
X158955048Y-104752179D01*
X158830109Y-104580213D01*
X158679786Y-104429890D01*
X158507820Y-104304951D01*
X158318414Y-104208444D01*
X158318413Y-104208443D01*
X158318412Y-104208443D01*
X158116243Y-104142754D01*
X158116241Y-104142753D01*
X158116240Y-104142753D01*
X157949927Y-104116412D01*
X157906287Y-104109500D01*
X157693713Y-104109500D01*
X157650073Y-104116412D01*
X157483760Y-104142753D01*
X157281585Y-104208444D01*
X157092179Y-104304951D01*
X156920213Y-104429890D01*
X156769890Y-104580213D01*
X156644951Y-104752179D01*
X156548444Y-104941585D01*
X156548443Y-104941587D01*
X156548443Y-104941588D01*
X156545114Y-104951835D01*
X156482753Y-105143760D01*
X156449500Y-105353713D01*
X152500500Y-105353713D01*
X152500500Y-102102135D01*
X160649500Y-102102135D01*
X160649500Y-103897870D01*
X160649501Y-103897876D01*
X160655908Y-103957483D01*
X160706202Y-104092328D01*
X160706206Y-104092335D01*
X160792452Y-104207544D01*
X160792455Y-104207547D01*
X160907664Y-104293793D01*
X160907671Y-104293797D01*
X161042517Y-104344091D01*
X161042516Y-104344091D01*
X161049444Y-104344835D01*
X161102127Y-104350500D01*
X162897872Y-104350499D01*
X162957483Y-104344091D01*
X163092331Y-104293796D01*
X163207546Y-104207546D01*
X163293796Y-104092331D01*
X163342810Y-103960916D01*
X163384681Y-103904984D01*
X163450145Y-103880566D01*
X163518418Y-103895417D01*
X163546673Y-103916569D01*
X163660213Y-104030109D01*
X163832179Y-104155048D01*
X163832181Y-104155049D01*
X163832184Y-104155051D01*
X164021588Y-104251557D01*
X164223757Y-104317246D01*
X164433713Y-104350500D01*
X164433714Y-104350500D01*
X164646286Y-104350500D01*
X164646287Y-104350500D01*
X164856243Y-104317246D01*
X165058412Y-104251557D01*
X165247816Y-104155051D01*
X165269789Y-104139086D01*
X165419786Y-104030109D01*
X165419788Y-104030106D01*
X165419792Y-104030104D01*
X165570104Y-103879792D01*
X165570106Y-103879788D01*
X165570109Y-103879786D01*
X165695048Y-103707820D01*
X165695047Y-103707820D01*
X165695051Y-103707816D01*
X165791557Y-103518412D01*
X165857246Y-103316243D01*
X165890500Y-103106287D01*
X165890500Y-102893713D01*
X165857246Y-102683757D01*
X165791557Y-102481588D01*
X165695051Y-102292184D01*
X165695049Y-102292181D01*
X165695048Y-102292179D01*
X165570109Y-102120213D01*
X165419786Y-101969890D01*
X165247820Y-101844951D01*
X165058414Y-101748444D01*
X165058413Y-101748443D01*
X165058412Y-101748443D01*
X164856243Y-101682754D01*
X164856241Y-101682753D01*
X164856240Y-101682753D01*
X164694957Y-101657208D01*
X164646287Y-101649500D01*
X164433713Y-101649500D01*
X164385042Y-101657208D01*
X164223760Y-101682753D01*
X164021585Y-101748444D01*
X163832179Y-101844951D01*
X163660215Y-101969889D01*
X163546673Y-102083431D01*
X163485350Y-102116915D01*
X163415658Y-102111931D01*
X163359725Y-102070059D01*
X163342810Y-102039082D01*
X163293797Y-101907671D01*
X163293793Y-101907664D01*
X163207547Y-101792455D01*
X163207544Y-101792452D01*
X163092335Y-101706206D01*
X163092328Y-101706202D01*
X162957482Y-101655908D01*
X162957483Y-101655908D01*
X162897883Y-101649501D01*
X162897881Y-101649500D01*
X162897873Y-101649500D01*
X162897864Y-101649500D01*
X161102129Y-101649500D01*
X161102123Y-101649501D01*
X161042516Y-101655908D01*
X160907671Y-101706202D01*
X160907664Y-101706206D01*
X160792455Y-101792452D01*
X160792452Y-101792455D01*
X160706206Y-101907664D01*
X160706202Y-101907671D01*
X160655908Y-102042517D01*
X160649501Y-102102116D01*
X160649500Y-102102135D01*
X152500500Y-102102135D01*
X152500500Y-100064071D01*
X155669499Y-100064071D01*
X155694497Y-100189738D01*
X155694499Y-100189744D01*
X155743533Y-100308124D01*
X155743538Y-100308133D01*
X155814723Y-100414668D01*
X155814726Y-100414672D01*
X155905327Y-100505273D01*
X155905331Y-100505276D01*
X156011866Y-100576461D01*
X156011872Y-100576464D01*
X156011873Y-100576465D01*
X156130256Y-100625501D01*
X156130260Y-100625501D01*
X156130261Y-100625502D01*
X156255928Y-100650500D01*
X156255931Y-100650500D01*
X156384071Y-100650500D01*
X156495562Y-100628322D01*
X156509744Y-100625501D01*
X156628127Y-100576465D01*
X156734669Y-100505276D01*
X156825276Y-100414669D01*
X156896465Y-100308127D01*
X156945501Y-100189744D01*
X156970500Y-100064069D01*
X156970500Y-99935931D01*
X156970500Y-99935928D01*
X156945700Y-99811256D01*
X156945700Y-99811255D01*
X156945699Y-99811252D01*
X156945501Y-99810257D01*
X156945501Y-99810256D01*
X156920542Y-99750000D01*
X167532769Y-99750000D01*
X168426988Y-99750000D01*
X168394075Y-99807007D01*
X168360000Y-99934174D01*
X168360000Y-100065826D01*
X168394075Y-100192993D01*
X168426988Y-100250000D01*
X167532769Y-100250000D01*
X167543242Y-100316126D01*
X167543242Y-100316129D01*
X167608904Y-100518217D01*
X167705379Y-100707557D01*
X167830272Y-100879459D01*
X167830276Y-100879464D01*
X167980535Y-101029723D01*
X167980540Y-101029727D01*
X168152442Y-101154620D01*
X168341782Y-101251095D01*
X168543871Y-101316757D01*
X168610000Y-101327231D01*
X168610000Y-100433012D01*
X168667007Y-100465925D01*
X168794174Y-100500000D01*
X168925826Y-100500000D01*
X169052993Y-100465925D01*
X169110000Y-100433012D01*
X169110000Y-101327230D01*
X169176126Y-101316757D01*
X169176129Y-101316757D01*
X169378217Y-101251095D01*
X169567557Y-101154620D01*
X169739458Y-101029728D01*
X169853133Y-100916053D01*
X169914456Y-100882568D01*
X169984148Y-100887552D01*
X170040082Y-100929423D01*
X170056997Y-100960401D01*
X170106202Y-101092328D01*
X170106206Y-101092335D01*
X170192452Y-101207544D01*
X170192455Y-101207547D01*
X170307664Y-101293793D01*
X170307671Y-101293797D01*
X170442517Y-101344091D01*
X170442516Y-101344091D01*
X170449444Y-101344835D01*
X170502127Y-101350500D01*
X171284217Y-101350499D01*
X171351256Y-101370183D01*
X171371898Y-101386818D01*
X174572215Y-104587137D01*
X174572219Y-104587140D01*
X174736079Y-104696628D01*
X174736085Y-104696631D01*
X174736086Y-104696632D01*
X174918165Y-104772052D01*
X174971918Y-104782743D01*
X175033829Y-104815128D01*
X175055114Y-104842361D01*
X175166420Y-105035148D01*
X175166431Y-105035164D01*
X175342024Y-105264002D01*
X175342030Y-105264009D01*
X175545990Y-105467969D01*
X175545997Y-105467975D01*
X175581238Y-105495016D01*
X175774844Y-105643575D01*
X175774851Y-105643579D01*
X176024647Y-105787800D01*
X176024663Y-105787808D01*
X176291139Y-105898185D01*
X176291145Y-105898186D01*
X176291155Y-105898191D01*
X176569783Y-105972849D01*
X176855772Y-106010500D01*
X176855779Y-106010500D01*
X177144221Y-106010500D01*
X177144228Y-106010500D01*
X177430217Y-105972849D01*
X177708845Y-105898191D01*
X177708857Y-105898185D01*
X177708860Y-105898185D01*
X177975336Y-105787808D01*
X177975339Y-105787806D01*
X177975345Y-105787804D01*
X178225156Y-105643575D01*
X178454004Y-105467974D01*
X178657974Y-105264004D01*
X178833575Y-105035156D01*
X178977804Y-104785345D01*
X178988907Y-104758541D01*
X179088185Y-104518860D01*
X179088185Y-104518857D01*
X179088191Y-104518845D01*
X179162849Y-104240217D01*
X179200500Y-103954228D01*
X179200500Y-103665772D01*
X179162849Y-103379783D01*
X179088191Y-103101155D01*
X179088186Y-103101145D01*
X179088185Y-103101139D01*
X178977808Y-102834663D01*
X178977800Y-102834647D01*
X178833579Y-102584851D01*
X178833575Y-102584844D01*
X178682036Y-102387354D01*
X178657975Y-102355997D01*
X178657969Y-102355990D01*
X178454009Y-102152030D01*
X178454002Y-102152024D01*
X178225164Y-101976431D01*
X178225162Y-101976430D01*
X178225156Y-101976425D01*
X178106059Y-101907664D01*
X178037443Y-101868048D01*
X177989228Y-101817480D01*
X177976006Y-101748873D01*
X178001974Y-101684009D01*
X178037441Y-101653276D01*
X178085965Y-101625261D01*
X178288813Y-101469610D01*
X178469610Y-101288813D01*
X178625261Y-101085965D01*
X178753104Y-100864535D01*
X178850950Y-100628313D01*
X178917126Y-100381340D01*
X178950500Y-100127843D01*
X178950500Y-99872157D01*
X178917126Y-99618660D01*
X178850950Y-99371687D01*
X178753104Y-99135465D01*
X178753102Y-99135462D01*
X178753100Y-99135457D01*
X178625265Y-98914042D01*
X178625261Y-98914035D01*
X178531969Y-98792455D01*
X178469611Y-98711188D01*
X178469605Y-98711181D01*
X178288818Y-98530394D01*
X178288811Y-98530388D01*
X178085973Y-98374745D01*
X178085971Y-98374744D01*
X178085965Y-98374739D01*
X178037442Y-98346724D01*
X177989228Y-98296158D01*
X177976004Y-98227551D01*
X178001972Y-98162687D01*
X178037441Y-98131952D01*
X178225156Y-98023575D01*
X178454004Y-97847974D01*
X178657974Y-97644004D01*
X178833575Y-97415156D01*
X178977804Y-97165345D01*
X179002267Y-97106287D01*
X179088185Y-96898860D01*
X179088185Y-96898857D01*
X179088191Y-96898845D01*
X179162849Y-96620217D01*
X179200500Y-96334228D01*
X179200500Y-96086530D01*
X189919500Y-96086530D01*
X189919500Y-96293469D01*
X189959868Y-96496412D01*
X189959870Y-96496420D01*
X190039058Y-96687596D01*
X190154024Y-96859657D01*
X190300342Y-97005975D01*
X190300345Y-97005977D01*
X190472402Y-97120941D01*
X190663580Y-97200130D01*
X190866530Y-97240499D01*
X190866534Y-97240500D01*
X190866535Y-97240500D01*
X191073466Y-97240500D01*
X191073467Y-97240499D01*
X191276420Y-97200130D01*
X191467598Y-97120941D01*
X191639655Y-97005977D01*
X191785977Y-96859655D01*
X191900941Y-96687598D01*
X191980130Y-96496420D01*
X192020500Y-96293465D01*
X192020500Y-96086535D01*
X191980130Y-95883580D01*
X191900941Y-95692402D01*
X191785977Y-95520345D01*
X191785975Y-95520342D01*
X191639657Y-95374024D01*
X191514092Y-95290125D01*
X191467598Y-95259059D01*
X191276420Y-95179870D01*
X191276412Y-95179868D01*
X191073469Y-95139500D01*
X191073465Y-95139500D01*
X190866535Y-95139500D01*
X190866530Y-95139500D01*
X190663587Y-95179868D01*
X190663579Y-95179870D01*
X190472403Y-95259058D01*
X190300342Y-95374024D01*
X190154024Y-95520342D01*
X190039058Y-95692403D01*
X189959870Y-95883579D01*
X189959868Y-95883587D01*
X189919500Y-96086530D01*
X179200500Y-96086530D01*
X179200500Y-96045772D01*
X179162849Y-95759783D01*
X179088191Y-95481155D01*
X179088186Y-95481145D01*
X179088185Y-95481139D01*
X178977808Y-95214663D01*
X178977800Y-95214647D01*
X178833579Y-94964851D01*
X178833575Y-94964844D01*
X178712875Y-94807544D01*
X178657975Y-94735997D01*
X178657969Y-94735990D01*
X178454009Y-94532030D01*
X178454002Y-94532024D01*
X178225164Y-94356431D01*
X178225162Y-94356429D01*
X178225156Y-94356425D01*
X178225151Y-94356422D01*
X178225148Y-94356420D01*
X177975352Y-94212199D01*
X177975336Y-94212191D01*
X177708860Y-94101814D01*
X177708848Y-94101810D01*
X177708845Y-94101809D01*
X177430217Y-94027151D01*
X177430211Y-94027150D01*
X177430206Y-94027149D01*
X177144238Y-93989501D01*
X177144233Y-93989500D01*
X177144228Y-93989500D01*
X176855772Y-93989500D01*
X176855766Y-93989500D01*
X176855761Y-93989501D01*
X176569793Y-94027149D01*
X176569786Y-94027150D01*
X176569783Y-94027151D01*
X176291155Y-94101809D01*
X176291139Y-94101814D01*
X176024663Y-94212191D01*
X176024647Y-94212199D01*
X175774851Y-94356420D01*
X175774835Y-94356431D01*
X175545997Y-94532024D01*
X175545990Y-94532030D01*
X175342030Y-94735990D01*
X175342024Y-94735997D01*
X175166431Y-94964835D01*
X175166420Y-94964851D01*
X175022199Y-95214647D01*
X175022191Y-95214663D01*
X174911814Y-95481139D01*
X174911809Y-95481155D01*
X174851508Y-95706204D01*
X174837152Y-95759780D01*
X174837149Y-95759793D01*
X174799501Y-96045761D01*
X174799500Y-96045778D01*
X174799500Y-96334221D01*
X174799501Y-96334238D01*
X174837149Y-96620206D01*
X174837150Y-96620211D01*
X174837151Y-96620217D01*
X174855206Y-96687598D01*
X174911809Y-96898844D01*
X174911814Y-96898860D01*
X175022191Y-97165336D01*
X175022199Y-97165352D01*
X175166420Y-97415148D01*
X175166431Y-97415164D01*
X175342024Y-97644002D01*
X175342030Y-97644009D01*
X175545990Y-97847969D01*
X175545997Y-97847975D01*
X175620293Y-97904984D01*
X175774844Y-98023575D01*
X175774851Y-98023579D01*
X175962555Y-98131951D01*
X176010771Y-98182518D01*
X176023993Y-98251125D01*
X175998025Y-98315990D01*
X175962557Y-98346724D01*
X175914040Y-98374735D01*
X175914026Y-98374745D01*
X175711188Y-98530388D01*
X175711181Y-98530394D01*
X175530394Y-98711181D01*
X175530388Y-98711188D01*
X175374745Y-98914026D01*
X175374734Y-98914042D01*
X175246899Y-99135457D01*
X175246894Y-99135468D01*
X175149053Y-99371677D01*
X175149050Y-99371687D01*
X175087901Y-99599901D01*
X175082874Y-99618661D01*
X175049500Y-99872149D01*
X175049500Y-100127850D01*
X175073088Y-100307007D01*
X175082874Y-100381340D01*
X175148297Y-100625501D01*
X175149050Y-100628312D01*
X175149053Y-100628322D01*
X175246894Y-100864531D01*
X175246899Y-100864542D01*
X175374734Y-101085957D01*
X175374745Y-101085973D01*
X175530388Y-101288811D01*
X175530394Y-101288818D01*
X175711181Y-101469605D01*
X175711187Y-101469610D01*
X175914035Y-101625261D01*
X175937496Y-101638806D01*
X175962555Y-101653274D01*
X176010771Y-101703841D01*
X176023994Y-101772448D01*
X175998026Y-101837313D01*
X175962556Y-101868048D01*
X175774844Y-101976425D01*
X175774835Y-101976431D01*
X175545997Y-102152024D01*
X175545990Y-102152030D01*
X175344151Y-102353869D01*
X175282828Y-102387354D01*
X175213136Y-102382370D01*
X175168789Y-102353869D01*
X172786818Y-99971898D01*
X172753333Y-99910575D01*
X172750499Y-99884217D01*
X172750499Y-99102129D01*
X172750498Y-99102123D01*
X172744091Y-99042516D01*
X172693797Y-98907671D01*
X172693793Y-98907664D01*
X172607547Y-98792455D01*
X172607544Y-98792452D01*
X172492335Y-98706206D01*
X172492328Y-98706202D01*
X172357482Y-98655908D01*
X172357483Y-98655908D01*
X172297883Y-98649501D01*
X172297881Y-98649500D01*
X172297873Y-98649500D01*
X172297864Y-98649500D01*
X170502129Y-98649500D01*
X170502123Y-98649501D01*
X170442516Y-98655908D01*
X170307671Y-98706202D01*
X170307664Y-98706206D01*
X170192455Y-98792452D01*
X170192452Y-98792455D01*
X170106206Y-98907664D01*
X170106202Y-98907671D01*
X170056997Y-99039598D01*
X170015126Y-99095532D01*
X169949661Y-99119949D01*
X169881388Y-99105097D01*
X169853134Y-99083946D01*
X169739464Y-98970276D01*
X169739459Y-98970272D01*
X169567557Y-98845379D01*
X169378215Y-98748903D01*
X169176124Y-98683241D01*
X169110000Y-98672768D01*
X169110000Y-99566988D01*
X169052993Y-99534075D01*
X168925826Y-99500000D01*
X168794174Y-99500000D01*
X168667007Y-99534075D01*
X168610000Y-99566988D01*
X168610000Y-98672768D01*
X168609999Y-98672768D01*
X168543875Y-98683241D01*
X168341784Y-98748903D01*
X168152442Y-98845379D01*
X167980540Y-98970272D01*
X167980535Y-98970276D01*
X167830276Y-99120535D01*
X167830272Y-99120540D01*
X167705379Y-99292442D01*
X167608904Y-99481782D01*
X167543242Y-99683870D01*
X167543242Y-99683873D01*
X167532769Y-99750000D01*
X156920542Y-99750000D01*
X156896465Y-99691873D01*
X156896464Y-99691872D01*
X156896461Y-99691866D01*
X156825276Y-99585331D01*
X156825273Y-99585327D01*
X156734672Y-99494726D01*
X156734668Y-99494723D01*
X156628133Y-99423538D01*
X156628124Y-99423533D01*
X156509744Y-99374499D01*
X156509738Y-99374497D01*
X156384071Y-99349500D01*
X156384069Y-99349500D01*
X156255931Y-99349500D01*
X156255929Y-99349500D01*
X156130261Y-99374497D01*
X156130255Y-99374499D01*
X156011875Y-99423533D01*
X156011866Y-99423538D01*
X155905331Y-99494723D01*
X155905327Y-99494726D01*
X155814726Y-99585327D01*
X155814723Y-99585331D01*
X155743538Y-99691866D01*
X155743533Y-99691875D01*
X155694499Y-99810255D01*
X155694497Y-99810261D01*
X155669500Y-99935928D01*
X155669500Y-99935931D01*
X155669500Y-100064069D01*
X155669500Y-100064071D01*
X155669499Y-100064071D01*
X152500500Y-100064071D01*
X152500500Y-96102135D01*
X160649500Y-96102135D01*
X160649500Y-97897870D01*
X160649501Y-97897876D01*
X160655908Y-97957483D01*
X160706202Y-98092328D01*
X160706206Y-98092335D01*
X160792452Y-98207544D01*
X160792455Y-98207547D01*
X160907664Y-98293793D01*
X160907671Y-98293797D01*
X161042517Y-98344091D01*
X161042516Y-98344091D01*
X161049444Y-98344835D01*
X161102127Y-98350500D01*
X162897872Y-98350499D01*
X162957483Y-98344091D01*
X163092331Y-98293796D01*
X163207546Y-98207546D01*
X163293796Y-98092331D01*
X163342810Y-97960916D01*
X163384681Y-97904984D01*
X163450145Y-97880566D01*
X163518418Y-97895417D01*
X163546673Y-97916569D01*
X163660213Y-98030109D01*
X163832179Y-98155048D01*
X163832181Y-98155049D01*
X163832184Y-98155051D01*
X164021588Y-98251557D01*
X164223757Y-98317246D01*
X164433713Y-98350500D01*
X164433714Y-98350500D01*
X164646286Y-98350500D01*
X164646287Y-98350500D01*
X164856243Y-98317246D01*
X165058412Y-98251557D01*
X165247816Y-98155051D01*
X165334138Y-98092335D01*
X165419786Y-98030109D01*
X165419788Y-98030106D01*
X165419792Y-98030104D01*
X165570104Y-97879792D01*
X165570106Y-97879788D01*
X165570109Y-97879786D01*
X165695048Y-97707820D01*
X165695047Y-97707820D01*
X165695051Y-97707816D01*
X165791557Y-97518412D01*
X165857246Y-97316243D01*
X165890500Y-97106287D01*
X165890500Y-96893713D01*
X165857246Y-96683757D01*
X165791557Y-96481588D01*
X165695051Y-96292184D01*
X165695049Y-96292181D01*
X165695048Y-96292179D01*
X165570109Y-96120213D01*
X165419786Y-95969890D01*
X165247820Y-95844951D01*
X165058414Y-95748444D01*
X165058413Y-95748443D01*
X165058412Y-95748443D01*
X164856243Y-95682754D01*
X164856241Y-95682753D01*
X164856240Y-95682753D01*
X164694957Y-95657208D01*
X164646287Y-95649500D01*
X164433713Y-95649500D01*
X164385042Y-95657208D01*
X164223760Y-95682753D01*
X164021585Y-95748444D01*
X163832179Y-95844951D01*
X163660215Y-95969889D01*
X163546673Y-96083431D01*
X163485350Y-96116915D01*
X163415658Y-96111931D01*
X163359725Y-96070059D01*
X163342810Y-96039082D01*
X163293797Y-95907671D01*
X163293793Y-95907664D01*
X163207547Y-95792455D01*
X163207544Y-95792452D01*
X163092335Y-95706206D01*
X163092328Y-95706202D01*
X162957482Y-95655908D01*
X162957483Y-95655908D01*
X162897883Y-95649501D01*
X162897881Y-95649500D01*
X162897873Y-95649500D01*
X162897864Y-95649500D01*
X161102129Y-95649500D01*
X161102123Y-95649501D01*
X161042516Y-95655908D01*
X160907671Y-95706202D01*
X160907664Y-95706206D01*
X160792455Y-95792452D01*
X160792452Y-95792455D01*
X160706206Y-95907664D01*
X160706202Y-95907671D01*
X160655908Y-96042517D01*
X160649501Y-96102116D01*
X160649500Y-96102135D01*
X152500500Y-96102135D01*
X152500500Y-95643677D01*
X157109873Y-95643677D01*
X157109873Y-95643678D01*
X157144858Y-95669096D01*
X157320164Y-95758418D01*
X157507294Y-95819221D01*
X157701618Y-95850000D01*
X157898382Y-95850000D01*
X158092705Y-95819221D01*
X158279835Y-95758418D01*
X158455143Y-95669095D01*
X158490125Y-95643678D01*
X158490126Y-95643678D01*
X157800001Y-94953553D01*
X157800000Y-94953553D01*
X157109873Y-95643677D01*
X152500500Y-95643677D01*
X152500500Y-94501617D01*
X156550000Y-94501617D01*
X156550000Y-94698382D01*
X156580778Y-94892705D01*
X156641581Y-95079835D01*
X156730905Y-95255145D01*
X156756319Y-95290125D01*
X156756320Y-95290125D01*
X157446446Y-94600000D01*
X157446446Y-94599999D01*
X157400369Y-94553922D01*
X157450000Y-94553922D01*
X157450000Y-94646078D01*
X157473852Y-94735095D01*
X157519930Y-94814905D01*
X157585095Y-94880070D01*
X157664905Y-94926148D01*
X157753922Y-94950000D01*
X157846078Y-94950000D01*
X157935095Y-94926148D01*
X158014905Y-94880070D01*
X158080070Y-94814905D01*
X158126148Y-94735095D01*
X158150000Y-94646078D01*
X158150000Y-94599999D01*
X158153553Y-94599999D01*
X158153553Y-94600000D01*
X158843678Y-95290126D01*
X158843678Y-95290125D01*
X158869095Y-95255143D01*
X158958418Y-95079835D01*
X159019221Y-94892705D01*
X159050000Y-94698382D01*
X159050000Y-94501617D01*
X159019221Y-94307294D01*
X158958418Y-94120164D01*
X158869096Y-93944858D01*
X158843678Y-93909873D01*
X158843677Y-93909873D01*
X158153553Y-94599999D01*
X158150000Y-94599999D01*
X158150000Y-94553922D01*
X158126148Y-94464905D01*
X158080070Y-94385095D01*
X158014905Y-94319930D01*
X157935095Y-94273852D01*
X157846078Y-94250000D01*
X157753922Y-94250000D01*
X157664905Y-94273852D01*
X157585095Y-94319930D01*
X157519930Y-94385095D01*
X157473852Y-94464905D01*
X157450000Y-94553922D01*
X157400369Y-94553922D01*
X156756320Y-93909872D01*
X156756320Y-93909873D01*
X156730902Y-93944859D01*
X156730899Y-93944863D01*
X156641582Y-94120161D01*
X156580778Y-94307294D01*
X156550000Y-94501617D01*
X152500500Y-94501617D01*
X152500500Y-93556320D01*
X157109872Y-93556320D01*
X157800000Y-94246446D01*
X157800001Y-94246446D01*
X158490125Y-93556320D01*
X158490125Y-93556319D01*
X158455145Y-93530905D01*
X158279835Y-93441581D01*
X158092705Y-93380778D01*
X157898382Y-93350000D01*
X157701618Y-93350000D01*
X157507294Y-93380778D01*
X157320161Y-93441582D01*
X157144863Y-93530899D01*
X157144859Y-93530902D01*
X157109873Y-93556320D01*
X157109872Y-93556320D01*
X152500500Y-93556320D01*
X152500500Y-89102135D01*
X160649500Y-89102135D01*
X160649500Y-90897870D01*
X160649501Y-90897876D01*
X160655908Y-90957483D01*
X160706202Y-91092328D01*
X160706206Y-91092335D01*
X160792452Y-91207544D01*
X160792455Y-91207547D01*
X160907664Y-91293793D01*
X160907671Y-91293797D01*
X161039082Y-91342810D01*
X161095016Y-91384681D01*
X161119433Y-91450145D01*
X161104582Y-91518418D01*
X161083431Y-91546673D01*
X160969889Y-91660215D01*
X160844951Y-91832179D01*
X160748444Y-92021585D01*
X160682753Y-92223760D01*
X160663005Y-92348444D01*
X160649500Y-92433713D01*
X160649500Y-92646287D01*
X160682754Y-92856243D01*
X160694430Y-92892179D01*
X160748444Y-93058414D01*
X160844951Y-93247820D01*
X160969890Y-93419786D01*
X161120213Y-93570109D01*
X161292179Y-93695048D01*
X161292181Y-93695049D01*
X161292184Y-93695051D01*
X161481588Y-93791557D01*
X161683757Y-93857246D01*
X161893713Y-93890500D01*
X161893714Y-93890500D01*
X162106286Y-93890500D01*
X162106287Y-93890500D01*
X162316243Y-93857246D01*
X162518412Y-93791557D01*
X162707816Y-93695051D01*
X162729789Y-93679086D01*
X162879786Y-93570109D01*
X162879788Y-93570106D01*
X162879792Y-93570104D01*
X162956183Y-93493713D01*
X167509500Y-93493713D01*
X167509500Y-93706286D01*
X167538676Y-93890500D01*
X167542754Y-93916243D01*
X167603048Y-94101809D01*
X167608444Y-94118414D01*
X167704951Y-94307820D01*
X167829890Y-94479786D01*
X167980213Y-94630109D01*
X168152179Y-94755048D01*
X168152181Y-94755049D01*
X168152184Y-94755051D01*
X168341588Y-94851557D01*
X168543757Y-94917246D01*
X168753713Y-94950500D01*
X168753714Y-94950500D01*
X168966286Y-94950500D01*
X168966287Y-94950500D01*
X169176243Y-94917246D01*
X169378412Y-94851557D01*
X169567816Y-94755051D01*
X169739792Y-94630104D01*
X169853329Y-94516566D01*
X169914648Y-94483084D01*
X169984340Y-94488068D01*
X170040274Y-94529939D01*
X170057189Y-94560917D01*
X170106202Y-94692328D01*
X170106206Y-94692335D01*
X170192452Y-94807544D01*
X170192455Y-94807547D01*
X170307664Y-94893793D01*
X170307671Y-94893797D01*
X170442517Y-94944091D01*
X170442516Y-94944091D01*
X170449444Y-94944835D01*
X170502127Y-94950500D01*
X172297872Y-94950499D01*
X172357483Y-94944091D01*
X172492331Y-94893796D01*
X172607546Y-94807546D01*
X172693796Y-94692331D01*
X172744091Y-94557483D01*
X172750500Y-94497873D01*
X172750499Y-92702128D01*
X172744091Y-92642517D01*
X172742810Y-92639083D01*
X172693797Y-92507671D01*
X172693793Y-92507664D01*
X172607547Y-92392455D01*
X172607544Y-92392452D01*
X172492335Y-92306206D01*
X172492328Y-92306202D01*
X172357482Y-92255908D01*
X172357483Y-92255908D01*
X172297883Y-92249501D01*
X172297881Y-92249500D01*
X172297873Y-92249500D01*
X172297864Y-92249500D01*
X170502129Y-92249500D01*
X170502123Y-92249501D01*
X170442516Y-92255908D01*
X170307671Y-92306202D01*
X170307664Y-92306206D01*
X170192455Y-92392452D01*
X170192452Y-92392455D01*
X170106206Y-92507664D01*
X170106203Y-92507669D01*
X170057189Y-92639083D01*
X170015317Y-92695016D01*
X169949853Y-92719433D01*
X169881580Y-92704581D01*
X169853326Y-92683430D01*
X169739786Y-92569890D01*
X169567820Y-92444951D01*
X169378414Y-92348444D01*
X169378413Y-92348443D01*
X169378412Y-92348443D01*
X169176243Y-92282754D01*
X169176241Y-92282753D01*
X169176240Y-92282753D01*
X169014957Y-92257208D01*
X168966287Y-92249500D01*
X168753713Y-92249500D01*
X168705042Y-92257208D01*
X168543760Y-92282753D01*
X168341585Y-92348444D01*
X168152179Y-92444951D01*
X167980213Y-92569890D01*
X167829890Y-92720213D01*
X167704951Y-92892179D01*
X167608444Y-93081585D01*
X167542753Y-93283760D01*
X167509500Y-93493713D01*
X162956183Y-93493713D01*
X163030104Y-93419792D01*
X163030328Y-93419483D01*
X163032892Y-93415956D01*
X163155048Y-93247820D01*
X163155047Y-93247820D01*
X163155051Y-93247816D01*
X163251557Y-93058412D01*
X163317246Y-92856243D01*
X163350500Y-92646287D01*
X163350500Y-92433713D01*
X163317246Y-92223757D01*
X163251557Y-92021588D01*
X163155051Y-91832184D01*
X163155049Y-91832181D01*
X163155048Y-91832179D01*
X163030109Y-91660213D01*
X162916569Y-91546673D01*
X162883084Y-91485350D01*
X162888068Y-91415658D01*
X162929940Y-91359725D01*
X162960915Y-91342810D01*
X163092331Y-91293796D01*
X163207546Y-91207546D01*
X163293796Y-91092331D01*
X163344091Y-90957483D01*
X163350500Y-90897873D01*
X163350499Y-89102128D01*
X163344091Y-89042517D01*
X163293796Y-88907669D01*
X163293795Y-88907668D01*
X163293793Y-88907664D01*
X163207547Y-88792455D01*
X163207544Y-88792452D01*
X163092335Y-88706206D01*
X163092328Y-88706202D01*
X162957482Y-88655908D01*
X162957483Y-88655908D01*
X162897883Y-88649501D01*
X162897881Y-88649500D01*
X162897873Y-88649500D01*
X162897864Y-88649500D01*
X161102129Y-88649500D01*
X161102123Y-88649501D01*
X161042516Y-88655908D01*
X160907671Y-88706202D01*
X160907664Y-88706206D01*
X160792455Y-88792452D01*
X160792452Y-88792455D01*
X160706206Y-88907664D01*
X160706202Y-88907671D01*
X160655908Y-89042517D01*
X160649501Y-89102116D01*
X160649501Y-89102123D01*
X160649500Y-89102135D01*
X152500500Y-89102135D01*
X152500500Y-84324000D01*
X152520185Y-84256961D01*
X152572989Y-84211206D01*
X152624500Y-84200000D01*
X154053577Y-84200000D01*
X154101028Y-84209438D01*
G37*
%TD.AperFunction*%
%TD*%
M02*
