%TF.GenerationSoftware,KiCad,Pcbnew,9.0.0*%
%TF.CreationDate,2025-03-06T01:46:26+08:00*%
%TF.ProjectId,HighDRMic_EVB,48696768-4452-44d6-9963-5f4556422e6b,rev?*%
%TF.SameCoordinates,Original*%
%TF.FileFunction,Soldermask,Top*%
%TF.FilePolarity,Negative*%
%FSLAX46Y46*%
G04 Gerber Fmt 4.6, Leading zero omitted, Abs format (unit mm)*
G04 Created by KiCad (PCBNEW 9.0.0) date 2025-03-06 01:46:26*
%MOMM*%
%LPD*%
G01*
G04 APERTURE LIST*
G04 Aperture macros list*
%AMRoundRect*
0 Rectangle with rounded corners*
0 $1 Rounding radius*
0 $2 $3 $4 $5 $6 $7 $8 $9 X,Y pos of 4 corners*
0 Add a 4 corners polygon primitive as box body*
4,1,4,$2,$3,$4,$5,$6,$7,$8,$9,$2,$3,0*
0 Add four circle primitives for the rounded corners*
1,1,$1+$1,$2,$3*
1,1,$1+$1,$4,$5*
1,1,$1+$1,$6,$7*
1,1,$1+$1,$8,$9*
0 Add four rect primitives between the rounded corners*
20,1,$1+$1,$2,$3,$4,$5,0*
20,1,$1+$1,$4,$5,$6,$7,0*
20,1,$1+$1,$6,$7,$8,$9,0*
20,1,$1+$1,$8,$9,$2,$3,0*%
%AMFreePoly0*
4,1,64,0.301896,1.805218,0.490253,1.727198,0.659769,1.613931,0.803931,1.469769,0.917198,1.300253,0.995218,1.111896,1.034992,0.911938,1.034992,0.708062,0.995218,0.508104,0.917198,0.319747,0.803931,0.150231,0.659769,0.006069,0.490253,-0.107198,0.301896,-0.185218,0.101938,-0.224992,0.046293,-0.224992,0.044871,-0.225581,-0.044871,-0.225581,-0.046293,-0.224992,-0.101938,-0.224992,
-0.301896,-0.185218,-0.490253,-0.107198,-0.659769,0.006069,-0.803931,0.150231,-0.917198,0.319747,-0.995218,0.508104,-1.034992,0.708062,-1.034992,0.886358,-0.580000,0.886358,-0.580000,0.733642,-0.540474,0.586128,-0.464116,0.453872,-0.356128,0.345884,-0.223872,0.269526,-0.076358,0.230000,0.076358,0.230000,0.223872,0.269526,0.356128,0.345884,0.464116,0.453872,0.540474,0.586128,
0.580000,0.733642,0.580000,0.886358,0.540474,1.033872,0.464116,1.166128,0.356128,1.274116,0.223872,1.350474,0.076358,1.390000,-0.076358,1.390000,-0.223872,1.350474,-0.356128,1.274116,-0.464116,1.166128,-0.540474,1.033872,-0.580000,0.886358,-1.034992,0.886358,-1.034992,0.911938,-0.995218,1.111896,-0.917198,1.300253,-0.803931,1.469769,-0.659769,1.613931,-0.490253,1.727198,
-0.301896,1.805218,-0.101938,1.844992,0.101938,1.844992,0.301896,1.805218,0.301896,1.805218,$1*%
G04 Aperture macros list end*
%ADD10R,1.700000X1.700000*%
%ADD11O,1.700000X1.700000*%
%ADD12C,1.600000*%
%ADD13C,3.400000*%
%ADD14C,2.900000*%
%ADD15C,0.800000*%
%ADD16RoundRect,0.112500X0.112500X-0.262500X0.112500X0.262500X-0.112500X0.262500X-0.112500X-0.262500X0*%
%ADD17FreePoly0,90.000000*%
%ADD18RoundRect,0.100000X0.217500X0.100000X-0.217500X0.100000X-0.217500X-0.100000X0.217500X-0.100000X0*%
%ADD19RoundRect,0.100000X-0.217500X-0.100000X0.217500X-0.100000X0.217500X0.100000X-0.217500X0.100000X0*%
%ADD20C,1.500000*%
%ADD21RoundRect,0.100000X0.100000X-0.217500X0.100000X0.217500X-0.100000X0.217500X-0.100000X-0.217500X0*%
G04 APERTURE END LIST*
D10*
%TO.C,J9*%
X172940000Y-113800000D03*
D11*
X170400000Y-113800000D03*
%TD*%
D12*
%TO.C,XLR1*%
X185890000Y-103810000D03*
X190970000Y-96190000D03*
D13*
X177000000Y-103810000D03*
X177000000Y-96190000D03*
D14*
X177000000Y-100000000D03*
X182080000Y-100000000D03*
%TD*%
D15*
%TO.C,MK1*%
X156320000Y-100000000D03*
D16*
X158500000Y-100850000D03*
X157800000Y-100850000D03*
X158500000Y-99150000D03*
X157800000Y-99150000D03*
D17*
X157130000Y-100000000D03*
%TD*%
D10*
%TO.C,J7*%
X171400000Y-106400000D03*
D11*
X168860000Y-106400000D03*
%TD*%
D18*
%TO.C,C1*%
X166407500Y-109000000D03*
X165592500Y-109000000D03*
%TD*%
D10*
%TO.C,J11*%
X157800000Y-114200000D03*
D11*
X157800000Y-111660000D03*
%TD*%
D19*
%TO.C,C2*%
X165592500Y-91000000D03*
X166407500Y-91000000D03*
%TD*%
D10*
%TO.C,J6*%
X171400000Y-93600000D03*
D11*
X168860000Y-93600000D03*
%TD*%
D10*
%TO.C,J2*%
X162000000Y-110000000D03*
D11*
X162000000Y-107460000D03*
%TD*%
D19*
%TO.C,R1*%
X169592500Y-103000000D03*
X170407500Y-103000000D03*
%TD*%
D10*
%TO.C,J4*%
X162000000Y-103000000D03*
D11*
X164540000Y-103000000D03*
%TD*%
D20*
%TO.C,TP1*%
X157800000Y-94600000D03*
%TD*%
D10*
%TO.C,J10*%
X164200000Y-113800000D03*
D11*
X166740000Y-113800000D03*
%TD*%
D10*
%TO.C,J5*%
X162000000Y-97000000D03*
D11*
X164540000Y-97000000D03*
%TD*%
D21*
%TO.C,C3*%
X166000000Y-100407500D03*
X166000000Y-99592500D03*
%TD*%
D10*
%TO.C,J3*%
X162000000Y-90000000D03*
D11*
X162000000Y-92540000D03*
%TD*%
D10*
%TO.C,J8*%
X171400000Y-100000000D03*
D11*
X168860000Y-100000000D03*
%TD*%
D10*
%TO.C,J1*%
X157800000Y-108000000D03*
D11*
X157800000Y-105460000D03*
%TD*%
D19*
%TO.C,R2*%
X169592500Y-97000000D03*
X170407500Y-97000000D03*
%TD*%
M02*
