M48
; DRILL file {KiCad 9.0.0} date 2025-03-06T01:50:57+0800
; FORMAT={-:-/ absolute / metric / decimal}
; #@! TF.CreationDate,2025-03-06T01:50:57+08:00
; #@! TF.GenerationSoftware,Kicad,Pcbnew,9.0.0
; #@! TF.FileFunction,Plated,1,2,PTH
FMAT,2
METRIC
; #@! TA.AperFunction,Plated,PTH,ComponentDrill
T1C0.700
; #@! TA.AperFunction,Plated,PTH,ComponentDrill
T2C1.000
; #@! TA.AperFunction,Plated,PTH,ComponentDrill
T3C1.200
; #@! TA.AperFunction,Plated,PTH,ComponentDrill
T4C1.600
%
G90
G05
T1
X157.8Y-94.6
T2
X157.8Y-105.46
X157.8Y-108.0
X157.8Y-111.66
X157.8Y-114.2
X162.0Y-90.0
X162.0Y-92.54
X162.0Y-97.0
X162.0Y-103.0
X162.0Y-107.46
X162.0Y-110.0
X164.2Y-113.8
X164.54Y-97.0
X164.54Y-103.0
X166.74Y-113.8
X168.86Y-93.6
X168.86Y-100.0
X168.86Y-106.4
X170.4Y-113.8
X171.4Y-93.6
X171.4Y-100.0
X171.4Y-106.4
X172.94Y-113.8
T3
X177.0Y-100.0
X182.08Y-100.0
T4
X177.0Y-96.19
X177.0Y-103.81
M30
